<?xml version="1.0" encoding="utf-8" standalone="no"?>
<!DOCTYPE svg PUBLIC "-//W3C//DTD SVG 1.1//EN"
  "http://www.w3.org/Graphics/SVG/1.1/DTD/svg11.dtd">
<!-- Created with matplotlib (https://matplotlib.org/) -->
<svg height="432pt" version="1.1" viewBox="0 0 1296 432" width="1296pt" xmlns="http://www.w3.org/2000/svg" xmlns:xlink="http://www.w3.org/1999/xlink">
 <defs>
  <style type="text/css">
*{stroke-linecap:butt;stroke-linejoin:round;}
  </style>
 </defs>
 <g id="figure_1">
  <g id="patch_1">
   <path d="M 0 432 
L 1296 432 
L 1296 0 
L 0 0 
z
" style="fill:#ffffff;"/>
  </g>
  <g id="axes_1">
   <g id="patch_2">
    <path d="M 38.86 404.12 
L 639.05492 404.12 
L 639.05492 28.32 
L 38.86 28.32 
z
" style="fill:#ffffff;"/>
   </g>
   <g id="PathCollection_1">
    <defs>
     <path d="M 0 3 
C 0.795609 3 1.55874 2.683901 2.12132 2.12132 
C 2.683901 1.55874 3 0.795609 3 0 
C 3 -0.795609 2.683901 -1.55874 2.12132 -2.12132 
C 1.55874 -2.683901 0.795609 -3 0 -3 
C -0.795609 -3 -1.55874 -2.683901 -2.12132 -2.12132 
C -2.683901 -1.55874 -3 -0.795609 -3 0 
C -3 0.795609 -2.683901 1.55874 -2.12132 2.12132 
C -1.55874 2.683901 -0.795609 3 0 3 
z
" id="mf14c60152d" style="stroke:#1f77b4;"/>
    </defs>
    <g clip-path="url(#p0b30dda2d4)">
     <use style="fill:#1f77b4;stroke:#1f77b4;" x="278.934771" xlink:href="#mf14c60152d" y="240.392562"/>
     <use style="fill:#1f77b4;stroke:#1f77b4;" x="309.091643" xlink:href="#mf14c60152d" y="240.343969"/>
     <use style="fill:#1f77b4;stroke:#1f77b4;" x="383.749131" xlink:href="#mf14c60152d" y="237.195995"/>
     <use style="fill:#1f77b4;stroke:#1f77b4;" x="390.155619" xlink:href="#mf14c60152d" y="255.516148"/>
     <use style="fill:#1f77b4;stroke:#1f77b4;" x="347.856652" xlink:href="#mf14c60152d" y="243.51065"/>
     <use style="fill:#1f77b4;stroke:#1f77b4;" x="300.960549" xlink:href="#mf14c60152d" y="218.754975"/>
     <use style="fill:#1f77b4;stroke:#1f77b4;" x="348.860365" xlink:href="#mf14c60152d" y="222.319274"/>
     <use style="fill:#1f77b4;stroke:#1f77b4;" x="344.908011" xlink:href="#mf14c60152d" y="269.190352"/>
    </g>
   </g>
   <g id="PathCollection_2">
    <defs>
     <path d="M 0 3 
C 0.795609 3 1.55874 2.683901 2.12132 2.12132 
C 2.683901 1.55874 3 0.795609 3 0 
C 3 -0.795609 2.683901 -1.55874 2.12132 -2.12132 
C 1.55874 -2.683901 0.795609 -3 0 -3 
C -0.795609 -3 -1.55874 -2.683901 -2.12132 -2.12132 
C -2.683901 -1.55874 -3 -0.795609 -3 0 
C -3 0.795609 -2.683901 1.55874 -2.12132 2.12132 
C -1.55874 2.683901 -0.795609 3 0 3 
z
" id="maa599bbe04" style="stroke:#ff7f0e;"/>
    </defs>
    <g clip-path="url(#p0b30dda2d4)">
     <use style="fill:#ff7f0e;stroke:#ff7f0e;" x="375.920085" xlink:href="#maa599bbe04" y="291.155443"/>
     <use style="fill:#ff7f0e;stroke:#ff7f0e;" x="380.721332" xlink:href="#maa599bbe04" y="320.296792"/>
     <use style="fill:#ff7f0e;stroke:#ff7f0e;" x="340.590864" xlink:href="#maa599bbe04" y="315.903721"/>
     <use style="fill:#ff7f0e;stroke:#ff7f0e;" x="345.47547" xlink:href="#maa599bbe04" y="293.68126"/>
    </g>
   </g>
   <g id="PathCollection_3">
    <defs>
     <path d="M 0 3 
C 0.795609 3 1.55874 2.683901 2.12132 2.12132 
C 2.683901 1.55874 3 0.795609 3 0 
C 3 -0.795609 2.683901 -1.55874 2.12132 -2.12132 
C 1.55874 -2.683901 0.795609 -3 0 -3 
C -0.795609 -3 -1.55874 -2.683901 -2.12132 -2.12132 
C -2.683901 -1.55874 -3 -0.795609 -3 0 
C -3 0.795609 -2.683901 1.55874 -2.12132 2.12132 
C -1.55874 2.683901 -0.795609 3 0 3 
z
" id="m03e92634f4" style="stroke:#2ca02c;"/>
    </defs>
    <g clip-path="url(#p0b30dda2d4)">
     <use style="fill:#2ca02c;stroke:#2ca02c;" x="278.372319" xlink:href="#m03e92634f4" y="383.118911"/>
     <use style="fill:#2ca02c;stroke:#2ca02c;" x="285.177531" xlink:href="#m03e92634f4" y="362.550493"/>
     <use style="fill:#2ca02c;stroke:#2ca02c;" x="329.845463" xlink:href="#m03e92634f4" y="367.560867"/>
     <use style="fill:#2ca02c;stroke:#2ca02c;" x="317.384556" xlink:href="#m03e92634f4" y="384.839057"/>
     <use style="fill:#2ca02c;stroke:#2ca02c;" x="383.720707" xlink:href="#m03e92634f4" y="387.038182"/>
     <use style="fill:#2ca02c;stroke:#2ca02c;" x="386.365611" xlink:href="#m03e92634f4" y="370.398461"/>
     <use style="fill:#2ca02c;stroke:#2ca02c;" x="303.107792" xlink:href="#m03e92634f4" y="271.812109"/>
     <use style="fill:#2ca02c;stroke:#2ca02c;" x="274.863978" xlink:href="#m03e92634f4" y="270.552754"/>
    </g>
   </g>
   <g id="PathCollection_4">
    <defs>
     <path d="M 0 3 
C 0.795609 3 1.55874 2.683901 2.12132 2.12132 
C 2.683901 1.55874 3 0.795609 3 0 
C 3 -0.795609 2.683901 -1.55874 2.12132 -2.12132 
C 1.55874 -2.683901 0.795609 -3 0 -3 
C -0.795609 -3 -1.55874 -2.683901 -2.12132 -2.12132 
C -2.683901 -1.55874 -3 -0.795609 -3 0 
C -3 0.795609 -2.683901 1.55874 -2.12132 2.12132 
C -1.55874 2.683901 -0.795609 3 0 3 
z
" id="m7772876804" style="stroke:#d62728;"/>
    </defs>
    <g clip-path="url(#p0b30dda2d4)">
     <use style="fill:#d62728;stroke:#d62728;" x="190.022783" xlink:href="#m7772876804" y="339.297247"/>
     <use style="fill:#d62728;stroke:#d62728;" x="230.106364" xlink:href="#m7772876804" y="321.732124"/>
    </g>
   </g>
   <g id="PathCollection_5">
    <defs>
     <path d="M 0 3 
C 0.795609 3 1.55874 2.683901 2.12132 2.12132 
C 2.683901 1.55874 3 0.795609 3 0 
C 3 -0.795609 2.683901 -1.55874 2.12132 -2.12132 
C 1.55874 -2.683901 0.795609 -3 0 -3 
C -0.795609 -3 -1.55874 -2.683901 -2.12132 -2.12132 
C -2.683901 -1.55874 -3 -0.795609 -3 0 
C -3 0.795609 -2.683901 1.55874 -2.12132 2.12132 
C -1.55874 2.683901 -0.795609 3 0 3 
z
" id="m0f09dfbfff" style="stroke:#9467bd;"/>
    </defs>
    <g clip-path="url(#p0b30dda2d4)">
     <use style="fill:#9467bd;stroke:#9467bd;" x="360.896244" xlink:href="#m0f09dfbfff" y="51.239065"/>
     <use style="fill:#9467bd;stroke:#9467bd;" x="406.408033" xlink:href="#m0f09dfbfff" y="68.626985"/>
     <use style="fill:#9467bd;stroke:#9467bd;" x="400.757625" xlink:href="#m0f09dfbfff" y="45.401818"/>
     <use style="fill:#9467bd;stroke:#9467bd;" x="457.85174" xlink:href="#m0f09dfbfff" y="62.152088"/>
     <use style="fill:#9467bd;stroke:#9467bd;" x="477.38065" xlink:href="#m0f09dfbfff" y="84.004397"/>
     <use style="fill:#9467bd;stroke:#9467bd;" x="442.281541" xlink:href="#m0f09dfbfff" y="86.424963"/>
     <use style="fill:#9467bd;stroke:#9467bd;" x="463.927132" xlink:href="#m0f09dfbfff" y="111.279584"/>
     <use style="fill:#9467bd;stroke:#9467bd;" x="480.954213" xlink:href="#m0f09dfbfff" y="130.920873"/>
     <use style="fill:#9467bd;stroke:#9467bd;" x="505.320117" xlink:href="#m0f09dfbfff" y="111.139476"/>
     <use style="fill:#9467bd;stroke:#9467bd;" x="397.160172" xlink:href="#m0f09dfbfff" y="125.071174"/>
     <use style="fill:#9467bd;stroke:#9467bd;" x="432.053204" xlink:href="#m0f09dfbfff" y="130.525305"/>
     <use style="fill:#9467bd;stroke:#9467bd;" x="422.440493" xlink:href="#m0f09dfbfff" y="109.12756"/>
     <use style="fill:#9467bd;stroke:#9467bd;" x="330.843584" xlink:href="#m0f09dfbfff" y="86.231306"/>
     <use style="fill:#9467bd;stroke:#9467bd;" x="362.74122" xlink:href="#m0f09dfbfff" y="80.070449"/>
     <use style="fill:#9467bd;stroke:#9467bd;" x="358.291033" xlink:href="#m0f09dfbfff" y="106.306927"/>
     <use style="fill:#9467bd;stroke:#9467bd;" x="389.431647" xlink:href="#m0f09dfbfff" y="94.547215"/>
    </g>
   </g>
   <g id="PathCollection_6">
    <defs>
     <path d="M 0 3 
C 0.795609 3 1.55874 2.683901 2.12132 2.12132 
C 2.683901 1.55874 3 0.795609 3 0 
C 3 -0.795609 2.683901 -1.55874 2.12132 -2.12132 
C 1.55874 -2.683901 0.795609 -3 0 -3 
C -0.795609 -3 -1.55874 -2.683901 -2.12132 -2.12132 
C -2.683901 -1.55874 -3 -0.795609 -3 0 
C -3 0.795609 -2.683901 1.55874 -2.12132 2.12132 
C -1.55874 2.683901 -0.795609 3 0 3 
z
" id="m07088e076a" style="stroke:#8c564b;"/>
    </defs>
    <g clip-path="url(#p0b30dda2d4)">
     <use style="fill:#8c564b;stroke:#8c564b;" x="458.378206" xlink:href="#m07088e076a" y="279.636874"/>
     <use style="fill:#8c564b;stroke:#8c564b;" x="432.408563" xlink:href="#m07088e076a" y="286.097523"/>
    </g>
   </g>
   <g id="PathCollection_7">
    <defs>
     <path d="M 0 3 
C 0.795609 3 1.55874 2.683901 2.12132 2.12132 
C 2.683901 1.55874 3 0.795609 3 0 
C 3 -0.795609 2.683901 -1.55874 2.12132 -2.12132 
C 1.55874 -2.683901 0.795609 -3 0 -3 
C -0.795609 -3 -1.55874 -2.683901 -2.12132 -2.12132 
C -2.683901 -1.55874 -3 -0.795609 -3 0 
C -3 0.795609 -2.683901 1.55874 -2.12132 2.12132 
C -1.55874 2.683901 -0.795609 3 0 3 
z
" id="ma670bc112d" style="stroke:#e377c2;"/>
    </defs>
    <g clip-path="url(#p0b30dda2d4)">
     <use style="fill:#e377c2;stroke:#e377c2;" x="254.521791" xlink:href="#ma670bc112d" y="292.278037"/>
     <use style="fill:#e377c2;stroke:#e377c2;" x="289.121139" xlink:href="#ma670bc112d" y="303.004014"/>
     <use style="fill:#e377c2;stroke:#e377c2;" x="209.548367" xlink:href="#ma670bc112d" y="211.731933"/>
    </g>
   </g>
   <g id="PathCollection_8">
    <defs>
     <path d="M 0 3 
C 0.795609 3 1.55874 2.683901 2.12132 2.12132 
C 2.683901 1.55874 3 0.795609 3 0 
C 3 -0.795609 2.683901 -1.55874 2.12132 -2.12132 
C 1.55874 -2.683901 0.795609 -3 0 -3 
C -0.795609 -3 -1.55874 -2.683901 -2.12132 -2.12132 
C -2.683901 -1.55874 -3 -0.795609 -3 0 
C -3 0.795609 -2.683901 1.55874 -2.12132 2.12132 
C -1.55874 2.683901 -0.795609 3 0 3 
z
" id="maa472db55b" style="stroke:#7f7f7f;"/>
    </defs>
    <g clip-path="url(#p0b30dda2d4)">
     <use style="fill:#7f7f7f;stroke:#7f7f7f;" x="116.135547" xlink:href="#maa472db55b" y="213.32378"/>
     <use style="fill:#7f7f7f;stroke:#7f7f7f;" x="99.334175" xlink:href="#maa472db55b" y="189.938687"/>
     <use style="fill:#7f7f7f;stroke:#7f7f7f;" x="145.055994" xlink:href="#maa472db55b" y="196.978419"/>
     <use style="fill:#7f7f7f;stroke:#7f7f7f;" x="147.038713" xlink:href="#maa472db55b" y="218.684745"/>
     <use style="fill:#7f7f7f;stroke:#7f7f7f;" x="67.215633" xlink:href="#maa472db55b" y="229.836992"/>
     <use style="fill:#7f7f7f;stroke:#7f7f7f;" x="100.314776" xlink:href="#maa472db55b" y="243.702143"/>
     <use style="fill:#7f7f7f;stroke:#7f7f7f;" x="66.141587" xlink:href="#maa472db55b" y="277.117504"/>
     <use style="fill:#7f7f7f;stroke:#7f7f7f;" x="103.720746" xlink:href="#maa472db55b" y="266.16197"/>
     <use style="fill:#7f7f7f;stroke:#7f7f7f;" x="68.867597" xlink:href="#maa472db55b" y="254.12867"/>
     <use style="fill:#7f7f7f;stroke:#7f7f7f;" x="211.374764" xlink:href="#maa472db55b" y="249.548773"/>
     <use style="fill:#7f7f7f;stroke:#7f7f7f;" x="201.024525" xlink:href="#maa472db55b" y="268.695047"/>
     <use style="fill:#7f7f7f;stroke:#7f7f7f;" x="199.924133" xlink:href="#maa472db55b" y="290.432051"/>
     <use style="fill:#7f7f7f;stroke:#7f7f7f;" x="100.764167" xlink:href="#maa472db55b" y="319.369729"/>
     <use style="fill:#7f7f7f;stroke:#7f7f7f;" x="128.253864" xlink:href="#maa472db55b" y="323.984919"/>
     <use style="fill:#7f7f7f;stroke:#7f7f7f;" x="147.592003" xlink:href="#maa472db55b" y="304.175468"/>
     <use style="fill:#7f7f7f;stroke:#7f7f7f;" x="165.55756" xlink:href="#maa472db55b" y="266.349224"/>
     <use style="fill:#7f7f7f;stroke:#7f7f7f;" x="167.031544" xlink:href="#maa472db55b" y="248.040738"/>
    </g>
   </g>
   <g id="PathCollection_9">
    <defs>
     <path d="M 0 3 
C 0.795609 3 1.55874 2.683901 2.12132 2.12132 
C 2.683901 1.55874 3 0.795609 3 0 
C 3 -0.795609 2.683901 -1.55874 2.12132 -2.12132 
C 1.55874 -2.683901 0.795609 -3 0 -3 
C -0.795609 -3 -1.55874 -2.683901 -2.12132 -2.12132 
C -2.683901 -1.55874 -3 -0.795609 -3 0 
C -3 0.795609 -2.683901 1.55874 -2.12132 2.12132 
C -1.55874 2.683901 -0.795609 3 0 3 
z
" id="mbc3042f488" style="stroke:#bcbd22;"/>
    </defs>
    <g clip-path="url(#p0b30dda2d4)">
     <use style="fill:#bcbd22;stroke:#bcbd22;" x="460.766887" xlink:href="#mbc3042f488" y="183.922224"/>
     <use style="fill:#bcbd22;stroke:#bcbd22;" x="471.367045" xlink:href="#mbc3042f488" y="200.14385"/>
     <use style="fill:#bcbd22;stroke:#bcbd22;" x="504.093491" xlink:href="#mbc3042f488" y="194.793379"/>
     <use style="fill:#bcbd22;stroke:#bcbd22;" x="419.54386" xlink:href="#mbc3042f488" y="195.032162"/>
     <use style="fill:#bcbd22;stroke:#bcbd22;" x="211.763596" xlink:href="#mbc3042f488" y="136.948331"/>
     <use style="fill:#bcbd22;stroke:#bcbd22;" x="199.589444" xlink:href="#mbc3042f488" y="121.854768"/>
     <use style="fill:#bcbd22;stroke:#bcbd22;" x="452.33924" xlink:href="#mbc3042f488" y="226.639543"/>
     <use style="fill:#bcbd22;stroke:#bcbd22;" x="385.175236" xlink:href="#mbc3042f488" y="179.103826"/>
     <use style="fill:#bcbd22;stroke:#bcbd22;" x="276.783804" xlink:href="#mbc3042f488" y="164.395039"/>
     <use style="fill:#bcbd22;stroke:#bcbd22;" x="302.208554" xlink:href="#mbc3042f488" y="151.470015"/>
     <use style="fill:#bcbd22;stroke:#bcbd22;" x="270.119584" xlink:href="#mbc3042f488" y="144.276912"/>
    </g>
   </g>
   <g id="PathCollection_10">
    <defs>
     <path d="M 0 3 
C 0.795609 3 1.55874 2.683901 2.12132 2.12132 
C 2.683901 1.55874 3 0.795609 3 0 
C 3 -0.795609 2.683901 -1.55874 2.12132 -2.12132 
C 1.55874 -2.683901 0.795609 -3 0 -3 
C -0.795609 -3 -1.55874 -2.683901 -2.12132 -2.12132 
C -2.683901 -1.55874 -3 -0.795609 -3 0 
C -3 0.795609 -2.683901 1.55874 -2.12132 2.12132 
C -1.55874 2.683901 -0.795609 3 0 3 
z
" id="m9d98f4863d" style="stroke:#17becf;"/>
    </defs>
    <g clip-path="url(#p0b30dda2d4)">
     <use style="fill:#17becf;stroke:#17becf;" x="336.055085" xlink:href="#m9d98f4863d" y="176.811685"/>
     <use style="fill:#17becf;stroke:#17becf;" x="318.622699" xlink:href="#m9d98f4863d" y="188.68334"/>
    </g>
   </g>
   <g id="PathCollection_11">
    <g clip-path="url(#p0b30dda2d4)">
     <use style="fill:#ff7f0e;stroke:#ff7f0e;" x="611.773333" xlink:href="#maa599bbe04" y="315.906102"/>
     <use style="fill:#ff7f0e;stroke:#ff7f0e;" x="563.260138" xlink:href="#maa599bbe04" y="338.518867"/>
     <use style="fill:#ff7f0e;stroke:#ff7f0e;" x="577.477171" xlink:href="#maa599bbe04" y="318.867073"/>
     <use style="fill:#ff7f0e;stroke:#ff7f0e;" x="603.744593" xlink:href="#maa599bbe04" y="340.029484"/>
     <use style="fill:#ff7f0e;stroke:#ff7f0e;" x="552.181596" xlink:href="#maa599bbe04" y="297.666462"/>
     <use style="fill:#ff7f0e;stroke:#ff7f0e;" x="588.994953" xlink:href="#maa599bbe04" y="293.638503"/>
     <use style="fill:#ff7f0e;stroke:#ff7f0e;" x="537.733772" xlink:href="#maa599bbe04" y="318.995105"/>
     <use style="fill:#ff7f0e;stroke:#ff7f0e;" x="486.842623" xlink:href="#maa599bbe04" y="318.376845"/>
    </g>
   </g>
   <g id="matplotlib.axis_1">
    <g id="xtick_1">
     <g id="line2d_1">
      <defs>
       <path d="M 0 0 
L 0 3.5 
" id="ma310fa5135" style="stroke:#000000;stroke-width:0.8;"/>
      </defs>
      <g>
       <use style="stroke:#000000;stroke-width:0.8;" x="83.221374" xlink:href="#ma310fa5135" y="404.12"/>
      </g>
     </g>
     <g id="text_1">
      <!-- −60 -->
      <defs>
       <path d="M 10.59375 35.5 
L 73.1875 35.5 
L 73.1875 27.203125 
L 10.59375 27.203125 
z
" id="DejaVuSans-8722"/>
       <path d="M 33.015625 40.375 
Q 26.375 40.375 22.484375 35.828125 
Q 18.609375 31.296875 18.609375 23.390625 
Q 18.609375 15.53125 22.484375 10.953125 
Q 26.375 6.390625 33.015625 6.390625 
Q 39.65625 6.390625 43.53125 10.953125 
Q 47.40625 15.53125 47.40625 23.390625 
Q 47.40625 31.296875 43.53125 35.828125 
Q 39.65625 40.375 33.015625 40.375 
z
M 52.59375 71.296875 
L 52.59375 62.3125 
Q 48.875 64.0625 45.09375 64.984375 
Q 41.3125 65.921875 37.59375 65.921875 
Q 27.828125 65.921875 22.671875 59.328125 
Q 17.53125 52.734375 16.796875 39.40625 
Q 19.671875 43.65625 24.015625 45.921875 
Q 28.375 48.1875 33.59375 48.1875 
Q 44.578125 48.1875 50.953125 41.515625 
Q 57.328125 34.859375 57.328125 23.390625 
Q 57.328125 12.15625 50.6875 5.359375 
Q 44.046875 -1.421875 33.015625 -1.421875 
Q 20.359375 -1.421875 13.671875 8.265625 
Q 6.984375 17.96875 6.984375 36.375 
Q 6.984375 53.65625 15.1875 63.9375 
Q 23.390625 74.21875 37.203125 74.21875 
Q 40.921875 74.21875 44.703125 73.484375 
Q 48.484375 72.75 52.59375 71.296875 
z
" id="DejaVuSans-54"/>
       <path d="M 31.78125 66.40625 
Q 24.171875 66.40625 20.328125 58.90625 
Q 16.5 51.421875 16.5 36.375 
Q 16.5 21.390625 20.328125 13.890625 
Q 24.171875 6.390625 31.78125 6.390625 
Q 39.453125 6.390625 43.28125 13.890625 
Q 47.125 21.390625 47.125 36.375 
Q 47.125 51.421875 43.28125 58.90625 
Q 39.453125 66.40625 31.78125 66.40625 
z
M 31.78125 74.21875 
Q 44.046875 74.21875 50.515625 64.515625 
Q 56.984375 54.828125 56.984375 36.375 
Q 56.984375 17.96875 50.515625 8.265625 
Q 44.046875 -1.421875 31.78125 -1.421875 
Q 19.53125 -1.421875 13.0625 8.265625 
Q 6.59375 17.96875 6.59375 36.375 
Q 6.59375 54.828125 13.0625 64.515625 
Q 19.53125 74.21875 31.78125 74.21875 
z
" id="DejaVuSans-48"/>
      </defs>
      <g transform="translate(72.669031 418.718437)scale(0.1 -0.1)">
       <use xlink:href="#DejaVuSans-8722"/>
       <use x="83.789062" xlink:href="#DejaVuSans-54"/>
       <use x="147.412109" xlink:href="#DejaVuSans-48"/>
      </g>
     </g>
    </g>
    <g id="xtick_2">
     <g id="line2d_2">
      <g>
       <use style="stroke:#000000;stroke-width:0.8;" x="151.722814" xlink:href="#ma310fa5135" y="404.12"/>
      </g>
     </g>
     <g id="text_2">
      <!-- −40 -->
      <defs>
       <path d="M 37.796875 64.3125 
L 12.890625 25.390625 
L 37.796875 25.390625 
z
M 35.203125 72.90625 
L 47.609375 72.90625 
L 47.609375 25.390625 
L 58.015625 25.390625 
L 58.015625 17.1875 
L 47.609375 17.1875 
L 47.609375 0 
L 37.796875 0 
L 37.796875 17.1875 
L 4.890625 17.1875 
L 4.890625 26.703125 
z
" id="DejaVuSans-52"/>
      </defs>
      <g transform="translate(141.17047 418.718437)scale(0.1 -0.1)">
       <use xlink:href="#DejaVuSans-8722"/>
       <use x="83.789062" xlink:href="#DejaVuSans-52"/>
       <use x="147.412109" xlink:href="#DejaVuSans-48"/>
      </g>
     </g>
    </g>
    <g id="xtick_3">
     <g id="line2d_3">
      <g>
       <use style="stroke:#000000;stroke-width:0.8;" x="220.224253" xlink:href="#ma310fa5135" y="404.12"/>
      </g>
     </g>
     <g id="text_3">
      <!-- −20 -->
      <defs>
       <path d="M 19.1875 8.296875 
L 53.609375 8.296875 
L 53.609375 0 
L 7.328125 0 
L 7.328125 8.296875 
Q 12.9375 14.109375 22.625 23.890625 
Q 32.328125 33.6875 34.8125 36.53125 
Q 39.546875 41.84375 41.421875 45.53125 
Q 43.3125 49.21875 43.3125 52.78125 
Q 43.3125 58.59375 39.234375 62.25 
Q 35.15625 65.921875 28.609375 65.921875 
Q 23.96875 65.921875 18.8125 64.3125 
Q 13.671875 62.703125 7.8125 59.421875 
L 7.8125 69.390625 
Q 13.765625 71.78125 18.9375 73 
Q 24.125 74.21875 28.421875 74.21875 
Q 39.75 74.21875 46.484375 68.546875 
Q 53.21875 62.890625 53.21875 53.421875 
Q 53.21875 48.921875 51.53125 44.890625 
Q 49.859375 40.875 45.40625 35.40625 
Q 44.1875 33.984375 37.640625 27.21875 
Q 31.109375 20.453125 19.1875 8.296875 
z
" id="DejaVuSans-50"/>
      </defs>
      <g transform="translate(209.67191 418.718437)scale(0.1 -0.1)">
       <use xlink:href="#DejaVuSans-8722"/>
       <use x="83.789062" xlink:href="#DejaVuSans-50"/>
       <use x="147.412109" xlink:href="#DejaVuSans-48"/>
      </g>
     </g>
    </g>
    <g id="xtick_4">
     <g id="line2d_4">
      <g>
       <use style="stroke:#000000;stroke-width:0.8;" x="288.725693" xlink:href="#ma310fa5135" y="404.12"/>
      </g>
     </g>
     <g id="text_4">
      <!-- 0 -->
      <g transform="translate(285.544443 418.718437)scale(0.1 -0.1)">
       <use xlink:href="#DejaVuSans-48"/>
      </g>
     </g>
    </g>
    <g id="xtick_5">
     <g id="line2d_5">
      <g>
       <use style="stroke:#000000;stroke-width:0.8;" x="357.227133" xlink:href="#ma310fa5135" y="404.12"/>
      </g>
     </g>
     <g id="text_5">
      <!-- 20 -->
      <g transform="translate(350.864633 418.718437)scale(0.1 -0.1)">
       <use xlink:href="#DejaVuSans-50"/>
       <use x="63.623047" xlink:href="#DejaVuSans-48"/>
      </g>
     </g>
    </g>
    <g id="xtick_6">
     <g id="line2d_6">
      <g>
       <use style="stroke:#000000;stroke-width:0.8;" x="425.728572" xlink:href="#ma310fa5135" y="404.12"/>
      </g>
     </g>
     <g id="text_6">
      <!-- 40 -->
      <g transform="translate(419.366072 418.718437)scale(0.1 -0.1)">
       <use xlink:href="#DejaVuSans-52"/>
       <use x="63.623047" xlink:href="#DejaVuSans-48"/>
      </g>
     </g>
    </g>
    <g id="xtick_7">
     <g id="line2d_7">
      <g>
       <use style="stroke:#000000;stroke-width:0.8;" x="494.230012" xlink:href="#ma310fa5135" y="404.12"/>
      </g>
     </g>
     <g id="text_7">
      <!-- 60 -->
      <g transform="translate(487.867512 418.718437)scale(0.1 -0.1)">
       <use xlink:href="#DejaVuSans-54"/>
       <use x="63.623047" xlink:href="#DejaVuSans-48"/>
      </g>
     </g>
    </g>
    <g id="xtick_8">
     <g id="line2d_8">
      <g>
       <use style="stroke:#000000;stroke-width:0.8;" x="562.731451" xlink:href="#ma310fa5135" y="404.12"/>
      </g>
     </g>
     <g id="text_8">
      <!-- 80 -->
      <defs>
       <path d="M 31.78125 34.625 
Q 24.75 34.625 20.71875 30.859375 
Q 16.703125 27.09375 16.703125 20.515625 
Q 16.703125 13.921875 20.71875 10.15625 
Q 24.75 6.390625 31.78125 6.390625 
Q 38.8125 6.390625 42.859375 10.171875 
Q 46.921875 13.96875 46.921875 20.515625 
Q 46.921875 27.09375 42.890625 30.859375 
Q 38.875 34.625 31.78125 34.625 
z
M 21.921875 38.8125 
Q 15.578125 40.375 12.03125 44.71875 
Q 8.5 49.078125 8.5 55.328125 
Q 8.5 64.0625 14.71875 69.140625 
Q 20.953125 74.21875 31.78125 74.21875 
Q 42.671875 74.21875 48.875 69.140625 
Q 55.078125 64.0625 55.078125 55.328125 
Q 55.078125 49.078125 51.53125 44.71875 
Q 48 40.375 41.703125 38.8125 
Q 48.828125 37.15625 52.796875 32.3125 
Q 56.78125 27.484375 56.78125 20.515625 
Q 56.78125 9.90625 50.3125 4.234375 
Q 43.84375 -1.421875 31.78125 -1.421875 
Q 19.734375 -1.421875 13.25 4.234375 
Q 6.78125 9.90625 6.78125 20.515625 
Q 6.78125 27.484375 10.78125 32.3125 
Q 14.796875 37.15625 21.921875 38.8125 
z
M 18.3125 54.390625 
Q 18.3125 48.734375 21.84375 45.5625 
Q 25.390625 42.390625 31.78125 42.390625 
Q 38.140625 42.390625 41.71875 45.5625 
Q 45.3125 48.734375 45.3125 54.390625 
Q 45.3125 60.0625 41.71875 63.234375 
Q 38.140625 66.40625 31.78125 66.40625 
Q 25.390625 66.40625 21.84375 63.234375 
Q 18.3125 60.0625 18.3125 54.390625 
z
" id="DejaVuSans-56"/>
      </defs>
      <g transform="translate(556.368951 418.718437)scale(0.1 -0.1)">
       <use xlink:href="#DejaVuSans-56"/>
       <use x="63.623047" xlink:href="#DejaVuSans-48"/>
      </g>
     </g>
    </g>
    <g id="xtick_9">
     <g id="line2d_9">
      <g>
       <use style="stroke:#000000;stroke-width:0.8;" x="631.232891" xlink:href="#ma310fa5135" y="404.12"/>
      </g>
     </g>
     <g id="text_9">
      <!-- 100 -->
      <defs>
       <path d="M 12.40625 8.296875 
L 28.515625 8.296875 
L 28.515625 63.921875 
L 10.984375 60.40625 
L 10.984375 69.390625 
L 28.421875 72.90625 
L 38.28125 72.90625 
L 38.28125 8.296875 
L 54.390625 8.296875 
L 54.390625 0 
L 12.40625 0 
z
" id="DejaVuSans-49"/>
      </defs>
      <g transform="translate(621.689141 418.718437)scale(0.1 -0.1)">
       <use xlink:href="#DejaVuSans-49"/>
       <use x="63.623047" xlink:href="#DejaVuSans-48"/>
       <use x="127.246094" xlink:href="#DejaVuSans-48"/>
      </g>
     </g>
    </g>
   </g>
   <g id="matplotlib.axis_2">
    <g id="ytick_1">
     <g id="line2d_10">
      <defs>
       <path d="M 0 0 
L -3.5 0 
" id="m53e3208275" style="stroke:#000000;stroke-width:0.8;"/>
      </defs>
      <g>
       <use style="stroke:#000000;stroke-width:0.8;" x="38.86" xlink:href="#m53e3208275" y="400.019115"/>
      </g>
     </g>
     <g id="text_10">
      <!-- −80 -->
      <g transform="translate(10.755312 403.818334)scale(0.1 -0.1)">
       <use xlink:href="#DejaVuSans-8722"/>
       <use x="83.789062" xlink:href="#DejaVuSans-56"/>
       <use x="147.412109" xlink:href="#DejaVuSans-48"/>
      </g>
     </g>
    </g>
    <g id="ytick_2">
     <g id="line2d_11">
      <g>
       <use style="stroke:#000000;stroke-width:0.8;" x="38.86" xlink:href="#m53e3208275" y="357.124433"/>
      </g>
     </g>
     <g id="text_11">
      <!-- −60 -->
      <g transform="translate(10.755312 360.923652)scale(0.1 -0.1)">
       <use xlink:href="#DejaVuSans-8722"/>
       <use x="83.789062" xlink:href="#DejaVuSans-54"/>
       <use x="147.412109" xlink:href="#DejaVuSans-48"/>
      </g>
     </g>
    </g>
    <g id="ytick_3">
     <g id="line2d_12">
      <g>
       <use style="stroke:#000000;stroke-width:0.8;" x="38.86" xlink:href="#m53e3208275" y="314.229751"/>
      </g>
     </g>
     <g id="text_12">
      <!-- −40 -->
      <g transform="translate(10.755312 318.02897)scale(0.1 -0.1)">
       <use xlink:href="#DejaVuSans-8722"/>
       <use x="83.789062" xlink:href="#DejaVuSans-52"/>
       <use x="147.412109" xlink:href="#DejaVuSans-48"/>
      </g>
     </g>
    </g>
    <g id="ytick_4">
     <g id="line2d_13">
      <g>
       <use style="stroke:#000000;stroke-width:0.8;" x="38.86" xlink:href="#m53e3208275" y="271.33507"/>
      </g>
     </g>
     <g id="text_13">
      <!-- −20 -->
      <g transform="translate(10.755312 275.134288)scale(0.1 -0.1)">
       <use xlink:href="#DejaVuSans-8722"/>
       <use x="83.789062" xlink:href="#DejaVuSans-50"/>
       <use x="147.412109" xlink:href="#DejaVuSans-48"/>
      </g>
     </g>
    </g>
    <g id="ytick_5">
     <g id="line2d_14">
      <g>
       <use style="stroke:#000000;stroke-width:0.8;" x="38.86" xlink:href="#m53e3208275" y="228.440388"/>
      </g>
     </g>
     <g id="text_14">
      <!-- 0 -->
      <g transform="translate(25.4975 232.239607)scale(0.1 -0.1)">
       <use xlink:href="#DejaVuSans-48"/>
      </g>
     </g>
    </g>
    <g id="ytick_6">
     <g id="line2d_15">
      <g>
       <use style="stroke:#000000;stroke-width:0.8;" x="38.86" xlink:href="#m53e3208275" y="185.545706"/>
      </g>
     </g>
     <g id="text_15">
      <!-- 20 -->
      <g transform="translate(19.135 189.344925)scale(0.1 -0.1)">
       <use xlink:href="#DejaVuSans-50"/>
       <use x="63.623047" xlink:href="#DejaVuSans-48"/>
      </g>
     </g>
    </g>
    <g id="ytick_7">
     <g id="line2d_16">
      <g>
       <use style="stroke:#000000;stroke-width:0.8;" x="38.86" xlink:href="#m53e3208275" y="142.651024"/>
      </g>
     </g>
     <g id="text_16">
      <!-- 40 -->
      <g transform="translate(19.135 146.450243)scale(0.1 -0.1)">
       <use xlink:href="#DejaVuSans-52"/>
       <use x="63.623047" xlink:href="#DejaVuSans-48"/>
      </g>
     </g>
    </g>
    <g id="ytick_8">
     <g id="line2d_17">
      <g>
       <use style="stroke:#000000;stroke-width:0.8;" x="38.86" xlink:href="#m53e3208275" y="99.756343"/>
      </g>
     </g>
     <g id="text_17">
      <!-- 60 -->
      <g transform="translate(19.135 103.555561)scale(0.1 -0.1)">
       <use xlink:href="#DejaVuSans-54"/>
       <use x="63.623047" xlink:href="#DejaVuSans-48"/>
      </g>
     </g>
    </g>
    <g id="ytick_9">
     <g id="line2d_18">
      <g>
       <use style="stroke:#000000;stroke-width:0.8;" x="38.86" xlink:href="#m53e3208275" y="56.861661"/>
      </g>
     </g>
     <g id="text_18">
      <!-- 80 -->
      <g transform="translate(19.135 60.66088)scale(0.1 -0.1)">
       <use xlink:href="#DejaVuSans-56"/>
       <use x="63.623047" xlink:href="#DejaVuSans-48"/>
      </g>
     </g>
    </g>
   </g>
   <g id="patch_3">
    <path d="M 38.86 404.12 
L 38.86 28.32 
" style="fill:none;stroke:#000000;stroke-linecap:square;stroke-linejoin:miter;stroke-width:0.8;"/>
   </g>
   <g id="patch_4">
    <path d="M 639.05492 404.12 
L 639.05492 28.32 
" style="fill:none;stroke:#000000;stroke-linecap:square;stroke-linejoin:miter;stroke-width:0.8;"/>
   </g>
   <g id="patch_5">
    <path d="M 38.86 404.12 
L 639.05492 404.12 
" style="fill:none;stroke:#000000;stroke-linecap:square;stroke-linejoin:miter;stroke-width:0.8;"/>
   </g>
   <g id="patch_6">
    <path d="M 38.86 28.32 
L 639.05492 28.32 
" style="fill:none;stroke:#000000;stroke-linecap:square;stroke-linejoin:miter;stroke-width:0.8;"/>
   </g>
   <g id="text_19">
    <!-- tar_truth -->
    <defs>
     <path d="M 27.484375 70.21875 
L 27.484375 54.6875 
L 45.515625 54.6875 
L 45.515625 42.1875 
L 27.484375 42.1875 
L 27.484375 19 
Q 27.484375 15.1875 29 13.84375 
Q 30.515625 12.5 35.015625 12.5 
L 44 12.5 
L 44 0 
L 29 0 
Q 18.65625 0 14.328125 4.3125 
Q 10.015625 8.640625 10.015625 19 
L 10.015625 42.1875 
L 1.3125 42.1875 
L 1.3125 54.6875 
L 10.015625 54.6875 
L 10.015625 70.21875 
z
" id="DejaVuSans-Bold-116"/>
     <path d="M 32.90625 24.609375 
Q 27.4375 24.609375 24.671875 22.75 
Q 21.921875 20.90625 21.921875 17.28125 
Q 21.921875 13.96875 24.140625 12.078125 
Q 26.375 10.203125 30.328125 10.203125 
Q 35.25 10.203125 38.625 13.734375 
Q 42 17.28125 42 22.609375 
L 42 24.609375 
z
M 59.625 31.203125 
L 59.625 0 
L 42 0 
L 42 8.109375 
Q 38.484375 3.125 34.078125 0.84375 
Q 29.6875 -1.421875 23.390625 -1.421875 
Q 14.890625 -1.421875 9.59375 3.53125 
Q 4.296875 8.5 4.296875 16.40625 
Q 4.296875 26.03125 10.90625 30.515625 
Q 17.53125 35.015625 31.6875 35.015625 
L 42 35.015625 
L 42 36.375 
Q 42 40.53125 38.71875 42.453125 
Q 35.453125 44.390625 28.515625 44.390625 
Q 22.90625 44.390625 18.0625 43.265625 
Q 13.234375 42.140625 9.078125 39.890625 
L 9.078125 53.21875 
Q 14.703125 54.59375 20.359375 55.296875 
Q 26.03125 56 31.6875 56 
Q 46.484375 56 53.046875 50.171875 
Q 59.625 44.34375 59.625 31.203125 
z
" id="DejaVuSans-Bold-97"/>
     <path d="M 49.03125 39.796875 
Q 46.734375 40.875 44.453125 41.375 
Q 42.1875 41.890625 39.890625 41.890625 
Q 33.15625 41.890625 29.515625 37.5625 
Q 25.875 33.25 25.875 25.203125 
L 25.875 0 
L 8.40625 0 
L 8.40625 54.6875 
L 25.875 54.6875 
L 25.875 45.703125 
Q 29.25 51.078125 33.609375 53.53125 
Q 37.984375 56 44.09375 56 
Q 44.96875 56 45.984375 55.921875 
Q 47.015625 55.859375 48.96875 55.609375 
z
" id="DejaVuSans-Bold-114"/>
     <path d="M 50 -14.3125 
L 50 -23.578125 
L 0 -23.578125 
L 0 -14.3125 
z
" id="DejaVuSans-Bold-95"/>
     <path d="M 7.8125 21.296875 
L 7.8125 54.6875 
L 25.390625 54.6875 
L 25.390625 49.21875 
Q 25.390625 44.78125 25.34375 38.0625 
Q 25.296875 31.34375 25.296875 29.109375 
Q 25.296875 22.515625 25.640625 19.609375 
Q 25.984375 16.703125 26.8125 15.375 
Q 27.875 13.671875 29.609375 12.734375 
Q 31.34375 11.8125 33.59375 11.8125 
Q 39.0625 11.8125 42.1875 16.015625 
Q 45.3125 20.21875 45.3125 27.6875 
L 45.3125 54.6875 
L 62.796875 54.6875 
L 62.796875 0 
L 45.3125 0 
L 45.3125 7.90625 
Q 41.359375 3.125 36.9375 0.84375 
Q 32.515625 -1.421875 27.203125 -1.421875 
Q 17.71875 -1.421875 12.765625 4.390625 
Q 7.8125 10.203125 7.8125 21.296875 
z
" id="DejaVuSans-Bold-117"/>
     <path d="M 63.375 33.296875 
L 63.375 0 
L 45.796875 0 
L 45.796875 5.421875 
L 45.796875 25.390625 
Q 45.796875 32.5625 45.484375 35.25 
Q 45.171875 37.9375 44.390625 39.203125 
Q 43.359375 40.921875 41.59375 41.875 
Q 39.84375 42.828125 37.59375 42.828125 
Q 32.125 42.828125 29 38.59375 
Q 25.875 34.375 25.875 26.90625 
L 25.875 0 
L 8.40625 0 
L 8.40625 75.984375 
L 25.875 75.984375 
L 25.875 46.6875 
Q 29.828125 51.46875 34.265625 53.734375 
Q 38.71875 56 44.09375 56 
Q 53.5625 56 58.46875 50.1875 
Q 63.375 44.390625 63.375 33.296875 
z
" id="DejaVuSans-Bold-104"/>
    </defs>
    <g style="fill:#1f77b4;" transform="translate(298.80746 22.32)scale(0.16 -0.16)">
     <use xlink:href="#DejaVuSans-Bold-116"/>
     <use x="47.802734" xlink:href="#DejaVuSans-Bold-97"/>
     <use x="115.283203" xlink:href="#DejaVuSans-Bold-114"/>
     <use x="164.599609" xlink:href="#DejaVuSans-Bold-95"/>
     <use x="214.599609" xlink:href="#DejaVuSans-Bold-116"/>
     <use x="262.402344" xlink:href="#DejaVuSans-Bold-114"/>
     <use x="311.71875" xlink:href="#DejaVuSans-Bold-117"/>
     <use x="382.910156" xlink:href="#DejaVuSans-Bold-116"/>
     <use x="430.712891" xlink:href="#DejaVuSans-Bold-104"/>
    </g>
   </g>
   <g id="legend_1">
    <g id="patch_7">
     <path d="M 587.32992 197.779375 
L 632.05492 197.779375 
Q 634.05492 197.779375 634.05492 195.779375 
L 634.05492 35.32 
Q 634.05492 33.32 632.05492 33.32 
L 587.32992 33.32 
Q 585.32992 33.32 585.32992 35.32 
L 585.32992 195.779375 
Q 585.32992 197.779375 587.32992 197.779375 
z
" style="fill:#ffffff;opacity:0.8;stroke:#cccccc;stroke-linejoin:miter;"/>
    </g>
    <g id="PathCollection_12">
     <g>
      <use style="fill:#1f77b4;stroke:#1f77b4;" x="599.32992" xlink:href="#mf14c60152d" y="42.293437"/>
     </g>
    </g>
    <g id="text_20">
     <!-- 0 -->
     <g transform="translate(617.32992 44.918437)scale(0.1 -0.1)">
      <use xlink:href="#DejaVuSans-48"/>
     </g>
    </g>
    <g id="PathCollection_13">
     <g>
      <use style="fill:#ff7f0e;stroke:#ff7f0e;" x="599.32992" xlink:href="#maa599bbe04" y="56.971563"/>
     </g>
    </g>
    <g id="text_21">
     <!-- 1 -->
     <g transform="translate(617.32992 59.596563)scale(0.1 -0.1)">
      <use xlink:href="#DejaVuSans-49"/>
     </g>
    </g>
    <g id="PathCollection_14">
     <g>
      <use style="fill:#2ca02c;stroke:#2ca02c;" x="599.32992" xlink:href="#m03e92634f4" y="71.649688"/>
     </g>
    </g>
    <g id="text_22">
     <!-- 2 -->
     <g transform="translate(617.32992 74.274688)scale(0.1 -0.1)">
      <use xlink:href="#DejaVuSans-50"/>
     </g>
    </g>
    <g id="PathCollection_15">
     <g>
      <use style="fill:#d62728;stroke:#d62728;" x="599.32992" xlink:href="#m7772876804" y="86.327812"/>
     </g>
    </g>
    <g id="text_23">
     <!-- 3 -->
     <defs>
      <path d="M 40.578125 39.3125 
Q 47.65625 37.796875 51.625 33 
Q 55.609375 28.21875 55.609375 21.1875 
Q 55.609375 10.40625 48.1875 4.484375 
Q 40.765625 -1.421875 27.09375 -1.421875 
Q 22.515625 -1.421875 17.65625 -0.515625 
Q 12.796875 0.390625 7.625 2.203125 
L 7.625 11.71875 
Q 11.71875 9.328125 16.59375 8.109375 
Q 21.484375 6.890625 26.8125 6.890625 
Q 36.078125 6.890625 40.9375 10.546875 
Q 45.796875 14.203125 45.796875 21.1875 
Q 45.796875 27.640625 41.28125 31.265625 
Q 36.765625 34.90625 28.71875 34.90625 
L 20.21875 34.90625 
L 20.21875 43.015625 
L 29.109375 43.015625 
Q 36.375 43.015625 40.234375 45.921875 
Q 44.09375 48.828125 44.09375 54.296875 
Q 44.09375 59.90625 40.109375 62.90625 
Q 36.140625 65.921875 28.71875 65.921875 
Q 24.65625 65.921875 20.015625 65.03125 
Q 15.375 64.15625 9.8125 62.3125 
L 9.8125 71.09375 
Q 15.4375 72.65625 20.34375 73.4375 
Q 25.25 74.21875 29.59375 74.21875 
Q 40.828125 74.21875 47.359375 69.109375 
Q 53.90625 64.015625 53.90625 55.328125 
Q 53.90625 49.265625 50.4375 45.09375 
Q 46.96875 40.921875 40.578125 39.3125 
z
" id="DejaVuSans-51"/>
     </defs>
     <g transform="translate(617.32992 88.952812)scale(0.1 -0.1)">
      <use xlink:href="#DejaVuSans-51"/>
     </g>
    </g>
    <g id="PathCollection_16">
     <g>
      <use style="fill:#9467bd;stroke:#9467bd;" x="599.32992" xlink:href="#m0f09dfbfff" y="101.005938"/>
     </g>
    </g>
    <g id="text_24">
     <!-- 4 -->
     <g transform="translate(617.32992 103.630938)scale(0.1 -0.1)">
      <use xlink:href="#DejaVuSans-52"/>
     </g>
    </g>
    <g id="PathCollection_17">
     <g>
      <use style="fill:#8c564b;stroke:#8c564b;" x="599.32992" xlink:href="#m07088e076a" y="115.684062"/>
     </g>
    </g>
    <g id="text_25">
     <!-- 5 -->
     <defs>
      <path d="M 10.796875 72.90625 
L 49.515625 72.90625 
L 49.515625 64.59375 
L 19.828125 64.59375 
L 19.828125 46.734375 
Q 21.96875 47.46875 24.109375 47.828125 
Q 26.265625 48.1875 28.421875 48.1875 
Q 40.625 48.1875 47.75 41.5 
Q 54.890625 34.8125 54.890625 23.390625 
Q 54.890625 11.625 47.5625 5.09375 
Q 40.234375 -1.421875 26.90625 -1.421875 
Q 22.3125 -1.421875 17.546875 -0.640625 
Q 12.796875 0.140625 7.71875 1.703125 
L 7.71875 11.625 
Q 12.109375 9.234375 16.796875 8.0625 
Q 21.484375 6.890625 26.703125 6.890625 
Q 35.15625 6.890625 40.078125 11.328125 
Q 45.015625 15.765625 45.015625 23.390625 
Q 45.015625 31 40.078125 35.4375 
Q 35.15625 39.890625 26.703125 39.890625 
Q 22.75 39.890625 18.8125 39.015625 
Q 14.890625 38.140625 10.796875 36.28125 
z
" id="DejaVuSans-53"/>
     </defs>
     <g transform="translate(617.32992 118.309062)scale(0.1 -0.1)">
      <use xlink:href="#DejaVuSans-53"/>
     </g>
    </g>
    <g id="PathCollection_18">
     <g>
      <use style="fill:#e377c2;stroke:#e377c2;" x="599.32992" xlink:href="#ma670bc112d" y="130.362188"/>
     </g>
    </g>
    <g id="text_26">
     <!-- 6 -->
     <g transform="translate(617.32992 132.987188)scale(0.1 -0.1)">
      <use xlink:href="#DejaVuSans-54"/>
     </g>
    </g>
    <g id="PathCollection_19">
     <g>
      <use style="fill:#7f7f7f;stroke:#7f7f7f;" x="599.32992" xlink:href="#maa472db55b" y="145.040312"/>
     </g>
    </g>
    <g id="text_27">
     <!-- 7 -->
     <defs>
      <path d="M 8.203125 72.90625 
L 55.078125 72.90625 
L 55.078125 68.703125 
L 28.609375 0 
L 18.3125 0 
L 43.21875 64.59375 
L 8.203125 64.59375 
z
" id="DejaVuSans-55"/>
     </defs>
     <g transform="translate(617.32992 147.665312)scale(0.1 -0.1)">
      <use xlink:href="#DejaVuSans-55"/>
     </g>
    </g>
    <g id="PathCollection_20">
     <g>
      <use style="fill:#bcbd22;stroke:#bcbd22;" x="599.32992" xlink:href="#mbc3042f488" y="159.718437"/>
     </g>
    </g>
    <g id="text_28">
     <!-- 8 -->
     <g transform="translate(617.32992 162.343437)scale(0.1 -0.1)">
      <use xlink:href="#DejaVuSans-56"/>
     </g>
    </g>
    <g id="PathCollection_21">
     <g>
      <use style="fill:#17becf;stroke:#17becf;" x="599.32992" xlink:href="#m9d98f4863d" y="174.396562"/>
     </g>
    </g>
    <g id="text_29">
     <!-- 9 -->
     <defs>
      <path d="M 10.984375 1.515625 
L 10.984375 10.5 
Q 14.703125 8.734375 18.5 7.8125 
Q 22.3125 6.890625 25.984375 6.890625 
Q 35.75 6.890625 40.890625 13.453125 
Q 46.046875 20.015625 46.78125 33.40625 
Q 43.953125 29.203125 39.59375 26.953125 
Q 35.25 24.703125 29.984375 24.703125 
Q 19.046875 24.703125 12.671875 31.3125 
Q 6.296875 37.9375 6.296875 49.421875 
Q 6.296875 60.640625 12.9375 67.421875 
Q 19.578125 74.21875 30.609375 74.21875 
Q 43.265625 74.21875 49.921875 64.515625 
Q 56.59375 54.828125 56.59375 36.375 
Q 56.59375 19.140625 48.40625 8.859375 
Q 40.234375 -1.421875 26.421875 -1.421875 
Q 22.703125 -1.421875 18.890625 -0.6875 
Q 15.09375 0.046875 10.984375 1.515625 
z
M 30.609375 32.421875 
Q 37.25 32.421875 41.125 36.953125 
Q 45.015625 41.5 45.015625 49.421875 
Q 45.015625 57.28125 41.125 61.84375 
Q 37.25 66.40625 30.609375 66.40625 
Q 23.96875 66.40625 20.09375 61.84375 
Q 16.21875 57.28125 16.21875 49.421875 
Q 16.21875 41.5 20.09375 36.953125 
Q 23.96875 32.421875 30.609375 32.421875 
z
" id="DejaVuSans-57"/>
     </defs>
     <g transform="translate(617.32992 177.021562)scale(0.1 -0.1)">
      <use xlink:href="#DejaVuSans-57"/>
     </g>
    </g>
    <g id="PathCollection_22">
     <g>
      <use style="fill:#ff7f0e;stroke:#ff7f0e;" x="599.32992" xlink:href="#maa599bbe04" y="189.074687"/>
     </g>
    </g>
    <g id="text_30">
     <!-- 11 -->
     <g transform="translate(617.32992 191.699687)scale(0.1 -0.1)">
      <use xlink:href="#DejaVuSans-49"/>
      <use x="63.623047" xlink:href="#DejaVuSans-49"/>
     </g>
    </g>
   </g>
  </g>
  <g id="axes_2">
   <g id="patch_8">
    <path d="M 681.46 404.12 
L 1281.65492 404.12 
L 1281.65492 28.32 
L 681.46 28.32 
z
" style="fill:#ffffff;"/>
   </g>
   <g id="PathCollection_23">
    <g clip-path="url(#p711dff2b5c)">
     <use style="fill:#1f77b4;stroke:#1f77b4;" x="1003.496244" xlink:href="#mf14c60152d" y="51.239065"/>
     <use style="fill:#1f77b4;stroke:#1f77b4;" x="1049.008033" xlink:href="#mf14c60152d" y="68.626985"/>
     <use style="fill:#1f77b4;stroke:#1f77b4;" x="1043.357625" xlink:href="#mf14c60152d" y="45.401818"/>
     <use style="fill:#1f77b4;stroke:#1f77b4;" x="1100.45174" xlink:href="#mf14c60152d" y="62.152088"/>
     <use style="fill:#1f77b4;stroke:#1f77b4;" x="1119.98065" xlink:href="#mf14c60152d" y="84.004397"/>
     <use style="fill:#1f77b4;stroke:#1f77b4;" x="1084.881541" xlink:href="#mf14c60152d" y="86.424963"/>
     <use style="fill:#1f77b4;stroke:#1f77b4;" x="1106.527132" xlink:href="#mf14c60152d" y="111.279584"/>
     <use style="fill:#1f77b4;stroke:#1f77b4;" x="1123.554213" xlink:href="#mf14c60152d" y="130.920873"/>
     <use style="fill:#1f77b4;stroke:#1f77b4;" x="1147.920117" xlink:href="#mf14c60152d" y="111.139476"/>
     <use style="fill:#1f77b4;stroke:#1f77b4;" x="1039.760172" xlink:href="#mf14c60152d" y="125.071174"/>
     <use style="fill:#1f77b4;stroke:#1f77b4;" x="1074.653204" xlink:href="#mf14c60152d" y="130.525305"/>
     <use style="fill:#1f77b4;stroke:#1f77b4;" x="1065.040493" xlink:href="#mf14c60152d" y="109.12756"/>
     <use style="fill:#1f77b4;stroke:#1f77b4;" x="973.443584" xlink:href="#mf14c60152d" y="86.231306"/>
     <use style="fill:#1f77b4;stroke:#1f77b4;" x="1005.34122" xlink:href="#mf14c60152d" y="80.070449"/>
     <use style="fill:#1f77b4;stroke:#1f77b4;" x="1000.891033" xlink:href="#mf14c60152d" y="106.306927"/>
     <use style="fill:#1f77b4;stroke:#1f77b4;" x="1032.031647" xlink:href="#mf14c60152d" y="94.547215"/>
    </g>
   </g>
   <g id="PathCollection_24">
    <g clip-path="url(#p711dff2b5c)">
     <use style="fill:#ff7f0e;stroke:#ff7f0e;" x="921.534771" xlink:href="#maa599bbe04" y="240.392562"/>
     <use style="fill:#ff7f0e;stroke:#ff7f0e;" x="951.691643" xlink:href="#maa599bbe04" y="240.343969"/>
     <use style="fill:#ff7f0e;stroke:#ff7f0e;" x="1026.349131" xlink:href="#maa599bbe04" y="237.195995"/>
     <use style="fill:#ff7f0e;stroke:#ff7f0e;" x="1032.755619" xlink:href="#maa599bbe04" y="255.516148"/>
     <use style="fill:#ff7f0e;stroke:#ff7f0e;" x="990.456652" xlink:href="#maa599bbe04" y="243.51065"/>
     <use style="fill:#ff7f0e;stroke:#ff7f0e;" x="943.560549" xlink:href="#maa599bbe04" y="218.754975"/>
     <use style="fill:#ff7f0e;stroke:#ff7f0e;" x="991.460365" xlink:href="#maa599bbe04" y="222.319274"/>
     <use style="fill:#ff7f0e;stroke:#ff7f0e;" x="987.508011" xlink:href="#maa599bbe04" y="269.190352"/>
     <use style="fill:#ff7f0e;stroke:#ff7f0e;" x="1018.520085" xlink:href="#maa599bbe04" y="291.155443"/>
     <use style="fill:#ff7f0e;stroke:#ff7f0e;" x="1023.321332" xlink:href="#maa599bbe04" y="320.296792"/>
     <use style="fill:#ff7f0e;stroke:#ff7f0e;" x="983.190864" xlink:href="#maa599bbe04" y="315.903721"/>
     <use style="fill:#ff7f0e;stroke:#ff7f0e;" x="988.07547" xlink:href="#maa599bbe04" y="293.68126"/>
     <use style="fill:#ff7f0e;stroke:#ff7f0e;" x="920.972319" xlink:href="#maa599bbe04" y="383.118911"/>
     <use style="fill:#ff7f0e;stroke:#ff7f0e;" x="927.777531" xlink:href="#maa599bbe04" y="362.550493"/>
     <use style="fill:#ff7f0e;stroke:#ff7f0e;" x="972.445463" xlink:href="#maa599bbe04" y="367.560867"/>
     <use style="fill:#ff7f0e;stroke:#ff7f0e;" x="959.984556" xlink:href="#maa599bbe04" y="384.839057"/>
     <use style="fill:#ff7f0e;stroke:#ff7f0e;" x="1026.320707" xlink:href="#maa599bbe04" y="387.038182"/>
     <use style="fill:#ff7f0e;stroke:#ff7f0e;" x="1028.965611" xlink:href="#maa599bbe04" y="370.398461"/>
     <use style="fill:#ff7f0e;stroke:#ff7f0e;" x="945.707792" xlink:href="#maa599bbe04" y="271.812109"/>
     <use style="fill:#ff7f0e;stroke:#ff7f0e;" x="917.463978" xlink:href="#maa599bbe04" y="270.552754"/>
     <use style="fill:#ff7f0e;stroke:#ff7f0e;" x="832.622783" xlink:href="#maa599bbe04" y="339.297247"/>
     <use style="fill:#ff7f0e;stroke:#ff7f0e;" x="872.706364" xlink:href="#maa599bbe04" y="321.732124"/>
     <use style="fill:#ff7f0e;stroke:#ff7f0e;" x="1100.978206" xlink:href="#maa599bbe04" y="279.636874"/>
     <use style="fill:#ff7f0e;stroke:#ff7f0e;" x="1075.008563" xlink:href="#maa599bbe04" y="286.097523"/>
     <use style="fill:#ff7f0e;stroke:#ff7f0e;" x="897.121791" xlink:href="#maa599bbe04" y="292.278037"/>
     <use style="fill:#ff7f0e;stroke:#ff7f0e;" x="931.721139" xlink:href="#maa599bbe04" y="303.004014"/>
     <use style="fill:#ff7f0e;stroke:#ff7f0e;" x="852.148367" xlink:href="#maa599bbe04" y="211.731933"/>
     <use style="fill:#ff7f0e;stroke:#ff7f0e;" x="1103.366887" xlink:href="#maa599bbe04" y="183.922224"/>
     <use style="fill:#ff7f0e;stroke:#ff7f0e;" x="1113.967045" xlink:href="#maa599bbe04" y="200.14385"/>
     <use style="fill:#ff7f0e;stroke:#ff7f0e;" x="1146.693491" xlink:href="#maa599bbe04" y="194.793379"/>
     <use style="fill:#ff7f0e;stroke:#ff7f0e;" x="1062.14386" xlink:href="#maa599bbe04" y="195.032162"/>
     <use style="fill:#ff7f0e;stroke:#ff7f0e;" x="854.363596" xlink:href="#maa599bbe04" y="136.948331"/>
     <use style="fill:#ff7f0e;stroke:#ff7f0e;" x="842.189444" xlink:href="#maa599bbe04" y="121.854768"/>
     <use style="fill:#ff7f0e;stroke:#ff7f0e;" x="1094.93924" xlink:href="#maa599bbe04" y="226.639543"/>
     <use style="fill:#ff7f0e;stroke:#ff7f0e;" x="1027.775236" xlink:href="#maa599bbe04" y="179.103826"/>
     <use style="fill:#ff7f0e;stroke:#ff7f0e;" x="919.383804" xlink:href="#maa599bbe04" y="164.395039"/>
     <use style="fill:#ff7f0e;stroke:#ff7f0e;" x="944.808554" xlink:href="#maa599bbe04" y="151.470015"/>
     <use style="fill:#ff7f0e;stroke:#ff7f0e;" x="912.719584" xlink:href="#maa599bbe04" y="144.276912"/>
     <use style="fill:#ff7f0e;stroke:#ff7f0e;" x="978.655085" xlink:href="#maa599bbe04" y="176.811685"/>
     <use style="fill:#ff7f0e;stroke:#ff7f0e;" x="961.222699" xlink:href="#maa599bbe04" y="188.68334"/>
     <use style="fill:#ff7f0e;stroke:#ff7f0e;" x="1129.442623" xlink:href="#maa599bbe04" y="318.376845"/>
    </g>
   </g>
   <g id="PathCollection_25">
    <g clip-path="url(#p711dff2b5c)">
     <use style="fill:#2ca02c;stroke:#2ca02c;" x="758.735547" xlink:href="#m03e92634f4" y="213.32378"/>
     <use style="fill:#2ca02c;stroke:#2ca02c;" x="741.934175" xlink:href="#m03e92634f4" y="189.938687"/>
     <use style="fill:#2ca02c;stroke:#2ca02c;" x="787.655994" xlink:href="#m03e92634f4" y="196.978419"/>
     <use style="fill:#2ca02c;stroke:#2ca02c;" x="789.638713" xlink:href="#m03e92634f4" y="218.684745"/>
     <use style="fill:#2ca02c;stroke:#2ca02c;" x="709.815633" xlink:href="#m03e92634f4" y="229.836992"/>
     <use style="fill:#2ca02c;stroke:#2ca02c;" x="742.914776" xlink:href="#m03e92634f4" y="243.702143"/>
     <use style="fill:#2ca02c;stroke:#2ca02c;" x="708.741587" xlink:href="#m03e92634f4" y="277.117504"/>
     <use style="fill:#2ca02c;stroke:#2ca02c;" x="746.320746" xlink:href="#m03e92634f4" y="266.16197"/>
     <use style="fill:#2ca02c;stroke:#2ca02c;" x="711.467597" xlink:href="#m03e92634f4" y="254.12867"/>
     <use style="fill:#2ca02c;stroke:#2ca02c;" x="853.974764" xlink:href="#m03e92634f4" y="249.548773"/>
     <use style="fill:#2ca02c;stroke:#2ca02c;" x="843.624525" xlink:href="#m03e92634f4" y="268.695047"/>
     <use style="fill:#2ca02c;stroke:#2ca02c;" x="842.524133" xlink:href="#m03e92634f4" y="290.432051"/>
     <use style="fill:#2ca02c;stroke:#2ca02c;" x="743.364167" xlink:href="#m03e92634f4" y="319.369729"/>
     <use style="fill:#2ca02c;stroke:#2ca02c;" x="770.853864" xlink:href="#m03e92634f4" y="323.984919"/>
     <use style="fill:#2ca02c;stroke:#2ca02c;" x="790.192003" xlink:href="#m03e92634f4" y="304.175468"/>
     <use style="fill:#2ca02c;stroke:#2ca02c;" x="808.15756" xlink:href="#m03e92634f4" y="266.349224"/>
     <use style="fill:#2ca02c;stroke:#2ca02c;" x="809.631544" xlink:href="#m03e92634f4" y="248.040738"/>
    </g>
   </g>
   <g id="PathCollection_26">
    <g clip-path="url(#p711dff2b5c)">
     <use style="fill:#d62728;stroke:#d62728;" x="1254.373333" xlink:href="#m7772876804" y="315.906102"/>
     <use style="fill:#d62728;stroke:#d62728;" x="1205.860138" xlink:href="#m7772876804" y="338.518867"/>
     <use style="fill:#d62728;stroke:#d62728;" x="1220.077171" xlink:href="#m7772876804" y="318.867073"/>
     <use style="fill:#d62728;stroke:#d62728;" x="1246.344593" xlink:href="#m7772876804" y="340.029484"/>
     <use style="fill:#d62728;stroke:#d62728;" x="1194.781596" xlink:href="#m7772876804" y="297.666462"/>
     <use style="fill:#d62728;stroke:#d62728;" x="1231.594953" xlink:href="#m7772876804" y="293.638503"/>
     <use style="fill:#d62728;stroke:#d62728;" x="1180.333772" xlink:href="#m7772876804" y="318.995105"/>
    </g>
   </g>
   <g id="matplotlib.axis_3">
    <g id="xtick_10">
     <g id="line2d_19">
      <g>
       <use style="stroke:#000000;stroke-width:0.8;" x="725.821374" xlink:href="#ma310fa5135" y="404.12"/>
      </g>
     </g>
     <g id="text_31">
      <!-- −60 -->
      <g transform="translate(715.269031 418.718437)scale(0.1 -0.1)">
       <use xlink:href="#DejaVuSans-8722"/>
       <use x="83.789062" xlink:href="#DejaVuSans-54"/>
       <use x="147.412109" xlink:href="#DejaVuSans-48"/>
      </g>
     </g>
    </g>
    <g id="xtick_11">
     <g id="line2d_20">
      <g>
       <use style="stroke:#000000;stroke-width:0.8;" x="794.322814" xlink:href="#ma310fa5135" y="404.12"/>
      </g>
     </g>
     <g id="text_32">
      <!-- −40 -->
      <g transform="translate(783.77047 418.718437)scale(0.1 -0.1)">
       <use xlink:href="#DejaVuSans-8722"/>
       <use x="83.789062" xlink:href="#DejaVuSans-52"/>
       <use x="147.412109" xlink:href="#DejaVuSans-48"/>
      </g>
     </g>
    </g>
    <g id="xtick_12">
     <g id="line2d_21">
      <g>
       <use style="stroke:#000000;stroke-width:0.8;" x="862.824253" xlink:href="#ma310fa5135" y="404.12"/>
      </g>
     </g>
     <g id="text_33">
      <!-- −20 -->
      <g transform="translate(852.27191 418.718437)scale(0.1 -0.1)">
       <use xlink:href="#DejaVuSans-8722"/>
       <use x="83.789062" xlink:href="#DejaVuSans-50"/>
       <use x="147.412109" xlink:href="#DejaVuSans-48"/>
      </g>
     </g>
    </g>
    <g id="xtick_13">
     <g id="line2d_22">
      <g>
       <use style="stroke:#000000;stroke-width:0.8;" x="931.325693" xlink:href="#ma310fa5135" y="404.12"/>
      </g>
     </g>
     <g id="text_34">
      <!-- 0 -->
      <g transform="translate(928.144443 418.718437)scale(0.1 -0.1)">
       <use xlink:href="#DejaVuSans-48"/>
      </g>
     </g>
    </g>
    <g id="xtick_14">
     <g id="line2d_23">
      <g>
       <use style="stroke:#000000;stroke-width:0.8;" x="999.827133" xlink:href="#ma310fa5135" y="404.12"/>
      </g>
     </g>
     <g id="text_35">
      <!-- 20 -->
      <g transform="translate(993.464633 418.718437)scale(0.1 -0.1)">
       <use xlink:href="#DejaVuSans-50"/>
       <use x="63.623047" xlink:href="#DejaVuSans-48"/>
      </g>
     </g>
    </g>
    <g id="xtick_15">
     <g id="line2d_24">
      <g>
       <use style="stroke:#000000;stroke-width:0.8;" x="1068.328572" xlink:href="#ma310fa5135" y="404.12"/>
      </g>
     </g>
     <g id="text_36">
      <!-- 40 -->
      <g transform="translate(1061.966072 418.718437)scale(0.1 -0.1)">
       <use xlink:href="#DejaVuSans-52"/>
       <use x="63.623047" xlink:href="#DejaVuSans-48"/>
      </g>
     </g>
    </g>
    <g id="xtick_16">
     <g id="line2d_25">
      <g>
       <use style="stroke:#000000;stroke-width:0.8;" x="1136.830012" xlink:href="#ma310fa5135" y="404.12"/>
      </g>
     </g>
     <g id="text_37">
      <!-- 60 -->
      <g transform="translate(1130.467512 418.718437)scale(0.1 -0.1)">
       <use xlink:href="#DejaVuSans-54"/>
       <use x="63.623047" xlink:href="#DejaVuSans-48"/>
      </g>
     </g>
    </g>
    <g id="xtick_17">
     <g id="line2d_26">
      <g>
       <use style="stroke:#000000;stroke-width:0.8;" x="1205.331451" xlink:href="#ma310fa5135" y="404.12"/>
      </g>
     </g>
     <g id="text_38">
      <!-- 80 -->
      <g transform="translate(1198.968951 418.718437)scale(0.1 -0.1)">
       <use xlink:href="#DejaVuSans-56"/>
       <use x="63.623047" xlink:href="#DejaVuSans-48"/>
      </g>
     </g>
    </g>
    <g id="xtick_18">
     <g id="line2d_27">
      <g>
       <use style="stroke:#000000;stroke-width:0.8;" x="1273.832891" xlink:href="#ma310fa5135" y="404.12"/>
      </g>
     </g>
     <g id="text_39">
      <!-- 100 -->
      <g transform="translate(1264.289141 418.718437)scale(0.1 -0.1)">
       <use xlink:href="#DejaVuSans-49"/>
       <use x="63.623047" xlink:href="#DejaVuSans-48"/>
       <use x="127.246094" xlink:href="#DejaVuSans-48"/>
      </g>
     </g>
    </g>
   </g>
   <g id="matplotlib.axis_4">
    <g id="ytick_10">
     <g id="line2d_28">
      <g>
       <use style="stroke:#000000;stroke-width:0.8;" x="681.46" xlink:href="#m53e3208275" y="400.019115"/>
      </g>
     </g>
     <g id="text_40">
      <!-- −80 -->
      <g transform="translate(653.355312 403.818334)scale(0.1 -0.1)">
       <use xlink:href="#DejaVuSans-8722"/>
       <use x="83.789062" xlink:href="#DejaVuSans-56"/>
       <use x="147.412109" xlink:href="#DejaVuSans-48"/>
      </g>
     </g>
    </g>
    <g id="ytick_11">
     <g id="line2d_29">
      <g>
       <use style="stroke:#000000;stroke-width:0.8;" x="681.46" xlink:href="#m53e3208275" y="357.124433"/>
      </g>
     </g>
     <g id="text_41">
      <!-- −60 -->
      <g transform="translate(653.355312 360.923652)scale(0.1 -0.1)">
       <use xlink:href="#DejaVuSans-8722"/>
       <use x="83.789062" xlink:href="#DejaVuSans-54"/>
       <use x="147.412109" xlink:href="#DejaVuSans-48"/>
      </g>
     </g>
    </g>
    <g id="ytick_12">
     <g id="line2d_30">
      <g>
       <use style="stroke:#000000;stroke-width:0.8;" x="681.46" xlink:href="#m53e3208275" y="314.229751"/>
      </g>
     </g>
     <g id="text_42">
      <!-- −40 -->
      <g transform="translate(653.355312 318.02897)scale(0.1 -0.1)">
       <use xlink:href="#DejaVuSans-8722"/>
       <use x="83.789062" xlink:href="#DejaVuSans-52"/>
       <use x="147.412109" xlink:href="#DejaVuSans-48"/>
      </g>
     </g>
    </g>
    <g id="ytick_13">
     <g id="line2d_31">
      <g>
       <use style="stroke:#000000;stroke-width:0.8;" x="681.46" xlink:href="#m53e3208275" y="271.33507"/>
      </g>
     </g>
     <g id="text_43">
      <!-- −20 -->
      <g transform="translate(653.355312 275.134288)scale(0.1 -0.1)">
       <use xlink:href="#DejaVuSans-8722"/>
       <use x="83.789062" xlink:href="#DejaVuSans-50"/>
       <use x="147.412109" xlink:href="#DejaVuSans-48"/>
      </g>
     </g>
    </g>
    <g id="ytick_14">
     <g id="line2d_32">
      <g>
       <use style="stroke:#000000;stroke-width:0.8;" x="681.46" xlink:href="#m53e3208275" y="228.440388"/>
      </g>
     </g>
     <g id="text_44">
      <!-- 0 -->
      <g transform="translate(668.0975 232.239607)scale(0.1 -0.1)">
       <use xlink:href="#DejaVuSans-48"/>
      </g>
     </g>
    </g>
    <g id="ytick_15">
     <g id="line2d_33">
      <g>
       <use style="stroke:#000000;stroke-width:0.8;" x="681.46" xlink:href="#m53e3208275" y="185.545706"/>
      </g>
     </g>
     <g id="text_45">
      <!-- 20 -->
      <g transform="translate(661.735 189.344925)scale(0.1 -0.1)">
       <use xlink:href="#DejaVuSans-50"/>
       <use x="63.623047" xlink:href="#DejaVuSans-48"/>
      </g>
     </g>
    </g>
    <g id="ytick_16">
     <g id="line2d_34">
      <g>
       <use style="stroke:#000000;stroke-width:0.8;" x="681.46" xlink:href="#m53e3208275" y="142.651024"/>
      </g>
     </g>
     <g id="text_46">
      <!-- 40 -->
      <g transform="translate(661.735 146.450243)scale(0.1 -0.1)">
       <use xlink:href="#DejaVuSans-52"/>
       <use x="63.623047" xlink:href="#DejaVuSans-48"/>
      </g>
     </g>
    </g>
    <g id="ytick_17">
     <g id="line2d_35">
      <g>
       <use style="stroke:#000000;stroke-width:0.8;" x="681.46" xlink:href="#m53e3208275" y="99.756343"/>
      </g>
     </g>
     <g id="text_47">
      <!-- 60 -->
      <g transform="translate(661.735 103.555561)scale(0.1 -0.1)">
       <use xlink:href="#DejaVuSans-54"/>
       <use x="63.623047" xlink:href="#DejaVuSans-48"/>
      </g>
     </g>
    </g>
    <g id="ytick_18">
     <g id="line2d_36">
      <g>
       <use style="stroke:#000000;stroke-width:0.8;" x="681.46" xlink:href="#m53e3208275" y="56.861661"/>
      </g>
     </g>
     <g id="text_48">
      <!-- 80 -->
      <g transform="translate(661.735 60.66088)scale(0.1 -0.1)">
       <use xlink:href="#DejaVuSans-56"/>
       <use x="63.623047" xlink:href="#DejaVuSans-48"/>
      </g>
     </g>
    </g>
   </g>
   <g id="patch_9">
    <path d="M 681.46 404.12 
L 681.46 28.32 
" style="fill:none;stroke:#000000;stroke-linecap:square;stroke-linejoin:miter;stroke-width:0.8;"/>
   </g>
   <g id="patch_10">
    <path d="M 1281.65492 404.12 
L 1281.65492 28.32 
" style="fill:none;stroke:#000000;stroke-linecap:square;stroke-linejoin:miter;stroke-width:0.8;"/>
   </g>
   <g id="patch_11">
    <path d="M 681.46 404.12 
L 1281.65492 404.12 
" style="fill:none;stroke:#000000;stroke-linecap:square;stroke-linejoin:miter;stroke-width:0.8;"/>
   </g>
   <g id="patch_12">
    <path d="M 681.46 28.32 
L 1281.65492 28.32 
" style="fill:none;stroke:#000000;stroke-linecap:square;stroke-linejoin:miter;stroke-width:0.8;"/>
   </g>
   <g id="text_49">
    <!-- tar_cos -->
    <defs>
     <path d="M 52.59375 52.984375 
L 52.59375 38.71875 
Q 49.03125 41.15625 45.4375 42.328125 
Q 41.84375 43.5 37.984375 43.5 
Q 30.671875 43.5 26.59375 39.234375 
Q 22.515625 34.96875 22.515625 27.296875 
Q 22.515625 19.625 26.59375 15.34375 
Q 30.671875 11.078125 37.984375 11.078125 
Q 42.09375 11.078125 45.78125 12.296875 
Q 49.46875 13.53125 52.59375 15.921875 
L 52.59375 1.609375 
Q 48.484375 0.09375 44.265625 -0.65625 
Q 40.046875 -1.421875 35.796875 -1.421875 
Q 21 -1.421875 12.640625 6.171875 
Q 4.296875 13.765625 4.296875 27.296875 
Q 4.296875 40.828125 12.640625 48.40625 
Q 21 56 35.796875 56 
Q 40.09375 56 44.265625 55.25 
Q 48.4375 54.5 52.59375 52.984375 
z
" id="DejaVuSans-Bold-99"/>
     <path d="M 34.421875 43.5 
Q 28.609375 43.5 25.5625 39.328125 
Q 22.515625 35.15625 22.515625 27.296875 
Q 22.515625 19.4375 25.5625 15.25 
Q 28.609375 11.078125 34.421875 11.078125 
Q 40.140625 11.078125 43.15625 15.25 
Q 46.1875 19.4375 46.1875 27.296875 
Q 46.1875 35.15625 43.15625 39.328125 
Q 40.140625 43.5 34.421875 43.5 
z
M 34.421875 56 
Q 48.53125 56 56.46875 48.375 
Q 64.40625 40.765625 64.40625 27.296875 
Q 64.40625 13.8125 56.46875 6.1875 
Q 48.53125 -1.421875 34.421875 -1.421875 
Q 20.265625 -1.421875 12.28125 6.1875 
Q 4.296875 13.8125 4.296875 27.296875 
Q 4.296875 40.765625 12.28125 48.375 
Q 20.265625 56 34.421875 56 
z
" id="DejaVuSans-Bold-111"/>
     <path d="M 51.125 52.984375 
L 51.125 39.703125 
Q 45.515625 42.046875 40.28125 43.21875 
Q 35.0625 44.390625 30.421875 44.390625 
Q 25.4375 44.390625 23.015625 43.140625 
Q 20.609375 41.890625 20.609375 39.3125 
Q 20.609375 37.203125 22.4375 36.078125 
Q 24.265625 34.96875 29 34.421875 
L 32.078125 33.984375 
Q 45.515625 32.28125 50.140625 28.375 
Q 54.78125 24.46875 54.78125 16.109375 
Q 54.78125 7.375 48.328125 2.96875 
Q 41.890625 -1.421875 29.109375 -1.421875 
Q 23.6875 -1.421875 17.890625 -0.5625 
Q 12.109375 0.296875 6 2 
L 6 15.28125 
Q 11.234375 12.75 16.71875 11.46875 
Q 22.21875 10.203125 27.875 10.203125 
Q 33.015625 10.203125 35.59375 11.609375 
Q 38.1875 13.03125 38.1875 15.828125 
Q 38.1875 18.171875 36.40625 19.3125 
Q 34.625 20.453125 29.296875 21.09375 
L 26.21875 21.484375 
Q 14.546875 22.953125 9.859375 26.90625 
Q 5.171875 30.859375 5.171875 38.921875 
Q 5.171875 47.609375 11.125 51.796875 
Q 17.09375 56 29.390625 56 
Q 34.234375 56 39.546875 55.265625 
Q 44.875 54.546875 51.125 52.984375 
z
" id="DejaVuSans-Bold-115"/>
    </defs>
    <g style="fill:#1f77b4;" transform="translate(949.38996 22.32)scale(0.16 -0.16)">
     <use xlink:href="#DejaVuSans-Bold-116"/>
     <use x="47.802734" xlink:href="#DejaVuSans-Bold-97"/>
     <use x="115.283203" xlink:href="#DejaVuSans-Bold-114"/>
     <use x="164.599609" xlink:href="#DejaVuSans-Bold-95"/>
     <use x="214.599609" xlink:href="#DejaVuSans-Bold-99"/>
     <use x="273.876953" xlink:href="#DejaVuSans-Bold-111"/>
     <use x="342.578125" xlink:href="#DejaVuSans-Bold-115"/>
    </g>
   </g>
   <g id="legend_2">
    <g id="patch_13">
     <path d="M 1236.29242 95.0325 
L 1274.65492 95.0325 
Q 1276.65492 95.0325 1276.65492 93.0325 
L 1276.65492 35.32 
Q 1276.65492 33.32 1274.65492 33.32 
L 1236.29242 33.32 
Q 1234.29242 33.32 1234.29242 35.32 
L 1234.29242 93.0325 
Q 1234.29242 95.0325 1236.29242 95.0325 
z
" style="fill:#ffffff;opacity:0.8;stroke:#cccccc;stroke-linejoin:miter;"/>
    </g>
    <g id="PathCollection_27">
     <g>
      <use style="fill:#1f77b4;stroke:#1f77b4;" x="1248.29242" xlink:href="#mf14c60152d" y="42.293438"/>
     </g>
    </g>
    <g id="text_50">
     <!-- 0 -->
     <g transform="translate(1266.29242 44.918438)scale(0.1 -0.1)">
      <use xlink:href="#DejaVuSans-48"/>
     </g>
    </g>
    <g id="PathCollection_28">
     <g>
      <use style="fill:#ff7f0e;stroke:#ff7f0e;" x="1248.29242" xlink:href="#maa599bbe04" y="56.971563"/>
     </g>
    </g>
    <g id="text_51">
     <!-- 1 -->
     <g transform="translate(1266.29242 59.596563)scale(0.1 -0.1)">
      <use xlink:href="#DejaVuSans-49"/>
     </g>
    </g>
    <g id="PathCollection_29">
     <g>
      <use style="fill:#2ca02c;stroke:#2ca02c;" x="1248.29242" xlink:href="#m03e92634f4" y="71.649688"/>
     </g>
    </g>
    <g id="text_52">
     <!-- 2 -->
     <g transform="translate(1266.29242 74.274688)scale(0.1 -0.1)">
      <use xlink:href="#DejaVuSans-50"/>
     </g>
    </g>
    <g id="PathCollection_30">
     <g>
      <use style="fill:#d62728;stroke:#d62728;" x="1248.29242" xlink:href="#m7772876804" y="86.327813"/>
     </g>
    </g>
    <g id="text_53">
     <!-- 3 -->
     <g transform="translate(1266.29242 88.952813)scale(0.1 -0.1)">
      <use xlink:href="#DejaVuSans-51"/>
     </g>
    </g>
   </g>
  </g>
 </g>
 <defs>
  <clipPath id="p0b30dda2d4">
   <rect height="375.8" width="600.19492" x="38.86" y="28.32"/>
  </clipPath>
  <clipPath id="p711dff2b5c">
   <rect height="375.8" width="600.19492" x="681.46" y="28.32"/>
  </clipPath>
 </defs>
</svg>
