<?xml version="1.0" encoding="utf-8" standalone="no"?>
<!DOCTYPE svg PUBLIC "-//W3C//DTD SVG 1.1//EN"
  "http://www.w3.org/Graphics/SVG/1.1/DTD/svg11.dtd">
<!-- Created with matplotlib (https://matplotlib.org/) -->
<svg height="432pt" version="1.1" viewBox="0 0 1296 432" width="1296pt" xmlns="http://www.w3.org/2000/svg" xmlns:xlink="http://www.w3.org/1999/xlink">
 <defs>
  <style type="text/css">
*{stroke-linecap:butt;stroke-linejoin:round;}
  </style>
 </defs>
 <g id="figure_1">
  <g id="patch_1">
   <path d="M 0 432 
L 1296 432 
L 1296 0 
L 0 0 
z
" style="fill:#ffffff;"/>
  </g>
  <g id="axes_1">
   <g id="patch_2">
    <path d="M 38.86 404.12 
L 642.6 404.12 
L 642.6 28.32 
L 38.86 28.32 
z
" style="fill:#ffffff;"/>
   </g>
   <g id="PathCollection_1">
    <defs>
     <path d="M 0 3 
C 0.795609 3 1.55874 2.683901 2.12132 2.12132 
C 2.683901 1.55874 3 0.795609 3 0 
C 3 -0.795609 2.683901 -1.55874 2.12132 -2.12132 
C 1.55874 -2.683901 0.795609 -3 0 -3 
C -0.795609 -3 -1.55874 -2.683901 -2.12132 -2.12132 
C -2.683901 -1.55874 -3 -0.795609 -3 0 
C -3 0.795609 -2.683901 1.55874 -2.12132 2.12132 
C -1.55874 2.683901 -0.795609 3 0 3 
z
" id="m4bef37bc22" style="stroke:#1f77b4;"/>
    </defs>
    <g clip-path="url(#pa9837d9344)">
     <use style="fill:#1f77b4;stroke:#1f77b4;" x="263.647083" xlink:href="#m4bef37bc22" y="132.01969"/>
     <use style="fill:#1f77b4;stroke:#1f77b4;" x="204.743053" xlink:href="#m4bef37bc22" y="107.789028"/>
     <use style="fill:#1f77b4;stroke:#1f77b4;" x="233.638636" xlink:href="#m4bef37bc22" y="107.511568"/>
     <use style="fill:#1f77b4;stroke:#1f77b4;" x="233.237301" xlink:href="#m4bef37bc22" y="137.237259"/>
    </g>
   </g>
   <g id="PathCollection_2">
    <defs>
     <path d="M 0 3 
C 0.795609 3 1.55874 2.683901 2.12132 2.12132 
C 2.683901 1.55874 3 0.795609 3 0 
C 3 -0.795609 2.683901 -1.55874 2.12132 -2.12132 
C 1.55874 -2.683901 0.795609 -3 0 -3 
C -0.795609 -3 -1.55874 -2.683901 -2.12132 -2.12132 
C -2.683901 -1.55874 -3 -0.795609 -3 0 
C -3 0.795609 -2.683901 1.55874 -2.12132 2.12132 
C -1.55874 2.683901 -0.795609 3 0 3 
z
" id="mcf7424bccd" style="stroke:#2ca02c;"/>
    </defs>
    <g clip-path="url(#pa9837d9344)">
     <use style="fill:#2ca02c;stroke:#2ca02c;" x="163.968813" xlink:href="#mcf7424bccd" y="143.5236"/>
     <use style="fill:#2ca02c;stroke:#2ca02c;" x="185.189435" xlink:href="#mcf7424bccd" y="156.789494"/>
    </g>
   </g>
   <g id="PathCollection_3">
    <defs>
     <path d="M 0 3 
C 0.795609 3 1.55874 2.683901 2.12132 2.12132 
C 2.683901 1.55874 3 0.795609 3 0 
C 3 -0.795609 2.683901 -1.55874 2.12132 -2.12132 
C 1.55874 -2.683901 0.795609 -3 0 -3 
C -0.795609 -3 -1.55874 -2.683901 -2.12132 -2.12132 
C -2.683901 -1.55874 -3 -0.795609 -3 0 
C -3 0.795609 -2.683901 1.55874 -2.12132 2.12132 
C -1.55874 2.683901 -0.795609 3 0 3 
z
" id="mc7938fabe6" style="stroke:#d62728;"/>
    </defs>
    <g clip-path="url(#pa9837d9344)">
     <use style="fill:#d62728;stroke:#d62728;" x="403.682899" xlink:href="#mc7938fabe6" y="133.08366"/>
     <use style="fill:#d62728;stroke:#d62728;" x="374.169793" xlink:href="#mc7938fabe6" y="143.581872"/>
    </g>
   </g>
   <g id="PathCollection_4">
    <defs>
     <path d="M 0 3 
C 0.795609 3 1.55874 2.683901 2.12132 2.12132 
C 2.683901 1.55874 3 0.795609 3 0 
C 3 -0.795609 2.683901 -1.55874 2.12132 -2.12132 
C 1.55874 -2.683901 0.795609 -3 0 -3 
C -0.795609 -3 -1.55874 -2.683901 -2.12132 -2.12132 
C -2.683901 -1.55874 -3 -0.795609 -3 0 
C -3 0.795609 -2.683901 1.55874 -2.12132 2.12132 
C -1.55874 2.683901 -0.795609 3 0 3 
z
" id="mfab8dd64e6" style="stroke:#e377c2;"/>
    </defs>
    <g clip-path="url(#pa9837d9344)">
     <use style="fill:#e377c2;stroke:#e377c2;" x="86.76271" xlink:href="#mfab8dd64e6" y="166.363879"/>
     <use style="fill:#e377c2;stroke:#e377c2;" x="95.031548" xlink:href="#mfab8dd64e6" y="228.111421"/>
     <use style="fill:#e377c2;stroke:#e377c2;" x="66.302727" xlink:href="#mfab8dd64e6" y="213.875179"/>
     <use style="fill:#e377c2;stroke:#e377c2;" x="118.865202" xlink:href="#mfab8dd64e6" y="207.552791"/>
     <use style="fill:#e377c2;stroke:#e377c2;" x="120.975991" xlink:href="#mfab8dd64e6" y="177.790213"/>
     <use style="fill:#e377c2;stroke:#e377c2;" x="91.979205" xlink:href="#mfab8dd64e6" y="187.246158"/>
     <use style="fill:#e377c2;stroke:#e377c2;" x="166.834815" xlink:href="#mfab8dd64e6" y="202.109251"/>
     <use style="fill:#e377c2;stroke:#e377c2;" x="201.351757" xlink:href="#mfab8dd64e6" y="198.174282"/>
     <use style="fill:#e377c2;stroke:#e377c2;" x="181.890719" xlink:href="#mfab8dd64e6" y="219.731809"/>
    </g>
   </g>
   <g id="PathCollection_5">
    <defs>
     <path d="M 0 3 
C 0.795609 3 1.55874 2.683901 2.12132 2.12132 
C 2.683901 1.55874 3 0.795609 3 0 
C 3 -0.795609 2.683901 -1.55874 2.12132 -2.12132 
C 1.55874 -2.683901 0.795609 -3 0 -3 
C -0.795609 -3 -1.55874 -2.683901 -2.12132 -2.12132 
C -2.683901 -1.55874 -3 -0.795609 -3 0 
C -3 0.795609 -2.683901 1.55874 -2.12132 2.12132 
C -1.55874 2.683901 -0.795609 3 0 3 
z
" id="m4c0d762589" style="stroke:#7f7f7f;"/>
    </defs>
    <g clip-path="url(#pa9837d9344)">
     <use style="fill:#7f7f7f;stroke:#7f7f7f;" x="333.477903" xlink:href="#m4c0d762589" y="53.399686"/>
     <use style="fill:#7f7f7f;stroke:#7f7f7f;" x="300.07884" xlink:href="#m4c0d762589" y="65.066124"/>
     <use style="fill:#7f7f7f;stroke:#7f7f7f;" x="295.605813" xlink:href="#m4c0d762589" y="45.401818"/>
     <use style="fill:#7f7f7f;stroke:#7f7f7f;" x="315.483445" xlink:href="#m4c0d762589" y="102.776369"/>
     <use style="fill:#7f7f7f;stroke:#7f7f7f;" x="328.973565" xlink:href="#m4c0d762589" y="119.331933"/>
     <use style="fill:#7f7f7f;stroke:#7f7f7f;" x="350.478742" xlink:href="#m4c0d762589" y="94.6692"/>
     <use style="fill:#7f7f7f;stroke:#7f7f7f;" x="325.502382" xlink:href="#m4c0d762589" y="204.84981"/>
     <use style="fill:#7f7f7f;stroke:#7f7f7f;" x="325.044646" xlink:href="#m4c0d762589" y="183.707376"/>
     <use style="fill:#7f7f7f;stroke:#7f7f7f;" x="328.444229" xlink:href="#m4c0d762589" y="157.740236"/>
     <use style="fill:#7f7f7f;stroke:#7f7f7f;" x="275.962037" xlink:href="#m4c0d762589" y="166.679428"/>
     <use style="fill:#7f7f7f;stroke:#7f7f7f;" x="264.956645" xlink:href="#m4c0d762589" y="183.484869"/>
     <use style="fill:#7f7f7f;stroke:#7f7f7f;" x="277.749066" xlink:href="#m4c0d762589" y="204.198036"/>
     <use style="fill:#7f7f7f;stroke:#7f7f7f;" x="361.636442" xlink:href="#m4c0d762589" y="182.489453"/>
     <use style="fill:#7f7f7f;stroke:#7f7f7f;" x="372.168236" xlink:href="#m4c0d762589" y="200.652453"/>
    </g>
   </g>
   <g id="PathCollection_6">
    <defs>
     <path d="M 0 3 
C 0.795609 3 1.55874 2.683901 2.12132 2.12132 
C 2.683901 1.55874 3 0.795609 3 0 
C 3 -0.795609 2.683901 -1.55874 2.12132 -2.12132 
C 1.55874 -2.683901 0.795609 -3 0 -3 
C -0.795609 -3 -1.55874 -2.683901 -2.12132 -2.12132 
C -2.683901 -1.55874 -3 -0.795609 -3 0 
C -3 0.795609 -2.683901 1.55874 -2.12132 2.12132 
C -1.55874 2.683901 -0.795609 3 0 3 
z
" id="m6783ae00be" style="stroke:#bcbd22;"/>
    </defs>
    <g clip-path="url(#pa9837d9344)">
     <use style="fill:#bcbd22;stroke:#bcbd22;" x="458.352266" xlink:href="#m6783ae00be" y="115.685251"/>
     <use style="fill:#bcbd22;stroke:#bcbd22;" x="484.294415" xlink:href="#m6783ae00be" y="128.803925"/>
     <use style="fill:#bcbd22;stroke:#bcbd22;" x="483.936511" xlink:href="#m6783ae00be" y="101.218985"/>
     <use style="fill:#bcbd22;stroke:#bcbd22;" x="519.605974" xlink:href="#m6783ae00be" y="118.55751"/>
     <use style="fill:#bcbd22;stroke:#bcbd22;" x="551.745937" xlink:href="#m6783ae00be" y="112.599965"/>
     <use style="fill:#bcbd22;stroke:#bcbd22;" x="545.145142" xlink:href="#m6783ae00be" y="137.443764"/>
     <use style="fill:#bcbd22;stroke:#bcbd22;" x="546.310768" xlink:href="#m6783ae00be" y="211.514686"/>
     <use style="fill:#bcbd22;stroke:#bcbd22;" x="565.070506" xlink:href="#m6783ae00be" y="225.739387"/>
     <use style="fill:#bcbd22;stroke:#bcbd22;" x="467.321035" xlink:href="#m6783ae00be" y="221.546863"/>
     <use style="fill:#bcbd22;stroke:#bcbd22;" x="486.848427" xlink:href="#m6783ae00be" y="207.502912"/>
     <use style="fill:#bcbd22;stroke:#bcbd22;" x="507.363691" xlink:href="#m6783ae00be" y="151.677155"/>
     <use style="fill:#bcbd22;stroke:#bcbd22;" x="510.25781" xlink:href="#m6783ae00be" y="172.605824"/>
     <use style="fill:#bcbd22;stroke:#bcbd22;" x="588.453691" xlink:href="#m6783ae00be" y="175.269102"/>
     <use style="fill:#bcbd22;stroke:#bcbd22;" x="559.674149" xlink:href="#m6783ae00be" y="165.405205"/>
     <use style="fill:#bcbd22;stroke:#bcbd22;" x="592.918424" xlink:href="#m6783ae00be" y="138.921681"/>
     <use style="fill:#bcbd22;stroke:#bcbd22;" x="615.157273" xlink:href="#m6783ae00be" y="124.854643"/>
    </g>
   </g>
   <g id="PathCollection_7">
    <defs>
     <path d="M 0 3 
C 0.795609 3 1.55874 2.683901 2.12132 2.12132 
C 2.683901 1.55874 3 0.795609 3 0 
C 3 -0.795609 2.683901 -1.55874 2.12132 -2.12132 
C 1.55874 -2.683901 0.795609 -3 0 -3 
C -0.795609 -3 -1.55874 -2.683901 -2.12132 -2.12132 
C -2.683901 -1.55874 -3 -0.795609 -3 0 
C -3 0.795609 -2.683901 1.55874 -2.12132 2.12132 
C -1.55874 2.683901 -0.795609 3 0 3 
z
" id="me524aaf16e" style="stroke:#17becf;"/>
    </defs>
    <g clip-path="url(#pa9837d9344)">
     <use style="fill:#17becf;stroke:#17becf;" x="434.613551" xlink:href="#me524aaf16e" y="177.671314"/>
     <use style="fill:#17becf;stroke:#17becf;" x="440.244993" xlink:href="#me524aaf16e" y="160.79168"/>
    </g>
   </g>
   <g id="PathCollection_8">
    <g clip-path="url(#pa9837d9344)">
     <use style="fill:#1f77b4;stroke:#1f77b4;" x="241.692784" xlink:href="#m4bef37bc22" y="255.233106"/>
     <use style="fill:#1f77b4;stroke:#1f77b4;" x="277.319733" xlink:href="#m4bef37bc22" y="284.888389"/>
     <use style="fill:#1f77b4;stroke:#1f77b4;" x="288.756841" xlink:href="#m4bef37bc22" y="258.018885"/>
     <use style="fill:#1f77b4;stroke:#1f77b4;" x="233.074768" xlink:href="#m4bef37bc22" y="273.95654"/>
     <use style="fill:#1f77b4;stroke:#1f77b4;" x="320.481666" xlink:href="#m4bef37bc22" y="266.142347"/>
     <use style="fill:#1f77b4;stroke:#1f77b4;" x="303.593517" xlink:href="#m4bef37bc22" y="366.785835"/>
     <use style="fill:#1f77b4;stroke:#1f77b4;" x="306.421263" xlink:href="#m4bef37bc22" y="343.645689"/>
     <use style="fill:#1f77b4;stroke:#1f77b4;" x="340.59855" xlink:href="#m4bef37bc22" y="382.517865"/>
     <use style="fill:#1f77b4;stroke:#1f77b4;" x="371.531844" xlink:href="#m4bef37bc22" y="367.478628"/>
     <use style="fill:#1f77b4;stroke:#1f77b4;" x="340.256759" xlink:href="#m4bef37bc22" y="356.072912"/>
     <use style="fill:#1f77b4;stroke:#1f77b4;" x="141.817722" xlink:href="#m4bef37bc22" y="367.500202"/>
     <use style="fill:#1f77b4;stroke:#1f77b4;" x="140.40542" xlink:href="#m4bef37bc22" y="342.312591"/>
     <use style="fill:#1f77b4;stroke:#1f77b4;" x="185.082956" xlink:href="#m4bef37bc22" y="335.159623"/>
     <use style="fill:#1f77b4;stroke:#1f77b4;" x="173.24921" xlink:href="#m4bef37bc22" y="357.020637"/>
     <use style="fill:#1f77b4;stroke:#1f77b4;" x="231.654245" xlink:href="#m4bef37bc22" y="302.072511"/>
     <use style="fill:#1f77b4;stroke:#1f77b4;" x="201.804911" xlink:href="#m4bef37bc22" y="308.640762"/>
     <use style="fill:#1f77b4;stroke:#1f77b4;" x="219.529346" xlink:href="#m4bef37bc22" y="365.278074"/>
     <use style="fill:#1f77b4;stroke:#1f77b4;" x="312.056291" xlink:href="#m4bef37bc22" y="318.955663"/>
     <use style="fill:#1f77b4;stroke:#1f77b4;" x="342.277233" xlink:href="#m4bef37bc22" y="299.954614"/>
     <use style="fill:#1f77b4;stroke:#1f77b4;" x="272.635359" xlink:href="#m4bef37bc22" y="319.112282"/>
     <use style="fill:#1f77b4;stroke:#1f77b4;" x="266.541595" xlink:href="#m4bef37bc22" y="387.038182"/>
     <use style="fill:#1f77b4;stroke:#1f77b4;" x="355.111957" xlink:href="#m4bef37bc22" y="331.594994"/>
     <use style="fill:#1f77b4;stroke:#1f77b4;" x="151.017853" xlink:href="#m4bef37bc22" y="272.185242"/>
     <use style="fill:#1f77b4;stroke:#1f77b4;" x="178.795506" xlink:href="#m4bef37bc22" y="283.048627"/>
     <use style="fill:#1f77b4;stroke:#1f77b4;" x="261.856012" xlink:href="#m4bef37bc22" y="353.133445"/>
     <use style="fill:#1f77b4;stroke:#1f77b4;" x="238.881502" xlink:href="#m4bef37bc22" y="334.973882"/>
     <use style="fill:#1f77b4;stroke:#1f77b4;" x="150.593091" xlink:href="#m4bef37bc22" y="301.801213"/>
    </g>
   </g>
   <g id="matplotlib.axis_1">
    <g id="xtick_1">
     <g id="line2d_1">
      <defs>
       <path d="M 0 0 
L 0 3.5 
" id="m4824ae5666" style="stroke:#000000;stroke-width:0.8;"/>
      </defs>
      <g>
       <use style="stroke:#000000;stroke-width:0.8;" x="99.769212" xlink:href="#m4824ae5666" y="404.12"/>
      </g>
     </g>
     <g id="text_1">
      <!-- −60 -->
      <defs>
       <path d="M 10.59375 35.5 
L 73.1875 35.5 
L 73.1875 27.203125 
L 10.59375 27.203125 
z
" id="DejaVuSans-8722"/>
       <path d="M 33.015625 40.375 
Q 26.375 40.375 22.484375 35.828125 
Q 18.609375 31.296875 18.609375 23.390625 
Q 18.609375 15.53125 22.484375 10.953125 
Q 26.375 6.390625 33.015625 6.390625 
Q 39.65625 6.390625 43.53125 10.953125 
Q 47.40625 15.53125 47.40625 23.390625 
Q 47.40625 31.296875 43.53125 35.828125 
Q 39.65625 40.375 33.015625 40.375 
z
M 52.59375 71.296875 
L 52.59375 62.3125 
Q 48.875 64.0625 45.09375 64.984375 
Q 41.3125 65.921875 37.59375 65.921875 
Q 27.828125 65.921875 22.671875 59.328125 
Q 17.53125 52.734375 16.796875 39.40625 
Q 19.671875 43.65625 24.015625 45.921875 
Q 28.375 48.1875 33.59375 48.1875 
Q 44.578125 48.1875 50.953125 41.515625 
Q 57.328125 34.859375 57.328125 23.390625 
Q 57.328125 12.15625 50.6875 5.359375 
Q 44.046875 -1.421875 33.015625 -1.421875 
Q 20.359375 -1.421875 13.671875 8.265625 
Q 6.984375 17.96875 6.984375 36.375 
Q 6.984375 53.65625 15.1875 63.9375 
Q 23.390625 74.21875 37.203125 74.21875 
Q 40.921875 74.21875 44.703125 73.484375 
Q 48.484375 72.75 52.59375 71.296875 
z
" id="DejaVuSans-54"/>
       <path d="M 31.78125 66.40625 
Q 24.171875 66.40625 20.328125 58.90625 
Q 16.5 51.421875 16.5 36.375 
Q 16.5 21.390625 20.328125 13.890625 
Q 24.171875 6.390625 31.78125 6.390625 
Q 39.453125 6.390625 43.28125 13.890625 
Q 47.125 21.390625 47.125 36.375 
Q 47.125 51.421875 43.28125 58.90625 
Q 39.453125 66.40625 31.78125 66.40625 
z
M 31.78125 74.21875 
Q 44.046875 74.21875 50.515625 64.515625 
Q 56.984375 54.828125 56.984375 36.375 
Q 56.984375 17.96875 50.515625 8.265625 
Q 44.046875 -1.421875 31.78125 -1.421875 
Q 19.53125 -1.421875 13.0625 8.265625 
Q 6.59375 17.96875 6.59375 36.375 
Q 6.59375 54.828125 13.0625 64.515625 
Q 19.53125 74.21875 31.78125 74.21875 
z
" id="DejaVuSans-48"/>
      </defs>
      <g transform="translate(89.216868 418.718437)scale(0.1 -0.1)">
       <use xlink:href="#DejaVuSans-8722"/>
       <use x="83.789062" xlink:href="#DejaVuSans-54"/>
       <use x="147.412109" xlink:href="#DejaVuSans-48"/>
      </g>
     </g>
    </g>
    <g id="xtick_2">
     <g id="line2d_2">
      <g>
       <use style="stroke:#000000;stroke-width:0.8;" x="175.444583" xlink:href="#m4824ae5666" y="404.12"/>
      </g>
     </g>
     <g id="text_2">
      <!-- −40 -->
      <defs>
       <path d="M 37.796875 64.3125 
L 12.890625 25.390625 
L 37.796875 25.390625 
z
M 35.203125 72.90625 
L 47.609375 72.90625 
L 47.609375 25.390625 
L 58.015625 25.390625 
L 58.015625 17.1875 
L 47.609375 17.1875 
L 47.609375 0 
L 37.796875 0 
L 37.796875 17.1875 
L 4.890625 17.1875 
L 4.890625 26.703125 
z
" id="DejaVuSans-52"/>
      </defs>
      <g transform="translate(164.892239 418.718437)scale(0.1 -0.1)">
       <use xlink:href="#DejaVuSans-8722"/>
       <use x="83.789062" xlink:href="#DejaVuSans-52"/>
       <use x="147.412109" xlink:href="#DejaVuSans-48"/>
      </g>
     </g>
    </g>
    <g id="xtick_3">
     <g id="line2d_3">
      <g>
       <use style="stroke:#000000;stroke-width:0.8;" x="251.119953" xlink:href="#m4824ae5666" y="404.12"/>
      </g>
     </g>
     <g id="text_3">
      <!-- −20 -->
      <defs>
       <path d="M 19.1875 8.296875 
L 53.609375 8.296875 
L 53.609375 0 
L 7.328125 0 
L 7.328125 8.296875 
Q 12.9375 14.109375 22.625 23.890625 
Q 32.328125 33.6875 34.8125 36.53125 
Q 39.546875 41.84375 41.421875 45.53125 
Q 43.3125 49.21875 43.3125 52.78125 
Q 43.3125 58.59375 39.234375 62.25 
Q 35.15625 65.921875 28.609375 65.921875 
Q 23.96875 65.921875 18.8125 64.3125 
Q 13.671875 62.703125 7.8125 59.421875 
L 7.8125 69.390625 
Q 13.765625 71.78125 18.9375 73 
Q 24.125 74.21875 28.421875 74.21875 
Q 39.75 74.21875 46.484375 68.546875 
Q 53.21875 62.890625 53.21875 53.421875 
Q 53.21875 48.921875 51.53125 44.890625 
Q 49.859375 40.875 45.40625 35.40625 
Q 44.1875 33.984375 37.640625 27.21875 
Q 31.109375 20.453125 19.1875 8.296875 
z
" id="DejaVuSans-50"/>
      </defs>
      <g transform="translate(240.567609 418.718437)scale(0.1 -0.1)">
       <use xlink:href="#DejaVuSans-8722"/>
       <use x="83.789062" xlink:href="#DejaVuSans-50"/>
       <use x="147.412109" xlink:href="#DejaVuSans-48"/>
      </g>
     </g>
    </g>
    <g id="xtick_4">
     <g id="line2d_4">
      <g>
       <use style="stroke:#000000;stroke-width:0.8;" x="326.795324" xlink:href="#m4824ae5666" y="404.12"/>
      </g>
     </g>
     <g id="text_4">
      <!-- 0 -->
      <g transform="translate(323.614074 418.718437)scale(0.1 -0.1)">
       <use xlink:href="#DejaVuSans-48"/>
      </g>
     </g>
    </g>
    <g id="xtick_5">
     <g id="line2d_5">
      <g>
       <use style="stroke:#000000;stroke-width:0.8;" x="402.470694" xlink:href="#m4824ae5666" y="404.12"/>
      </g>
     </g>
     <g id="text_5">
      <!-- 20 -->
      <g transform="translate(396.108194 418.718437)scale(0.1 -0.1)">
       <use xlink:href="#DejaVuSans-50"/>
       <use x="63.623047" xlink:href="#DejaVuSans-48"/>
      </g>
     </g>
    </g>
    <g id="xtick_6">
     <g id="line2d_6">
      <g>
       <use style="stroke:#000000;stroke-width:0.8;" x="478.146065" xlink:href="#m4824ae5666" y="404.12"/>
      </g>
     </g>
     <g id="text_6">
      <!-- 40 -->
      <g transform="translate(471.783565 418.718437)scale(0.1 -0.1)">
       <use xlink:href="#DejaVuSans-52"/>
       <use x="63.623047" xlink:href="#DejaVuSans-48"/>
      </g>
     </g>
    </g>
    <g id="xtick_7">
     <g id="line2d_7">
      <g>
       <use style="stroke:#000000;stroke-width:0.8;" x="553.821436" xlink:href="#m4824ae5666" y="404.12"/>
      </g>
     </g>
     <g id="text_7">
      <!-- 60 -->
      <g transform="translate(547.458936 418.718437)scale(0.1 -0.1)">
       <use xlink:href="#DejaVuSans-54"/>
       <use x="63.623047" xlink:href="#DejaVuSans-48"/>
      </g>
     </g>
    </g>
    <g id="xtick_8">
     <g id="line2d_8">
      <g>
       <use style="stroke:#000000;stroke-width:0.8;" x="629.496806" xlink:href="#m4824ae5666" y="404.12"/>
      </g>
     </g>
     <g id="text_8">
      <!-- 80 -->
      <defs>
       <path d="M 31.78125 34.625 
Q 24.75 34.625 20.71875 30.859375 
Q 16.703125 27.09375 16.703125 20.515625 
Q 16.703125 13.921875 20.71875 10.15625 
Q 24.75 6.390625 31.78125 6.390625 
Q 38.8125 6.390625 42.859375 10.171875 
Q 46.921875 13.96875 46.921875 20.515625 
Q 46.921875 27.09375 42.890625 30.859375 
Q 38.875 34.625 31.78125 34.625 
z
M 21.921875 38.8125 
Q 15.578125 40.375 12.03125 44.71875 
Q 8.5 49.078125 8.5 55.328125 
Q 8.5 64.0625 14.71875 69.140625 
Q 20.953125 74.21875 31.78125 74.21875 
Q 42.671875 74.21875 48.875 69.140625 
Q 55.078125 64.0625 55.078125 55.328125 
Q 55.078125 49.078125 51.53125 44.71875 
Q 48 40.375 41.703125 38.8125 
Q 48.828125 37.15625 52.796875 32.3125 
Q 56.78125 27.484375 56.78125 20.515625 
Q 56.78125 9.90625 50.3125 4.234375 
Q 43.84375 -1.421875 31.78125 -1.421875 
Q 19.734375 -1.421875 13.25 4.234375 
Q 6.78125 9.90625 6.78125 20.515625 
Q 6.78125 27.484375 10.78125 32.3125 
Q 14.796875 37.15625 21.921875 38.8125 
z
M 18.3125 54.390625 
Q 18.3125 48.734375 21.84375 45.5625 
Q 25.390625 42.390625 31.78125 42.390625 
Q 38.140625 42.390625 41.71875 45.5625 
Q 45.3125 48.734375 45.3125 54.390625 
Q 45.3125 60.0625 41.71875 63.234375 
Q 38.140625 66.40625 31.78125 66.40625 
Q 25.390625 66.40625 21.84375 63.234375 
Q 18.3125 60.0625 18.3125 54.390625 
z
" id="DejaVuSans-56"/>
      </defs>
      <g transform="translate(623.134306 418.718437)scale(0.1 -0.1)">
       <use xlink:href="#DejaVuSans-56"/>
       <use x="63.623047" xlink:href="#DejaVuSans-48"/>
      </g>
     </g>
    </g>
   </g>
   <g id="matplotlib.axis_2">
    <g id="ytick_1">
     <g id="line2d_9">
      <defs>
       <path d="M 0 0 
L -3.5 0 
" id="m1b81f7b1b4" style="stroke:#000000;stroke-width:0.8;"/>
      </defs>
      <g>
       <use style="stroke:#000000;stroke-width:0.8;" x="38.86" xlink:href="#m1b81f7b1b4" y="364.411466"/>
      </g>
     </g>
     <g id="text_9">
      <!-- −60 -->
      <g transform="translate(10.755312 368.210684)scale(0.1 -0.1)">
       <use xlink:href="#DejaVuSans-8722"/>
       <use x="83.789062" xlink:href="#DejaVuSans-54"/>
       <use x="147.412109" xlink:href="#DejaVuSans-48"/>
      </g>
     </g>
    </g>
    <g id="ytick_2">
     <g id="line2d_10">
      <g>
       <use style="stroke:#000000;stroke-width:0.8;" x="38.86" xlink:href="#m1b81f7b1b4" y="317.184414"/>
      </g>
     </g>
     <g id="text_10">
      <!-- −40 -->
      <g transform="translate(10.755312 320.983633)scale(0.1 -0.1)">
       <use xlink:href="#DejaVuSans-8722"/>
       <use x="83.789062" xlink:href="#DejaVuSans-52"/>
       <use x="147.412109" xlink:href="#DejaVuSans-48"/>
      </g>
     </g>
    </g>
    <g id="ytick_3">
     <g id="line2d_11">
      <g>
       <use style="stroke:#000000;stroke-width:0.8;" x="38.86" xlink:href="#m1b81f7b1b4" y="269.957363"/>
      </g>
     </g>
     <g id="text_11">
      <!-- −20 -->
      <g transform="translate(10.755312 273.756582)scale(0.1 -0.1)">
       <use xlink:href="#DejaVuSans-8722"/>
       <use x="83.789062" xlink:href="#DejaVuSans-50"/>
       <use x="147.412109" xlink:href="#DejaVuSans-48"/>
      </g>
     </g>
    </g>
    <g id="ytick_4">
     <g id="line2d_12">
      <g>
       <use style="stroke:#000000;stroke-width:0.8;" x="38.86" xlink:href="#m1b81f7b1b4" y="222.730312"/>
      </g>
     </g>
     <g id="text_12">
      <!-- 0 -->
      <g transform="translate(25.4975 226.529531)scale(0.1 -0.1)">
       <use xlink:href="#DejaVuSans-48"/>
      </g>
     </g>
    </g>
    <g id="ytick_5">
     <g id="line2d_13">
      <g>
       <use style="stroke:#000000;stroke-width:0.8;" x="38.86" xlink:href="#m1b81f7b1b4" y="175.503261"/>
      </g>
     </g>
     <g id="text_13">
      <!-- 20 -->
      <g transform="translate(19.135 179.30248)scale(0.1 -0.1)">
       <use xlink:href="#DejaVuSans-50"/>
       <use x="63.623047" xlink:href="#DejaVuSans-48"/>
      </g>
     </g>
    </g>
    <g id="ytick_6">
     <g id="line2d_14">
      <g>
       <use style="stroke:#000000;stroke-width:0.8;" x="38.86" xlink:href="#m1b81f7b1b4" y="128.27621"/>
      </g>
     </g>
     <g id="text_14">
      <!-- 40 -->
      <g transform="translate(19.135 132.075428)scale(0.1 -0.1)">
       <use xlink:href="#DejaVuSans-52"/>
       <use x="63.623047" xlink:href="#DejaVuSans-48"/>
      </g>
     </g>
    </g>
    <g id="ytick_7">
     <g id="line2d_15">
      <g>
       <use style="stroke:#000000;stroke-width:0.8;" x="38.86" xlink:href="#m1b81f7b1b4" y="81.049158"/>
      </g>
     </g>
     <g id="text_15">
      <!-- 60 -->
      <g transform="translate(19.135 84.848377)scale(0.1 -0.1)">
       <use xlink:href="#DejaVuSans-54"/>
       <use x="63.623047" xlink:href="#DejaVuSans-48"/>
      </g>
     </g>
    </g>
    <g id="ytick_8">
     <g id="line2d_16">
      <g>
       <use style="stroke:#000000;stroke-width:0.8;" x="38.86" xlink:href="#m1b81f7b1b4" y="33.822107"/>
      </g>
     </g>
     <g id="text_16">
      <!-- 80 -->
      <g transform="translate(19.135 37.621326)scale(0.1 -0.1)">
       <use xlink:href="#DejaVuSans-56"/>
       <use x="63.623047" xlink:href="#DejaVuSans-48"/>
      </g>
     </g>
    </g>
   </g>
   <g id="patch_3">
    <path d="M 38.86 404.12 
L 38.86 28.32 
" style="fill:none;stroke:#000000;stroke-linecap:square;stroke-linejoin:miter;stroke-width:0.8;"/>
   </g>
   <g id="patch_4">
    <path d="M 642.6 404.12 
L 642.6 28.32 
" style="fill:none;stroke:#000000;stroke-linecap:square;stroke-linejoin:miter;stroke-width:0.8;"/>
   </g>
   <g id="patch_5">
    <path d="M 38.86 404.12 
L 642.6 404.12 
" style="fill:none;stroke:#000000;stroke-linecap:square;stroke-linejoin:miter;stroke-width:0.8;"/>
   </g>
   <g id="patch_6">
    <path d="M 38.86 28.32 
L 642.6 28.32 
" style="fill:none;stroke:#000000;stroke-linecap:square;stroke-linejoin:miter;stroke-width:0.8;"/>
   </g>
   <g id="text_17">
    <!-- tar_truth -->
    <defs>
     <path d="M 27.484375 70.21875 
L 27.484375 54.6875 
L 45.515625 54.6875 
L 45.515625 42.1875 
L 27.484375 42.1875 
L 27.484375 19 
Q 27.484375 15.1875 29 13.84375 
Q 30.515625 12.5 35.015625 12.5 
L 44 12.5 
L 44 0 
L 29 0 
Q 18.65625 0 14.328125 4.3125 
Q 10.015625 8.640625 10.015625 19 
L 10.015625 42.1875 
L 1.3125 42.1875 
L 1.3125 54.6875 
L 10.015625 54.6875 
L 10.015625 70.21875 
z
" id="DejaVuSans-Bold-116"/>
     <path d="M 32.90625 24.609375 
Q 27.4375 24.609375 24.671875 22.75 
Q 21.921875 20.90625 21.921875 17.28125 
Q 21.921875 13.96875 24.140625 12.078125 
Q 26.375 10.203125 30.328125 10.203125 
Q 35.25 10.203125 38.625 13.734375 
Q 42 17.28125 42 22.609375 
L 42 24.609375 
z
M 59.625 31.203125 
L 59.625 0 
L 42 0 
L 42 8.109375 
Q 38.484375 3.125 34.078125 0.84375 
Q 29.6875 -1.421875 23.390625 -1.421875 
Q 14.890625 -1.421875 9.59375 3.53125 
Q 4.296875 8.5 4.296875 16.40625 
Q 4.296875 26.03125 10.90625 30.515625 
Q 17.53125 35.015625 31.6875 35.015625 
L 42 35.015625 
L 42 36.375 
Q 42 40.53125 38.71875 42.453125 
Q 35.453125 44.390625 28.515625 44.390625 
Q 22.90625 44.390625 18.0625 43.265625 
Q 13.234375 42.140625 9.078125 39.890625 
L 9.078125 53.21875 
Q 14.703125 54.59375 20.359375 55.296875 
Q 26.03125 56 31.6875 56 
Q 46.484375 56 53.046875 50.171875 
Q 59.625 44.34375 59.625 31.203125 
z
" id="DejaVuSans-Bold-97"/>
     <path d="M 49.03125 39.796875 
Q 46.734375 40.875 44.453125 41.375 
Q 42.1875 41.890625 39.890625 41.890625 
Q 33.15625 41.890625 29.515625 37.5625 
Q 25.875 33.25 25.875 25.203125 
L 25.875 0 
L 8.40625 0 
L 8.40625 54.6875 
L 25.875 54.6875 
L 25.875 45.703125 
Q 29.25 51.078125 33.609375 53.53125 
Q 37.984375 56 44.09375 56 
Q 44.96875 56 45.984375 55.921875 
Q 47.015625 55.859375 48.96875 55.609375 
z
" id="DejaVuSans-Bold-114"/>
     <path d="M 50 -14.3125 
L 50 -23.578125 
L 0 -23.578125 
L 0 -14.3125 
z
" id="DejaVuSans-Bold-95"/>
     <path d="M 7.8125 21.296875 
L 7.8125 54.6875 
L 25.390625 54.6875 
L 25.390625 49.21875 
Q 25.390625 44.78125 25.34375 38.0625 
Q 25.296875 31.34375 25.296875 29.109375 
Q 25.296875 22.515625 25.640625 19.609375 
Q 25.984375 16.703125 26.8125 15.375 
Q 27.875 13.671875 29.609375 12.734375 
Q 31.34375 11.8125 33.59375 11.8125 
Q 39.0625 11.8125 42.1875 16.015625 
Q 45.3125 20.21875 45.3125 27.6875 
L 45.3125 54.6875 
L 62.796875 54.6875 
L 62.796875 0 
L 45.3125 0 
L 45.3125 7.90625 
Q 41.359375 3.125 36.9375 0.84375 
Q 32.515625 -1.421875 27.203125 -1.421875 
Q 17.71875 -1.421875 12.765625 4.390625 
Q 7.8125 10.203125 7.8125 21.296875 
z
" id="DejaVuSans-Bold-117"/>
     <path d="M 63.375 33.296875 
L 63.375 0 
L 45.796875 0 
L 45.796875 5.421875 
L 45.796875 25.390625 
Q 45.796875 32.5625 45.484375 35.25 
Q 45.171875 37.9375 44.390625 39.203125 
Q 43.359375 40.921875 41.59375 41.875 
Q 39.84375 42.828125 37.59375 42.828125 
Q 32.125 42.828125 29 38.59375 
Q 25.875 34.375 25.875 26.90625 
L 25.875 0 
L 8.40625 0 
L 8.40625 75.984375 
L 25.875 75.984375 
L 25.875 46.6875 
Q 29.828125 51.46875 34.265625 53.734375 
Q 38.71875 56 44.09375 56 
Q 53.5625 56 58.46875 50.1875 
Q 63.375 44.390625 63.375 33.296875 
z
" id="DejaVuSans-Bold-104"/>
    </defs>
    <g style="fill:#1f77b4;" transform="translate(300.58 22.32)scale(0.16 -0.16)">
     <use xlink:href="#DejaVuSans-Bold-116"/>
     <use x="47.802734" xlink:href="#DejaVuSans-Bold-97"/>
     <use x="115.283203" xlink:href="#DejaVuSans-Bold-114"/>
     <use x="164.599609" xlink:href="#DejaVuSans-Bold-95"/>
     <use x="214.599609" xlink:href="#DejaVuSans-Bold-116"/>
     <use x="262.402344" xlink:href="#DejaVuSans-Bold-114"/>
     <use x="311.71875" xlink:href="#DejaVuSans-Bold-117"/>
     <use x="382.910156" xlink:href="#DejaVuSans-Bold-116"/>
     <use x="430.712891" xlink:href="#DejaVuSans-Bold-104"/>
    </g>
   </g>
   <g id="legend_1">
    <g id="patch_7">
     <path d="M 45.86 153.745 
L 90.585 153.745 
Q 92.585 153.745 92.585 151.745 
L 92.585 35.32 
Q 92.585 33.32 90.585 33.32 
L 45.86 33.32 
Q 43.86 33.32 43.86 35.32 
L 43.86 151.745 
Q 43.86 153.745 45.86 153.745 
z
" style="fill:#ffffff;opacity:0.8;stroke:#cccccc;stroke-linejoin:miter;"/>
    </g>
    <g id="PathCollection_9">
     <g>
      <use style="fill:#1f77b4;stroke:#1f77b4;" x="57.86" xlink:href="#m4bef37bc22" y="42.293437"/>
     </g>
    </g>
    <g id="text_18">
     <!-- 0 -->
     <g transform="translate(75.86 44.918437)scale(0.1 -0.1)">
      <use xlink:href="#DejaVuSans-48"/>
     </g>
    </g>
    <g id="PathCollection_10">
     <g>
      <use style="fill:#2ca02c;stroke:#2ca02c;" x="57.86" xlink:href="#mcf7424bccd" y="56.971563"/>
     </g>
    </g>
    <g id="text_19">
     <!-- 2 -->
     <g transform="translate(75.86 59.596563)scale(0.1 -0.1)">
      <use xlink:href="#DejaVuSans-50"/>
     </g>
    </g>
    <g id="PathCollection_11">
     <g>
      <use style="fill:#d62728;stroke:#d62728;" x="57.86" xlink:href="#mc7938fabe6" y="71.649687"/>
     </g>
    </g>
    <g id="text_20">
     <!-- 3 -->
     <defs>
      <path d="M 40.578125 39.3125 
Q 47.65625 37.796875 51.625 33 
Q 55.609375 28.21875 55.609375 21.1875 
Q 55.609375 10.40625 48.1875 4.484375 
Q 40.765625 -1.421875 27.09375 -1.421875 
Q 22.515625 -1.421875 17.65625 -0.515625 
Q 12.796875 0.390625 7.625 2.203125 
L 7.625 11.71875 
Q 11.71875 9.328125 16.59375 8.109375 
Q 21.484375 6.890625 26.8125 6.890625 
Q 36.078125 6.890625 40.9375 10.546875 
Q 45.796875 14.203125 45.796875 21.1875 
Q 45.796875 27.640625 41.28125 31.265625 
Q 36.765625 34.90625 28.71875 34.90625 
L 20.21875 34.90625 
L 20.21875 43.015625 
L 29.109375 43.015625 
Q 36.375 43.015625 40.234375 45.921875 
Q 44.09375 48.828125 44.09375 54.296875 
Q 44.09375 59.90625 40.109375 62.90625 
Q 36.140625 65.921875 28.71875 65.921875 
Q 24.65625 65.921875 20.015625 65.03125 
Q 15.375 64.15625 9.8125 62.3125 
L 9.8125 71.09375 
Q 15.4375 72.65625 20.34375 73.4375 
Q 25.25 74.21875 29.59375 74.21875 
Q 40.828125 74.21875 47.359375 69.109375 
Q 53.90625 64.015625 53.90625 55.328125 
Q 53.90625 49.265625 50.4375 45.09375 
Q 46.96875 40.921875 40.578125 39.3125 
z
" id="DejaVuSans-51"/>
     </defs>
     <g transform="translate(75.86 74.274687)scale(0.1 -0.1)">
      <use xlink:href="#DejaVuSans-51"/>
     </g>
    </g>
    <g id="PathCollection_12">
     <g>
      <use style="fill:#e377c2;stroke:#e377c2;" x="57.86" xlink:href="#mfab8dd64e6" y="86.327812"/>
     </g>
    </g>
    <g id="text_21">
     <!-- 6 -->
     <g transform="translate(75.86 88.952812)scale(0.1 -0.1)">
      <use xlink:href="#DejaVuSans-54"/>
     </g>
    </g>
    <g id="PathCollection_13">
     <g>
      <use style="fill:#7f7f7f;stroke:#7f7f7f;" x="57.86" xlink:href="#m4c0d762589" y="101.005937"/>
     </g>
    </g>
    <g id="text_22">
     <!-- 7 -->
     <defs>
      <path d="M 8.203125 72.90625 
L 55.078125 72.90625 
L 55.078125 68.703125 
L 28.609375 0 
L 18.3125 0 
L 43.21875 64.59375 
L 8.203125 64.59375 
z
" id="DejaVuSans-55"/>
     </defs>
     <g transform="translate(75.86 103.630937)scale(0.1 -0.1)">
      <use xlink:href="#DejaVuSans-55"/>
     </g>
    </g>
    <g id="PathCollection_14">
     <g>
      <use style="fill:#bcbd22;stroke:#bcbd22;" x="57.86" xlink:href="#m6783ae00be" y="115.684062"/>
     </g>
    </g>
    <g id="text_23">
     <!-- 8 -->
     <g transform="translate(75.86 118.309062)scale(0.1 -0.1)">
      <use xlink:href="#DejaVuSans-56"/>
     </g>
    </g>
    <g id="PathCollection_15">
     <g>
      <use style="fill:#17becf;stroke:#17becf;" x="57.86" xlink:href="#me524aaf16e" y="130.362188"/>
     </g>
    </g>
    <g id="text_24">
     <!-- 9 -->
     <defs>
      <path d="M 10.984375 1.515625 
L 10.984375 10.5 
Q 14.703125 8.734375 18.5 7.8125 
Q 22.3125 6.890625 25.984375 6.890625 
Q 35.75 6.890625 40.890625 13.453125 
Q 46.046875 20.015625 46.78125 33.40625 
Q 43.953125 29.203125 39.59375 26.953125 
Q 35.25 24.703125 29.984375 24.703125 
Q 19.046875 24.703125 12.671875 31.3125 
Q 6.296875 37.9375 6.296875 49.421875 
Q 6.296875 60.640625 12.9375 67.421875 
Q 19.578125 74.21875 30.609375 74.21875 
Q 43.265625 74.21875 49.921875 64.515625 
Q 56.59375 54.828125 56.59375 36.375 
Q 56.59375 19.140625 48.40625 8.859375 
Q 40.234375 -1.421875 26.421875 -1.421875 
Q 22.703125 -1.421875 18.890625 -0.6875 
Q 15.09375 0.046875 10.984375 1.515625 
z
M 30.609375 32.421875 
Q 37.25 32.421875 41.125 36.953125 
Q 45.015625 41.5 45.015625 49.421875 
Q 45.015625 57.28125 41.125 61.84375 
Q 37.25 66.40625 30.609375 66.40625 
Q 23.96875 66.40625 20.09375 61.84375 
Q 16.21875 57.28125 16.21875 49.421875 
Q 16.21875 41.5 20.09375 36.953125 
Q 23.96875 32.421875 30.609375 32.421875 
z
" id="DejaVuSans-57"/>
     </defs>
     <g transform="translate(75.86 132.987188)scale(0.1 -0.1)">
      <use xlink:href="#DejaVuSans-57"/>
     </g>
    </g>
    <g id="PathCollection_16">
     <g>
      <use style="fill:#1f77b4;stroke:#1f77b4;" x="57.86" xlink:href="#m4bef37bc22" y="145.040312"/>
     </g>
    </g>
    <g id="text_25">
     <!-- 10 -->
     <defs>
      <path d="M 12.40625 8.296875 
L 28.515625 8.296875 
L 28.515625 63.921875 
L 10.984375 60.40625 
L 10.984375 69.390625 
L 28.421875 72.90625 
L 38.28125 72.90625 
L 38.28125 8.296875 
L 54.390625 8.296875 
L 54.390625 0 
L 12.40625 0 
z
" id="DejaVuSans-49"/>
     </defs>
     <g transform="translate(75.86 147.665312)scale(0.1 -0.1)">
      <use xlink:href="#DejaVuSans-49"/>
      <use x="63.623047" xlink:href="#DejaVuSans-48"/>
     </g>
    </g>
   </g>
  </g>
  <g id="axes_2">
   <g id="patch_8">
    <path d="M 681.46 404.12 
L 1285.2 404.12 
L 1285.2 28.32 
L 681.46 28.32 
z
" style="fill:#ffffff;"/>
   </g>
   <g id="PathCollection_17">
    <g clip-path="url(#p050bd30125)">
     <use style="fill:#1f77b4;stroke:#1f77b4;" x="1100.952266" xlink:href="#m4bef37bc22" y="115.685251"/>
     <use style="fill:#1f77b4;stroke:#1f77b4;" x="1126.894415" xlink:href="#m4bef37bc22" y="128.803925"/>
     <use style="fill:#1f77b4;stroke:#1f77b4;" x="1126.536511" xlink:href="#m4bef37bc22" y="101.218985"/>
     <use style="fill:#1f77b4;stroke:#1f77b4;" x="1162.205974" xlink:href="#m4bef37bc22" y="118.55751"/>
     <use style="fill:#1f77b4;stroke:#1f77b4;" x="1194.345937" xlink:href="#m4bef37bc22" y="112.599965"/>
     <use style="fill:#1f77b4;stroke:#1f77b4;" x="1187.745142" xlink:href="#m4bef37bc22" y="137.443764"/>
     <use style="fill:#1f77b4;stroke:#1f77b4;" x="1188.910768" xlink:href="#m4bef37bc22" y="211.514686"/>
     <use style="fill:#1f77b4;stroke:#1f77b4;" x="1207.670506" xlink:href="#m4bef37bc22" y="225.739387"/>
     <use style="fill:#1f77b4;stroke:#1f77b4;" x="1109.921035" xlink:href="#m4bef37bc22" y="221.546863"/>
     <use style="fill:#1f77b4;stroke:#1f77b4;" x="1129.448427" xlink:href="#m4bef37bc22" y="207.502912"/>
     <use style="fill:#1f77b4;stroke:#1f77b4;" x="1149.963691" xlink:href="#m4bef37bc22" y="151.677155"/>
     <use style="fill:#1f77b4;stroke:#1f77b4;" x="1152.85781" xlink:href="#m4bef37bc22" y="172.605824"/>
     <use style="fill:#1f77b4;stroke:#1f77b4;" x="1231.053691" xlink:href="#m4bef37bc22" y="175.269102"/>
     <use style="fill:#1f77b4;stroke:#1f77b4;" x="1202.274149" xlink:href="#m4bef37bc22" y="165.405205"/>
     <use style="fill:#1f77b4;stroke:#1f77b4;" x="1235.518424" xlink:href="#m4bef37bc22" y="138.921681"/>
     <use style="fill:#1f77b4;stroke:#1f77b4;" x="1257.757273" xlink:href="#m4bef37bc22" y="124.854643"/>
     <use style="fill:#1f77b4;stroke:#1f77b4;" x="1077.213551" xlink:href="#m4bef37bc22" y="177.671314"/>
     <use style="fill:#1f77b4;stroke:#1f77b4;" x="1082.844993" xlink:href="#m4bef37bc22" y="160.79168"/>
    </g>
   </g>
   <g id="PathCollection_18">
    <defs>
     <path d="M 0 3 
C 0.795609 3 1.55874 2.683901 2.12132 2.12132 
C 2.683901 1.55874 3 0.795609 3 0 
C 3 -0.795609 2.683901 -1.55874 2.12132 -2.12132 
C 1.55874 -2.683901 0.795609 -3 0 -3 
C -0.795609 -3 -1.55874 -2.683901 -2.12132 -2.12132 
C -2.683901 -1.55874 -3 -0.795609 -3 0 
C -3 0.795609 -2.683901 1.55874 -2.12132 2.12132 
C -1.55874 2.683901 -0.795609 3 0 3 
z
" id="m13b34b77e5" style="stroke:#ff7f0e;"/>
    </defs>
    <g clip-path="url(#p050bd30125)">
     <use style="fill:#ff7f0e;stroke:#ff7f0e;" x="884.292784" xlink:href="#m13b34b77e5" y="255.233106"/>
     <use style="fill:#ff7f0e;stroke:#ff7f0e;" x="919.919733" xlink:href="#m13b34b77e5" y="284.888389"/>
     <use style="fill:#ff7f0e;stroke:#ff7f0e;" x="931.356841" xlink:href="#m13b34b77e5" y="258.018885"/>
     <use style="fill:#ff7f0e;stroke:#ff7f0e;" x="875.674768" xlink:href="#m13b34b77e5" y="273.95654"/>
     <use style="fill:#ff7f0e;stroke:#ff7f0e;" x="963.081666" xlink:href="#m13b34b77e5" y="266.142347"/>
     <use style="fill:#ff7f0e;stroke:#ff7f0e;" x="946.193517" xlink:href="#m13b34b77e5" y="366.785835"/>
     <use style="fill:#ff7f0e;stroke:#ff7f0e;" x="949.021263" xlink:href="#m13b34b77e5" y="343.645689"/>
     <use style="fill:#ff7f0e;stroke:#ff7f0e;" x="983.19855" xlink:href="#m13b34b77e5" y="382.517865"/>
     <use style="fill:#ff7f0e;stroke:#ff7f0e;" x="1014.131844" xlink:href="#m13b34b77e5" y="367.478628"/>
     <use style="fill:#ff7f0e;stroke:#ff7f0e;" x="982.856759" xlink:href="#m13b34b77e5" y="356.072912"/>
     <use style="fill:#ff7f0e;stroke:#ff7f0e;" x="784.417722" xlink:href="#m13b34b77e5" y="367.500202"/>
     <use style="fill:#ff7f0e;stroke:#ff7f0e;" x="783.00542" xlink:href="#m13b34b77e5" y="342.312591"/>
     <use style="fill:#ff7f0e;stroke:#ff7f0e;" x="827.682956" xlink:href="#m13b34b77e5" y="335.159623"/>
     <use style="fill:#ff7f0e;stroke:#ff7f0e;" x="815.84921" xlink:href="#m13b34b77e5" y="357.020637"/>
     <use style="fill:#ff7f0e;stroke:#ff7f0e;" x="874.254245" xlink:href="#m13b34b77e5" y="302.072511"/>
     <use style="fill:#ff7f0e;stroke:#ff7f0e;" x="844.404911" xlink:href="#m13b34b77e5" y="308.640762"/>
     <use style="fill:#ff7f0e;stroke:#ff7f0e;" x="862.129346" xlink:href="#m13b34b77e5" y="365.278074"/>
     <use style="fill:#ff7f0e;stroke:#ff7f0e;" x="954.656291" xlink:href="#m13b34b77e5" y="318.955663"/>
     <use style="fill:#ff7f0e;stroke:#ff7f0e;" x="984.877233" xlink:href="#m13b34b77e5" y="299.954614"/>
     <use style="fill:#ff7f0e;stroke:#ff7f0e;" x="915.235359" xlink:href="#m13b34b77e5" y="319.112282"/>
     <use style="fill:#ff7f0e;stroke:#ff7f0e;" x="909.141595" xlink:href="#m13b34b77e5" y="387.038182"/>
     <use style="fill:#ff7f0e;stroke:#ff7f0e;" x="997.711957" xlink:href="#m13b34b77e5" y="331.594994"/>
     <use style="fill:#ff7f0e;stroke:#ff7f0e;" x="793.617853" xlink:href="#m13b34b77e5" y="272.185242"/>
     <use style="fill:#ff7f0e;stroke:#ff7f0e;" x="821.395506" xlink:href="#m13b34b77e5" y="283.048627"/>
     <use style="fill:#ff7f0e;stroke:#ff7f0e;" x="904.456012" xlink:href="#m13b34b77e5" y="353.133445"/>
     <use style="fill:#ff7f0e;stroke:#ff7f0e;" x="881.481502" xlink:href="#m13b34b77e5" y="334.973882"/>
     <use style="fill:#ff7f0e;stroke:#ff7f0e;" x="793.193091" xlink:href="#m13b34b77e5" y="301.801213"/>
    </g>
   </g>
   <g id="PathCollection_19">
    <g clip-path="url(#p050bd30125)">
     <use style="fill:#2ca02c;stroke:#2ca02c;" x="1046.282899" xlink:href="#mcf7424bccd" y="133.08366"/>
     <use style="fill:#2ca02c;stroke:#2ca02c;" x="1016.769793" xlink:href="#mcf7424bccd" y="143.581872"/>
     <use style="fill:#2ca02c;stroke:#2ca02c;" x="976.077903" xlink:href="#mcf7424bccd" y="53.399686"/>
     <use style="fill:#2ca02c;stroke:#2ca02c;" x="942.67884" xlink:href="#mcf7424bccd" y="65.066124"/>
     <use style="fill:#2ca02c;stroke:#2ca02c;" x="938.205813" xlink:href="#mcf7424bccd" y="45.401818"/>
     <use style="fill:#2ca02c;stroke:#2ca02c;" x="958.083445" xlink:href="#mcf7424bccd" y="102.776369"/>
     <use style="fill:#2ca02c;stroke:#2ca02c;" x="971.573565" xlink:href="#mcf7424bccd" y="119.331933"/>
     <use style="fill:#2ca02c;stroke:#2ca02c;" x="993.078742" xlink:href="#mcf7424bccd" y="94.6692"/>
     <use style="fill:#2ca02c;stroke:#2ca02c;" x="968.102382" xlink:href="#mcf7424bccd" y="204.84981"/>
     <use style="fill:#2ca02c;stroke:#2ca02c;" x="967.644646" xlink:href="#mcf7424bccd" y="183.707376"/>
     <use style="fill:#2ca02c;stroke:#2ca02c;" x="971.044229" xlink:href="#mcf7424bccd" y="157.740236"/>
     <use style="fill:#2ca02c;stroke:#2ca02c;" x="918.562037" xlink:href="#mcf7424bccd" y="166.679428"/>
     <use style="fill:#2ca02c;stroke:#2ca02c;" x="907.556645" xlink:href="#mcf7424bccd" y="183.484869"/>
     <use style="fill:#2ca02c;stroke:#2ca02c;" x="920.349066" xlink:href="#mcf7424bccd" y="204.198036"/>
     <use style="fill:#2ca02c;stroke:#2ca02c;" x="1004.236442" xlink:href="#mcf7424bccd" y="182.489453"/>
     <use style="fill:#2ca02c;stroke:#2ca02c;" x="1014.768236" xlink:href="#mcf7424bccd" y="200.652453"/>
    </g>
   </g>
   <g id="PathCollection_20">
    <g clip-path="url(#p050bd30125)">
     <use style="fill:#d62728;stroke:#d62728;" x="906.247083" xlink:href="#mc7938fabe6" y="132.01969"/>
     <use style="fill:#d62728;stroke:#d62728;" x="847.343053" xlink:href="#mc7938fabe6" y="107.789028"/>
     <use style="fill:#d62728;stroke:#d62728;" x="876.238636" xlink:href="#mc7938fabe6" y="107.511568"/>
     <use style="fill:#d62728;stroke:#d62728;" x="875.837301" xlink:href="#mc7938fabe6" y="137.237259"/>
     <use style="fill:#d62728;stroke:#d62728;" x="806.568813" xlink:href="#mc7938fabe6" y="143.5236"/>
     <use style="fill:#d62728;stroke:#d62728;" x="827.789435" xlink:href="#mc7938fabe6" y="156.789494"/>
     <use style="fill:#d62728;stroke:#d62728;" x="729.36271" xlink:href="#mc7938fabe6" y="166.363879"/>
     <use style="fill:#d62728;stroke:#d62728;" x="737.631548" xlink:href="#mc7938fabe6" y="228.111421"/>
     <use style="fill:#d62728;stroke:#d62728;" x="708.902727" xlink:href="#mc7938fabe6" y="213.875179"/>
     <use style="fill:#d62728;stroke:#d62728;" x="761.465202" xlink:href="#mc7938fabe6" y="207.552791"/>
     <use style="fill:#d62728;stroke:#d62728;" x="763.575991" xlink:href="#mc7938fabe6" y="177.790213"/>
     <use style="fill:#d62728;stroke:#d62728;" x="734.579205" xlink:href="#mc7938fabe6" y="187.246158"/>
     <use style="fill:#d62728;stroke:#d62728;" x="809.434815" xlink:href="#mc7938fabe6" y="202.109251"/>
     <use style="fill:#d62728;stroke:#d62728;" x="843.951757" xlink:href="#mc7938fabe6" y="198.174282"/>
     <use style="fill:#d62728;stroke:#d62728;" x="824.490719" xlink:href="#mc7938fabe6" y="219.731809"/>
    </g>
   </g>
   <g id="matplotlib.axis_3">
    <g id="xtick_9">
     <g id="line2d_17">
      <g>
       <use style="stroke:#000000;stroke-width:0.8;" x="742.369212" xlink:href="#m4824ae5666" y="404.12"/>
      </g>
     </g>
     <g id="text_26">
      <!-- −60 -->
      <g transform="translate(731.816868 418.718437)scale(0.1 -0.1)">
       <use xlink:href="#DejaVuSans-8722"/>
       <use x="83.789062" xlink:href="#DejaVuSans-54"/>
       <use x="147.412109" xlink:href="#DejaVuSans-48"/>
      </g>
     </g>
    </g>
    <g id="xtick_10">
     <g id="line2d_18">
      <g>
       <use style="stroke:#000000;stroke-width:0.8;" x="818.044583" xlink:href="#m4824ae5666" y="404.12"/>
      </g>
     </g>
     <g id="text_27">
      <!-- −40 -->
      <g transform="translate(807.492239 418.718437)scale(0.1 -0.1)">
       <use xlink:href="#DejaVuSans-8722"/>
       <use x="83.789062" xlink:href="#DejaVuSans-52"/>
       <use x="147.412109" xlink:href="#DejaVuSans-48"/>
      </g>
     </g>
    </g>
    <g id="xtick_11">
     <g id="line2d_19">
      <g>
       <use style="stroke:#000000;stroke-width:0.8;" x="893.719953" xlink:href="#m4824ae5666" y="404.12"/>
      </g>
     </g>
     <g id="text_28">
      <!-- −20 -->
      <g transform="translate(883.167609 418.718437)scale(0.1 -0.1)">
       <use xlink:href="#DejaVuSans-8722"/>
       <use x="83.789062" xlink:href="#DejaVuSans-50"/>
       <use x="147.412109" xlink:href="#DejaVuSans-48"/>
      </g>
     </g>
    </g>
    <g id="xtick_12">
     <g id="line2d_20">
      <g>
       <use style="stroke:#000000;stroke-width:0.8;" x="969.395324" xlink:href="#m4824ae5666" y="404.12"/>
      </g>
     </g>
     <g id="text_29">
      <!-- 0 -->
      <g transform="translate(966.214074 418.718437)scale(0.1 -0.1)">
       <use xlink:href="#DejaVuSans-48"/>
      </g>
     </g>
    </g>
    <g id="xtick_13">
     <g id="line2d_21">
      <g>
       <use style="stroke:#000000;stroke-width:0.8;" x="1045.070694" xlink:href="#m4824ae5666" y="404.12"/>
      </g>
     </g>
     <g id="text_30">
      <!-- 20 -->
      <g transform="translate(1038.708194 418.718437)scale(0.1 -0.1)">
       <use xlink:href="#DejaVuSans-50"/>
       <use x="63.623047" xlink:href="#DejaVuSans-48"/>
      </g>
     </g>
    </g>
    <g id="xtick_14">
     <g id="line2d_22">
      <g>
       <use style="stroke:#000000;stroke-width:0.8;" x="1120.746065" xlink:href="#m4824ae5666" y="404.12"/>
      </g>
     </g>
     <g id="text_31">
      <!-- 40 -->
      <g transform="translate(1114.383565 418.718437)scale(0.1 -0.1)">
       <use xlink:href="#DejaVuSans-52"/>
       <use x="63.623047" xlink:href="#DejaVuSans-48"/>
      </g>
     </g>
    </g>
    <g id="xtick_15">
     <g id="line2d_23">
      <g>
       <use style="stroke:#000000;stroke-width:0.8;" x="1196.421436" xlink:href="#m4824ae5666" y="404.12"/>
      </g>
     </g>
     <g id="text_32">
      <!-- 60 -->
      <g transform="translate(1190.058936 418.718437)scale(0.1 -0.1)">
       <use xlink:href="#DejaVuSans-54"/>
       <use x="63.623047" xlink:href="#DejaVuSans-48"/>
      </g>
     </g>
    </g>
    <g id="xtick_16">
     <g id="line2d_24">
      <g>
       <use style="stroke:#000000;stroke-width:0.8;" x="1272.096806" xlink:href="#m4824ae5666" y="404.12"/>
      </g>
     </g>
     <g id="text_33">
      <!-- 80 -->
      <g transform="translate(1265.734306 418.718437)scale(0.1 -0.1)">
       <use xlink:href="#DejaVuSans-56"/>
       <use x="63.623047" xlink:href="#DejaVuSans-48"/>
      </g>
     </g>
    </g>
   </g>
   <g id="matplotlib.axis_4">
    <g id="ytick_9">
     <g id="line2d_25">
      <g>
       <use style="stroke:#000000;stroke-width:0.8;" x="681.46" xlink:href="#m1b81f7b1b4" y="364.411466"/>
      </g>
     </g>
     <g id="text_34">
      <!-- −60 -->
      <g transform="translate(653.355312 368.210684)scale(0.1 -0.1)">
       <use xlink:href="#DejaVuSans-8722"/>
       <use x="83.789062" xlink:href="#DejaVuSans-54"/>
       <use x="147.412109" xlink:href="#DejaVuSans-48"/>
      </g>
     </g>
    </g>
    <g id="ytick_10">
     <g id="line2d_26">
      <g>
       <use style="stroke:#000000;stroke-width:0.8;" x="681.46" xlink:href="#m1b81f7b1b4" y="317.184414"/>
      </g>
     </g>
     <g id="text_35">
      <!-- −40 -->
      <g transform="translate(653.355312 320.983633)scale(0.1 -0.1)">
       <use xlink:href="#DejaVuSans-8722"/>
       <use x="83.789062" xlink:href="#DejaVuSans-52"/>
       <use x="147.412109" xlink:href="#DejaVuSans-48"/>
      </g>
     </g>
    </g>
    <g id="ytick_11">
     <g id="line2d_27">
      <g>
       <use style="stroke:#000000;stroke-width:0.8;" x="681.46" xlink:href="#m1b81f7b1b4" y="269.957363"/>
      </g>
     </g>
     <g id="text_36">
      <!-- −20 -->
      <g transform="translate(653.355312 273.756582)scale(0.1 -0.1)">
       <use xlink:href="#DejaVuSans-8722"/>
       <use x="83.789062" xlink:href="#DejaVuSans-50"/>
       <use x="147.412109" xlink:href="#DejaVuSans-48"/>
      </g>
     </g>
    </g>
    <g id="ytick_12">
     <g id="line2d_28">
      <g>
       <use style="stroke:#000000;stroke-width:0.8;" x="681.46" xlink:href="#m1b81f7b1b4" y="222.730312"/>
      </g>
     </g>
     <g id="text_37">
      <!-- 0 -->
      <g transform="translate(668.0975 226.529531)scale(0.1 -0.1)">
       <use xlink:href="#DejaVuSans-48"/>
      </g>
     </g>
    </g>
    <g id="ytick_13">
     <g id="line2d_29">
      <g>
       <use style="stroke:#000000;stroke-width:0.8;" x="681.46" xlink:href="#m1b81f7b1b4" y="175.503261"/>
      </g>
     </g>
     <g id="text_38">
      <!-- 20 -->
      <g transform="translate(661.735 179.30248)scale(0.1 -0.1)">
       <use xlink:href="#DejaVuSans-50"/>
       <use x="63.623047" xlink:href="#DejaVuSans-48"/>
      </g>
     </g>
    </g>
    <g id="ytick_14">
     <g id="line2d_30">
      <g>
       <use style="stroke:#000000;stroke-width:0.8;" x="681.46" xlink:href="#m1b81f7b1b4" y="128.27621"/>
      </g>
     </g>
     <g id="text_39">
      <!-- 40 -->
      <g transform="translate(661.735 132.075428)scale(0.1 -0.1)">
       <use xlink:href="#DejaVuSans-52"/>
       <use x="63.623047" xlink:href="#DejaVuSans-48"/>
      </g>
     </g>
    </g>
    <g id="ytick_15">
     <g id="line2d_31">
      <g>
       <use style="stroke:#000000;stroke-width:0.8;" x="681.46" xlink:href="#m1b81f7b1b4" y="81.049158"/>
      </g>
     </g>
     <g id="text_40">
      <!-- 60 -->
      <g transform="translate(661.735 84.848377)scale(0.1 -0.1)">
       <use xlink:href="#DejaVuSans-54"/>
       <use x="63.623047" xlink:href="#DejaVuSans-48"/>
      </g>
     </g>
    </g>
    <g id="ytick_16">
     <g id="line2d_32">
      <g>
       <use style="stroke:#000000;stroke-width:0.8;" x="681.46" xlink:href="#m1b81f7b1b4" y="33.822107"/>
      </g>
     </g>
     <g id="text_41">
      <!-- 80 -->
      <g transform="translate(661.735 37.621326)scale(0.1 -0.1)">
       <use xlink:href="#DejaVuSans-56"/>
       <use x="63.623047" xlink:href="#DejaVuSans-48"/>
      </g>
     </g>
    </g>
   </g>
   <g id="patch_9">
    <path d="M 681.46 404.12 
L 681.46 28.32 
" style="fill:none;stroke:#000000;stroke-linecap:square;stroke-linejoin:miter;stroke-width:0.8;"/>
   </g>
   <g id="patch_10">
    <path d="M 1285.2 404.12 
L 1285.2 28.32 
" style="fill:none;stroke:#000000;stroke-linecap:square;stroke-linejoin:miter;stroke-width:0.8;"/>
   </g>
   <g id="patch_11">
    <path d="M 681.46 404.12 
L 1285.2 404.12 
" style="fill:none;stroke:#000000;stroke-linecap:square;stroke-linejoin:miter;stroke-width:0.8;"/>
   </g>
   <g id="patch_12">
    <path d="M 681.46 28.32 
L 1285.2 28.32 
" style="fill:none;stroke:#000000;stroke-linecap:square;stroke-linejoin:miter;stroke-width:0.8;"/>
   </g>
   <g id="text_42">
    <!-- tar_cos -->
    <defs>
     <path d="M 52.59375 52.984375 
L 52.59375 38.71875 
Q 49.03125 41.15625 45.4375 42.328125 
Q 41.84375 43.5 37.984375 43.5 
Q 30.671875 43.5 26.59375 39.234375 
Q 22.515625 34.96875 22.515625 27.296875 
Q 22.515625 19.625 26.59375 15.34375 
Q 30.671875 11.078125 37.984375 11.078125 
Q 42.09375 11.078125 45.78125 12.296875 
Q 49.46875 13.53125 52.59375 15.921875 
L 52.59375 1.609375 
Q 48.484375 0.09375 44.265625 -0.65625 
Q 40.046875 -1.421875 35.796875 -1.421875 
Q 21 -1.421875 12.640625 6.171875 
Q 4.296875 13.765625 4.296875 27.296875 
Q 4.296875 40.828125 12.640625 48.40625 
Q 21 56 35.796875 56 
Q 40.09375 56 44.265625 55.25 
Q 48.4375 54.5 52.59375 52.984375 
z
" id="DejaVuSans-Bold-99"/>
     <path d="M 34.421875 43.5 
Q 28.609375 43.5 25.5625 39.328125 
Q 22.515625 35.15625 22.515625 27.296875 
Q 22.515625 19.4375 25.5625 15.25 
Q 28.609375 11.078125 34.421875 11.078125 
Q 40.140625 11.078125 43.15625 15.25 
Q 46.1875 19.4375 46.1875 27.296875 
Q 46.1875 35.15625 43.15625 39.328125 
Q 40.140625 43.5 34.421875 43.5 
z
M 34.421875 56 
Q 48.53125 56 56.46875 48.375 
Q 64.40625 40.765625 64.40625 27.296875 
Q 64.40625 13.8125 56.46875 6.1875 
Q 48.53125 -1.421875 34.421875 -1.421875 
Q 20.265625 -1.421875 12.28125 6.1875 
Q 4.296875 13.8125 4.296875 27.296875 
Q 4.296875 40.765625 12.28125 48.375 
Q 20.265625 56 34.421875 56 
z
" id="DejaVuSans-Bold-111"/>
     <path d="M 51.125 52.984375 
L 51.125 39.703125 
Q 45.515625 42.046875 40.28125 43.21875 
Q 35.0625 44.390625 30.421875 44.390625 
Q 25.4375 44.390625 23.015625 43.140625 
Q 20.609375 41.890625 20.609375 39.3125 
Q 20.609375 37.203125 22.4375 36.078125 
Q 24.265625 34.96875 29 34.421875 
L 32.078125 33.984375 
Q 45.515625 32.28125 50.140625 28.375 
Q 54.78125 24.46875 54.78125 16.109375 
Q 54.78125 7.375 48.328125 2.96875 
Q 41.890625 -1.421875 29.109375 -1.421875 
Q 23.6875 -1.421875 17.890625 -0.5625 
Q 12.109375 0.296875 6 2 
L 6 15.28125 
Q 11.234375 12.75 16.71875 11.46875 
Q 22.21875 10.203125 27.875 10.203125 
Q 33.015625 10.203125 35.59375 11.609375 
Q 38.1875 13.03125 38.1875 15.828125 
Q 38.1875 18.171875 36.40625 19.3125 
Q 34.625 20.453125 29.296875 21.09375 
L 26.21875 21.484375 
Q 14.546875 22.953125 9.859375 26.90625 
Q 5.171875 30.859375 5.171875 38.921875 
Q 5.171875 47.609375 11.125 51.796875 
Q 17.09375 56 29.390625 56 
Q 34.234375 56 39.546875 55.265625 
Q 44.875 54.546875 51.125 52.984375 
z
" id="DejaVuSans-Bold-115"/>
    </defs>
    <g style="fill:#1f77b4;" transform="translate(951.1625 22.32)scale(0.16 -0.16)">
     <use xlink:href="#DejaVuSans-Bold-116"/>
     <use x="47.802734" xlink:href="#DejaVuSans-Bold-97"/>
     <use x="115.283203" xlink:href="#DejaVuSans-Bold-114"/>
     <use x="164.599609" xlink:href="#DejaVuSans-Bold-95"/>
     <use x="214.599609" xlink:href="#DejaVuSans-Bold-99"/>
     <use x="273.876953" xlink:href="#DejaVuSans-Bold-111"/>
     <use x="342.578125" xlink:href="#DejaVuSans-Bold-115"/>
    </g>
   </g>
   <g id="legend_2">
    <g id="patch_13">
     <path d="M 1239.8375 95.0325 
L 1278.2 95.0325 
Q 1280.2 95.0325 1280.2 93.0325 
L 1280.2 35.32 
Q 1280.2 33.32 1278.2 33.32 
L 1239.8375 33.32 
Q 1237.8375 33.32 1237.8375 35.32 
L 1237.8375 93.0325 
Q 1237.8375 95.0325 1239.8375 95.0325 
z
" style="fill:#ffffff;opacity:0.8;stroke:#cccccc;stroke-linejoin:miter;"/>
    </g>
    <g id="PathCollection_21">
     <g>
      <use style="fill:#1f77b4;stroke:#1f77b4;" x="1251.8375" xlink:href="#m4bef37bc22" y="42.293438"/>
     </g>
    </g>
    <g id="text_43">
     <!-- 0 -->
     <g transform="translate(1269.8375 44.918438)scale(0.1 -0.1)">
      <use xlink:href="#DejaVuSans-48"/>
     </g>
    </g>
    <g id="PathCollection_22">
     <g>
      <use style="fill:#ff7f0e;stroke:#ff7f0e;" x="1251.8375" xlink:href="#m13b34b77e5" y="56.971563"/>
     </g>
    </g>
    <g id="text_44">
     <!-- 1 -->
     <g transform="translate(1269.8375 59.596563)scale(0.1 -0.1)">
      <use xlink:href="#DejaVuSans-49"/>
     </g>
    </g>
    <g id="PathCollection_23">
     <g>
      <use style="fill:#2ca02c;stroke:#2ca02c;" x="1251.8375" xlink:href="#mcf7424bccd" y="71.649688"/>
     </g>
    </g>
    <g id="text_45">
     <!-- 2 -->
     <g transform="translate(1269.8375 74.274688)scale(0.1 -0.1)">
      <use xlink:href="#DejaVuSans-50"/>
     </g>
    </g>
    <g id="PathCollection_24">
     <g>
      <use style="fill:#d62728;stroke:#d62728;" x="1251.8375" xlink:href="#mc7938fabe6" y="86.327813"/>
     </g>
    </g>
    <g id="text_46">
     <!-- 3 -->
     <g transform="translate(1269.8375 88.952813)scale(0.1 -0.1)">
      <use xlink:href="#DejaVuSans-51"/>
     </g>
    </g>
   </g>
  </g>
 </g>
 <defs>
  <clipPath id="pa9837d9344">
   <rect height="375.8" width="603.74" x="38.86" y="28.32"/>
  </clipPath>
  <clipPath id="p050bd30125">
   <rect height="375.8" width="603.74" x="681.46" y="28.32"/>
  </clipPath>
 </defs>
</svg>
