<?xml version="1.0" encoding="utf-8" standalone="no"?>
<!DOCTYPE svg PUBLIC "-//W3C//DTD SVG 1.1//EN"
  "http://www.w3.org/Graphics/SVG/1.1/DTD/svg11.dtd">
<!-- Created with matplotlib (https://matplotlib.org/) -->
<svg height="432pt" version="1.1" viewBox="0 0 1296 432" width="1296pt" xmlns="http://www.w3.org/2000/svg" xmlns:xlink="http://www.w3.org/1999/xlink">
 <defs>
  <style type="text/css">
*{stroke-linecap:butt;stroke-linejoin:round;}
  </style>
 </defs>
 <g id="figure_1">
  <g id="patch_1">
   <path d="M 0 432 
L 1296 432 
L 1296 0 
L 0 0 
z
" style="fill:#ffffff;"/>
  </g>
  <g id="axes_1">
   <g id="patch_2">
    <path d="M 45.16 404.12 
L 642.6 404.12 
L 642.6 28.32 
L 45.16 28.32 
z
" style="fill:#ffffff;"/>
   </g>
   <g id="PathCollection_1">
    <defs>
     <path d="M 0 3 
C 0.795609 3 1.55874 2.683901 2.12132 2.12132 
C 2.683901 1.55874 3 0.795609 3 0 
C 3 -0.795609 2.683901 -1.55874 2.12132 -2.12132 
C 1.55874 -2.683901 0.795609 -3 0 -3 
C -0.795609 -3 -1.55874 -2.683901 -2.12132 -2.12132 
C -2.683901 -1.55874 -3 -0.795609 -3 0 
C -3 0.795609 -2.683901 1.55874 -2.12132 2.12132 
C -1.55874 2.683901 -0.795609 3 0 3 
z
" id="m83bb49da96" style="stroke:#1f77b4;"/>
    </defs>
    <g clip-path="url(#pd082d6ee5c)">
     <use style="fill:#1f77b4;stroke:#1f77b4;" x="420.680164" xlink:href="#m83bb49da96" y="329.408263"/>
     <use style="fill:#1f77b4;stroke:#1f77b4;" x="443.005426" xlink:href="#m83bb49da96" y="357.199513"/>
     <use style="fill:#1f77b4;stroke:#1f77b4;" x="445.744284" xlink:href="#m83bb49da96" y="367.16619"/>
     <use style="fill:#1f77b4;stroke:#1f77b4;" x="481.0352" xlink:href="#m83bb49da96" y="332.614536"/>
     <use style="fill:#1f77b4;stroke:#1f77b4;" x="481.092308" xlink:href="#m83bb49da96" y="306.019895"/>
     <use style="fill:#1f77b4;stroke:#1f77b4;" x="504.855365" xlink:href="#m83bb49da96" y="282.942837"/>
     <use style="fill:#1f77b4;stroke:#1f77b4;" x="439.57259" xlink:href="#m83bb49da96" y="255.379214"/>
     <use style="fill:#1f77b4;stroke:#1f77b4;" x="519.036818" xlink:href="#m83bb49da96" y="306.704335"/>
    </g>
   </g>
   <g id="PathCollection_2">
    <defs>
     <path d="M 0 3 
C 0.795609 3 1.55874 2.683901 2.12132 2.12132 
C 2.683901 1.55874 3 0.795609 3 0 
C 3 -0.795609 2.683901 -1.55874 2.12132 -2.12132 
C 1.55874 -2.683901 0.795609 -3 0 -3 
C -0.795609 -3 -1.55874 -2.683901 -2.12132 -2.12132 
C -2.683901 -1.55874 -3 -0.795609 -3 0 
C -3 0.795609 -2.683901 1.55874 -2.12132 2.12132 
C -1.55874 2.683901 -0.795609 3 0 3 
z
" id="m8833e2f4a1" style="stroke:#ff7f0e;"/>
    </defs>
    <g clip-path="url(#pd082d6ee5c)">
     <use style="fill:#ff7f0e;stroke:#ff7f0e;" x="452.545858" xlink:href="#m8833e2f4a1" y="281.779035"/>
     <use style="fill:#ff7f0e;stroke:#ff7f0e;" x="494.4366" xlink:href="#m8833e2f4a1" y="242.836657"/>
     <use style="fill:#ff7f0e;stroke:#ff7f0e;" x="575.370959" xlink:href="#m8833e2f4a1" y="284.086092"/>
     <use style="fill:#ff7f0e;stroke:#ff7f0e;" x="479.461041" xlink:href="#m8833e2f4a1" y="265.348585"/>
    </g>
   </g>
   <g id="PathCollection_3">
    <defs>
     <path d="M 0 3 
C 0.795609 3 1.55874 2.683901 2.12132 2.12132 
C 2.683901 1.55874 3 0.795609 3 0 
C 3 -0.795609 2.683901 -1.55874 2.12132 -2.12132 
C 1.55874 -2.683901 0.795609 -3 0 -3 
C -0.795609 -3 -1.55874 -2.683901 -2.12132 -2.12132 
C -2.683901 -1.55874 -3 -0.795609 -3 0 
C -3 0.795609 -2.683901 1.55874 -2.12132 2.12132 
C -1.55874 2.683901 -0.795609 3 0 3 
z
" id="m7c5550feef" style="stroke:#2ca02c;"/>
    </defs>
    <g clip-path="url(#pd082d6ee5c)">
     <use style="fill:#2ca02c;stroke:#2ca02c;" x="598.035005" xlink:href="#m7c5550feef" y="380.041278"/>
     <use style="fill:#2ca02c;stroke:#2ca02c;" x="615.443636" xlink:href="#m7c5550feef" y="327.720361"/>
     <use style="fill:#2ca02c;stroke:#2ca02c;" x="571.350236" xlink:href="#m7c5550feef" y="347.986299"/>
     <use style="fill:#2ca02c;stroke:#2ca02c;" x="541.777808" xlink:href="#m7c5550feef" y="336.42095"/>
     <use style="fill:#2ca02c;stroke:#2ca02c;" x="533.611099" xlink:href="#m7c5550feef" y="364.445564"/>
    </g>
   </g>
   <g id="PathCollection_4">
    <defs>
     <path d="M 0 3 
C 0.795609 3 1.55874 2.683901 2.12132 2.12132 
C 2.683901 1.55874 3 0.795609 3 0 
C 3 -0.795609 2.683901 -1.55874 2.12132 -2.12132 
C 1.55874 -2.683901 0.795609 -3 0 -3 
C -0.795609 -3 -1.55874 -2.683901 -2.12132 -2.12132 
C -2.683901 -1.55874 -3 -0.795609 -3 0 
C -3 0.795609 -2.683901 1.55874 -2.12132 2.12132 
C -1.55874 2.683901 -0.795609 3 0 3 
z
" id="m7602645ec6" style="stroke:#d62728;"/>
    </defs>
    <g clip-path="url(#pd082d6ee5c)">
     <use style="fill:#d62728;stroke:#d62728;" x="308.572843" xlink:href="#m7602645ec6" y="178.176396"/>
     <use style="fill:#d62728;stroke:#d62728;" x="341.7584" xlink:href="#m7602645ec6" y="187.143892"/>
     <use style="fill:#d62728;stroke:#d62728;" x="361.334313" xlink:href="#m7602645ec6" y="217.38861"/>
     <use style="fill:#d62728;stroke:#d62728;" x="388.586454" xlink:href="#m7602645ec6" y="220.339474"/>
    </g>
   </g>
   <g id="PathCollection_5">
    <defs>
     <path d="M 0 3 
C 0.795609 3 1.55874 2.683901 2.12132 2.12132 
C 2.683901 1.55874 3 0.795609 3 0 
C 3 -0.795609 2.683901 -1.55874 2.12132 -2.12132 
C 1.55874 -2.683901 0.795609 -3 0 -3 
C -0.795609 -3 -1.55874 -2.683901 -2.12132 -2.12132 
C -2.683901 -1.55874 -3 -0.795609 -3 0 
C -3 0.795609 -2.683901 1.55874 -2.12132 2.12132 
C -1.55874 2.683901 -0.795609 3 0 3 
z
" id="m2dae2f25a6" style="stroke:#e377c2;"/>
    </defs>
    <g clip-path="url(#pd082d6ee5c)">
     <use style="fill:#e377c2;stroke:#e377c2;" x="338.835357" xlink:href="#m2dae2f25a6" y="288.746655"/>
     <use style="fill:#e377c2;stroke:#e377c2;" x="356.484147" xlink:href="#m2dae2f25a6" y="303.545322"/>
     <use style="fill:#e377c2;stroke:#e377c2;" x="378.373144" xlink:href="#m2dae2f25a6" y="275.586151"/>
     <use style="fill:#e377c2;stroke:#e377c2;" x="545.455387" xlink:href="#m2dae2f25a6" y="257.499315"/>
     <use style="fill:#e377c2;stroke:#e377c2;" x="553.737207" xlink:href="#m2dae2f25a6" y="230.894248"/>
     <use style="fill:#e377c2;stroke:#e377c2;" x="584.45758" xlink:href="#m2dae2f25a6" y="238.363099"/>
     <use style="fill:#e377c2;stroke:#e377c2;" x="568.2183" xlink:href="#m2dae2f25a6" y="208.421241"/>
     <use style="fill:#e377c2;stroke:#e377c2;" x="296.413124" xlink:href="#m2dae2f25a6" y="303.450837"/>
     <use style="fill:#e377c2;stroke:#e377c2;" x="329.007639" xlink:href="#m2dae2f25a6" y="330.137128"/>
     <use style="fill:#e377c2;stroke:#e377c2;" x="290.424714" xlink:href="#m2dae2f25a6" y="324.388116"/>
    </g>
   </g>
   <g id="PathCollection_6">
    <defs>
     <path d="M 0 3 
C 0.795609 3 1.55874 2.683901 2.12132 2.12132 
C 2.683901 1.55874 3 0.795609 3 0 
C 3 -0.795609 2.683901 -1.55874 2.12132 -2.12132 
C 1.55874 -2.683901 0.795609 -3 0 -3 
C -0.795609 -3 -1.55874 -2.683901 -2.12132 -2.12132 
C -2.683901 -1.55874 -3 -0.795609 -3 0 
C -3 0.795609 -2.683901 1.55874 -2.12132 2.12132 
C -1.55874 2.683901 -0.795609 3 0 3 
z
" id="ma3d2f4f0ae" style="stroke:#7f7f7f;"/>
    </defs>
    <g clip-path="url(#pd082d6ee5c)">
     <use style="fill:#7f7f7f;stroke:#7f7f7f;" x="151.293783" xlink:href="#ma3d2f4f0ae" y="255.666506"/>
     <use style="fill:#7f7f7f;stroke:#7f7f7f;" x="113.86599" xlink:href="#ma3d2f4f0ae" y="264.216519"/>
     <use style="fill:#7f7f7f;stroke:#7f7f7f;" x="138.026995" xlink:href="#ma3d2f4f0ae" y="282.806397"/>
     <use style="fill:#7f7f7f;stroke:#7f7f7f;" x="91.097242" xlink:href="#ma3d2f4f0ae" y="241.509865"/>
     <use style="fill:#7f7f7f;stroke:#7f7f7f;" x="126.62874" xlink:href="#ma3d2f4f0ae" y="232.819661"/>
     <use style="fill:#7f7f7f;stroke:#7f7f7f;" x="183.639449" xlink:href="#ma3d2f4f0ae" y="299.996099"/>
     <use style="fill:#7f7f7f;stroke:#7f7f7f;" x="203.812497" xlink:href="#ma3d2f4f0ae" y="281.742773"/>
     <use style="fill:#7f7f7f;stroke:#7f7f7f;" x="204.135615" xlink:href="#ma3d2f4f0ae" y="242.64382"/>
     <use style="fill:#7f7f7f;stroke:#7f7f7f;" x="207.16259" xlink:href="#ma3d2f4f0ae" y="318.550979"/>
     <use style="fill:#7f7f7f;stroke:#7f7f7f;" x="201.033217" xlink:href="#ma3d2f4f0ae" y="256.397898"/>
     <use style="fill:#7f7f7f;stroke:#7f7f7f;" x="310.764258" xlink:href="#ma3d2f4f0ae" y="238.91196"/>
     <use style="fill:#7f7f7f;stroke:#7f7f7f;" x="285.301139" xlink:href="#ma3d2f4f0ae" y="253.388221"/>
     <use style="fill:#7f7f7f;stroke:#7f7f7f;" x="270.940605" xlink:href="#ma3d2f4f0ae" y="272.62118"/>
     <use style="fill:#7f7f7f;stroke:#7f7f7f;" x="98.92362" xlink:href="#ma3d2f4f0ae" y="319.327271"/>
     <use style="fill:#7f7f7f;stroke:#7f7f7f;" x="72.316364" xlink:href="#ma3d2f4f0ae" y="308.22266"/>
     <use style="fill:#7f7f7f;stroke:#7f7f7f;" x="156.718897" xlink:href="#ma3d2f4f0ae" y="193.303859"/>
     <use style="fill:#7f7f7f;stroke:#7f7f7f;" x="260.23052" xlink:href="#ma3d2f4f0ae" y="233.210091"/>
     <use style="fill:#7f7f7f;stroke:#7f7f7f;" x="249.9529" xlink:href="#ma3d2f4f0ae" y="213.586192"/>
    </g>
   </g>
   <g id="PathCollection_7">
    <defs>
     <path d="M 0 3 
C 0.795609 3 1.55874 2.683901 2.12132 2.12132 
C 2.683901 1.55874 3 0.795609 3 0 
C 3 -0.795609 2.683901 -1.55874 2.12132 -2.12132 
C 1.55874 -2.683901 0.795609 -3 0 -3 
C -0.795609 -3 -1.55874 -2.683901 -2.12132 -2.12132 
C -2.683901 -1.55874 -3 -0.795609 -3 0 
C -3 0.795609 -2.683901 1.55874 -2.12132 2.12132 
C -1.55874 2.683901 -0.795609 3 0 3 
z
" id="m036d40b8a9" style="stroke:#bcbd22;"/>
    </defs>
    <g clip-path="url(#pd082d6ee5c)">
     <use style="fill:#bcbd22;stroke:#bcbd22;" x="416.331248" xlink:href="#m036d40b8a9" y="45.401818"/>
     <use style="fill:#bcbd22;stroke:#bcbd22;" x="407.27176" xlink:href="#m036d40b8a9" y="66.311065"/>
     <use style="fill:#bcbd22;stroke:#bcbd22;" x="378.172866" xlink:href="#m036d40b8a9" y="50.726151"/>
     <use style="fill:#bcbd22;stroke:#bcbd22;" x="371.048115" xlink:href="#m036d40b8a9" y="84.258103"/>
     <use style="fill:#bcbd22;stroke:#bcbd22;" x="336.668846" xlink:href="#m036d40b8a9" y="76.286829"/>
     <use style="fill:#bcbd22;stroke:#bcbd22;" x="380.169199" xlink:href="#m036d40b8a9" y="106.904632"/>
     <use style="fill:#bcbd22;stroke:#bcbd22;" x="338.018056" xlink:href="#m036d40b8a9" y="104.513546"/>
     <use style="fill:#bcbd22;stroke:#bcbd22;" x="254.730146" xlink:href="#m036d40b8a9" y="119.196917"/>
     <use style="fill:#bcbd22;stroke:#bcbd22;" x="262.875362" xlink:href="#m036d40b8a9" y="99.646517"/>
     <use style="fill:#bcbd22;stroke:#bcbd22;" x="539.299376" xlink:href="#m036d40b8a9" y="104.270587"/>
     <use style="fill:#bcbd22;stroke:#bcbd22;" x="510.022617" xlink:href="#m036d40b8a9" y="98.761524"/>
     <use style="fill:#bcbd22;stroke:#bcbd22;" x="326.319583" xlink:href="#m036d40b8a9" y="128.228366"/>
     <use style="fill:#bcbd22;stroke:#bcbd22;" x="453.12923" xlink:href="#m036d40b8a9" y="80.513559"/>
     <use style="fill:#bcbd22;stroke:#bcbd22;" x="444.681068" xlink:href="#m036d40b8a9" y="101.667895"/>
     <use style="fill:#bcbd22;stroke:#bcbd22;" x="448.110529" xlink:href="#m036d40b8a9" y="147.032742"/>
     <use style="fill:#bcbd22;stroke:#bcbd22;" x="483.28112" xlink:href="#m036d40b8a9" y="147.215347"/>
     <use style="fill:#bcbd22;stroke:#bcbd22;" x="421.654034" xlink:href="#m036d40b8a9" y="133.101177"/>
     <use style="fill:#bcbd22;stroke:#bcbd22;" x="367.851372" xlink:href="#m036d40b8a9" y="139.275707"/>
     <use style="fill:#bcbd22;stroke:#bcbd22;" x="393.83056" xlink:href="#m036d40b8a9" y="155.754977"/>
    </g>
   </g>
   <g id="PathCollection_8">
    <defs>
     <path d="M 0 3 
C 0.795609 3 1.55874 2.683901 2.12132 2.12132 
C 2.683901 1.55874 3 0.795609 3 0 
C 3 -0.795609 2.683901 -1.55874 2.12132 -2.12132 
C 1.55874 -2.683901 0.795609 -3 0 -3 
C -0.795609 -3 -1.55874 -2.683901 -2.12132 -2.12132 
C -2.683901 -1.55874 -3 -0.795609 -3 0 
C -3 0.795609 -2.683901 1.55874 -2.12132 2.12132 
C -1.55874 2.683901 -0.795609 3 0 3 
z
" id="m68a9e1b330" style="stroke:#17becf;"/>
    </defs>
    <g clip-path="url(#pd082d6ee5c)">
     <use style="fill:#17becf;stroke:#17becf;" x="461.532213" xlink:href="#m68a9e1b330" y="189.838572"/>
     <use style="fill:#17becf;stroke:#17becf;" x="446.726319" xlink:href="#m68a9e1b330" y="205.922313"/>
     <use style="fill:#17becf;stroke:#17becf;" x="353.697136" xlink:href="#m68a9e1b330" y="372.263325"/>
     <use style="fill:#17becf;stroke:#17becf;" x="335.052096" xlink:href="#m68a9e1b330" y="387.038182"/>
    </g>
   </g>
   <g id="matplotlib.axis_1">
    <g id="xtick_1">
     <g id="line2d_1">
      <defs>
       <path d="M 0 0 
L 0 3.5 
" id="md2fb93a85a" style="stroke:#000000;stroke-width:0.8;"/>
      </defs>
      <g>
       <use style="stroke:#000000;stroke-width:0.8;" x="136.056831" xlink:href="#md2fb93a85a" y="404.12"/>
      </g>
     </g>
     <g id="text_1">
      <!-- −100 -->
      <defs>
       <path d="M 10.59375 35.5 
L 73.1875 35.5 
L 73.1875 27.203125 
L 10.59375 27.203125 
z
" id="DejaVuSans-8722"/>
       <path d="M 12.40625 8.296875 
L 28.515625 8.296875 
L 28.515625 63.921875 
L 10.984375 60.40625 
L 10.984375 69.390625 
L 28.421875 72.90625 
L 38.28125 72.90625 
L 38.28125 8.296875 
L 54.390625 8.296875 
L 54.390625 0 
L 12.40625 0 
z
" id="DejaVuSans-49"/>
       <path d="M 31.78125 66.40625 
Q 24.171875 66.40625 20.328125 58.90625 
Q 16.5 51.421875 16.5 36.375 
Q 16.5 21.390625 20.328125 13.890625 
Q 24.171875 6.390625 31.78125 6.390625 
Q 39.453125 6.390625 43.28125 13.890625 
Q 47.125 21.390625 47.125 36.375 
Q 47.125 51.421875 43.28125 58.90625 
Q 39.453125 66.40625 31.78125 66.40625 
z
M 31.78125 74.21875 
Q 44.046875 74.21875 50.515625 64.515625 
Q 56.984375 54.828125 56.984375 36.375 
Q 56.984375 17.96875 50.515625 8.265625 
Q 44.046875 -1.421875 31.78125 -1.421875 
Q 19.53125 -1.421875 13.0625 8.265625 
Q 6.59375 17.96875 6.59375 36.375 
Q 6.59375 54.828125 13.0625 64.515625 
Q 19.53125 74.21875 31.78125 74.21875 
z
" id="DejaVuSans-48"/>
      </defs>
      <g transform="translate(122.323237 418.718437)scale(0.1 -0.1)">
       <use xlink:href="#DejaVuSans-8722"/>
       <use x="83.789062" xlink:href="#DejaVuSans-49"/>
       <use x="147.412109" xlink:href="#DejaVuSans-48"/>
       <use x="211.035156" xlink:href="#DejaVuSans-48"/>
      </g>
     </g>
    </g>
    <g id="xtick_2">
     <g id="line2d_2">
      <g>
       <use style="stroke:#000000;stroke-width:0.8;" x="249.193985" xlink:href="#md2fb93a85a" y="404.12"/>
      </g>
     </g>
     <g id="text_2">
      <!-- −50 -->
      <defs>
       <path d="M 10.796875 72.90625 
L 49.515625 72.90625 
L 49.515625 64.59375 
L 19.828125 64.59375 
L 19.828125 46.734375 
Q 21.96875 47.46875 24.109375 47.828125 
Q 26.265625 48.1875 28.421875 48.1875 
Q 40.625 48.1875 47.75 41.5 
Q 54.890625 34.8125 54.890625 23.390625 
Q 54.890625 11.625 47.5625 5.09375 
Q 40.234375 -1.421875 26.90625 -1.421875 
Q 22.3125 -1.421875 17.546875 -0.640625 
Q 12.796875 0.140625 7.71875 1.703125 
L 7.71875 11.625 
Q 12.109375 9.234375 16.796875 8.0625 
Q 21.484375 6.890625 26.703125 6.890625 
Q 35.15625 6.890625 40.078125 11.328125 
Q 45.015625 15.765625 45.015625 23.390625 
Q 45.015625 31 40.078125 35.4375 
Q 35.15625 39.890625 26.703125 39.890625 
Q 22.75 39.890625 18.8125 39.015625 
Q 14.890625 38.140625 10.796875 36.28125 
z
" id="DejaVuSans-53"/>
      </defs>
      <g transform="translate(238.641641 418.718437)scale(0.1 -0.1)">
       <use xlink:href="#DejaVuSans-8722"/>
       <use x="83.789062" xlink:href="#DejaVuSans-53"/>
       <use x="147.412109" xlink:href="#DejaVuSans-48"/>
      </g>
     </g>
    </g>
    <g id="xtick_3">
     <g id="line2d_3">
      <g>
       <use style="stroke:#000000;stroke-width:0.8;" x="362.331139" xlink:href="#md2fb93a85a" y="404.12"/>
      </g>
     </g>
     <g id="text_3">
      <!-- 0 -->
      <g transform="translate(359.149889 418.718437)scale(0.1 -0.1)">
       <use xlink:href="#DejaVuSans-48"/>
      </g>
     </g>
    </g>
    <g id="xtick_4">
     <g id="line2d_4">
      <g>
       <use style="stroke:#000000;stroke-width:0.8;" x="475.468293" xlink:href="#md2fb93a85a" y="404.12"/>
      </g>
     </g>
     <g id="text_4">
      <!-- 50 -->
      <g transform="translate(469.105793 418.718437)scale(0.1 -0.1)">
       <use xlink:href="#DejaVuSans-53"/>
       <use x="63.623047" xlink:href="#DejaVuSans-48"/>
      </g>
     </g>
    </g>
    <g id="xtick_5">
     <g id="line2d_5">
      <g>
       <use style="stroke:#000000;stroke-width:0.8;" x="588.605448" xlink:href="#md2fb93a85a" y="404.12"/>
      </g>
     </g>
     <g id="text_5">
      <!-- 100 -->
      <g transform="translate(579.061698 418.718437)scale(0.1 -0.1)">
       <use xlink:href="#DejaVuSans-49"/>
       <use x="63.623047" xlink:href="#DejaVuSans-48"/>
       <use x="127.246094" xlink:href="#DejaVuSans-48"/>
      </g>
     </g>
    </g>
   </g>
   <g id="matplotlib.axis_2">
    <g id="ytick_1">
     <g id="line2d_6">
      <defs>
       <path d="M 0 0 
L -3.5 0 
" id="mda42368870" style="stroke:#000000;stroke-width:0.8;"/>
      </defs>
      <g>
       <use style="stroke:#000000;stroke-width:0.8;" x="45.16" xlink:href="#mda42368870" y="370.981984"/>
      </g>
     </g>
     <g id="text_6">
      <!-- −100 -->
      <g transform="translate(10.692813 374.781203)scale(0.1 -0.1)">
       <use xlink:href="#DejaVuSans-8722"/>
       <use x="83.789062" xlink:href="#DejaVuSans-49"/>
       <use x="147.412109" xlink:href="#DejaVuSans-48"/>
       <use x="211.035156" xlink:href="#DejaVuSans-48"/>
      </g>
     </g>
    </g>
    <g id="ytick_2">
     <g id="line2d_7">
      <g>
       <use style="stroke:#000000;stroke-width:0.8;" x="45.16" xlink:href="#mda42368870" y="297.098962"/>
      </g>
     </g>
     <g id="text_7">
      <!-- −50 -->
      <g transform="translate(17.055313 300.89818)scale(0.1 -0.1)">
       <use xlink:href="#DejaVuSans-8722"/>
       <use x="83.789062" xlink:href="#DejaVuSans-53"/>
       <use x="147.412109" xlink:href="#DejaVuSans-48"/>
      </g>
     </g>
    </g>
    <g id="ytick_3">
     <g id="line2d_8">
      <g>
       <use style="stroke:#000000;stroke-width:0.8;" x="45.16" xlink:href="#mda42368870" y="223.21594"/>
      </g>
     </g>
     <g id="text_8">
      <!-- 0 -->
      <g transform="translate(31.7975 227.015158)scale(0.1 -0.1)">
       <use xlink:href="#DejaVuSans-48"/>
      </g>
     </g>
    </g>
    <g id="ytick_4">
     <g id="line2d_9">
      <g>
       <use style="stroke:#000000;stroke-width:0.8;" x="45.16" xlink:href="#mda42368870" y="149.332917"/>
      </g>
     </g>
     <g id="text_9">
      <!-- 50 -->
      <g transform="translate(25.435 153.132136)scale(0.1 -0.1)">
       <use xlink:href="#DejaVuSans-53"/>
       <use x="63.623047" xlink:href="#DejaVuSans-48"/>
      </g>
     </g>
    </g>
    <g id="ytick_5">
     <g id="line2d_10">
      <g>
       <use style="stroke:#000000;stroke-width:0.8;" x="45.16" xlink:href="#mda42368870" y="75.449895"/>
      </g>
     </g>
     <g id="text_10">
      <!-- 100 -->
      <g transform="translate(19.0725 79.249114)scale(0.1 -0.1)">
       <use xlink:href="#DejaVuSans-49"/>
       <use x="63.623047" xlink:href="#DejaVuSans-48"/>
       <use x="127.246094" xlink:href="#DejaVuSans-48"/>
      </g>
     </g>
    </g>
   </g>
   <g id="patch_3">
    <path d="M 45.16 404.12 
L 45.16 28.32 
" style="fill:none;stroke:#000000;stroke-linecap:square;stroke-linejoin:miter;stroke-width:0.8;"/>
   </g>
   <g id="patch_4">
    <path d="M 642.6 404.12 
L 642.6 28.32 
" style="fill:none;stroke:#000000;stroke-linecap:square;stroke-linejoin:miter;stroke-width:0.8;"/>
   </g>
   <g id="patch_5">
    <path d="M 45.16 404.12 
L 642.6 404.12 
" style="fill:none;stroke:#000000;stroke-linecap:square;stroke-linejoin:miter;stroke-width:0.8;"/>
   </g>
   <g id="patch_6">
    <path d="M 45.16 28.32 
L 642.6 28.32 
" style="fill:none;stroke:#000000;stroke-linecap:square;stroke-linejoin:miter;stroke-width:0.8;"/>
   </g>
   <g id="text_11">
    <!-- tar_truth -->
    <defs>
     <path d="M 27.484375 70.21875 
L 27.484375 54.6875 
L 45.515625 54.6875 
L 45.515625 42.1875 
L 27.484375 42.1875 
L 27.484375 19 
Q 27.484375 15.1875 29 13.84375 
Q 30.515625 12.5 35.015625 12.5 
L 44 12.5 
L 44 0 
L 29 0 
Q 18.65625 0 14.328125 4.3125 
Q 10.015625 8.640625 10.015625 19 
L 10.015625 42.1875 
L 1.3125 42.1875 
L 1.3125 54.6875 
L 10.015625 54.6875 
L 10.015625 70.21875 
z
" id="DejaVuSans-Bold-116"/>
     <path d="M 32.90625 24.609375 
Q 27.4375 24.609375 24.671875 22.75 
Q 21.921875 20.90625 21.921875 17.28125 
Q 21.921875 13.96875 24.140625 12.078125 
Q 26.375 10.203125 30.328125 10.203125 
Q 35.25 10.203125 38.625 13.734375 
Q 42 17.28125 42 22.609375 
L 42 24.609375 
z
M 59.625 31.203125 
L 59.625 0 
L 42 0 
L 42 8.109375 
Q 38.484375 3.125 34.078125 0.84375 
Q 29.6875 -1.421875 23.390625 -1.421875 
Q 14.890625 -1.421875 9.59375 3.53125 
Q 4.296875 8.5 4.296875 16.40625 
Q 4.296875 26.03125 10.90625 30.515625 
Q 17.53125 35.015625 31.6875 35.015625 
L 42 35.015625 
L 42 36.375 
Q 42 40.53125 38.71875 42.453125 
Q 35.453125 44.390625 28.515625 44.390625 
Q 22.90625 44.390625 18.0625 43.265625 
Q 13.234375 42.140625 9.078125 39.890625 
L 9.078125 53.21875 
Q 14.703125 54.59375 20.359375 55.296875 
Q 26.03125 56 31.6875 56 
Q 46.484375 56 53.046875 50.171875 
Q 59.625 44.34375 59.625 31.203125 
z
" id="DejaVuSans-Bold-97"/>
     <path d="M 49.03125 39.796875 
Q 46.734375 40.875 44.453125 41.375 
Q 42.1875 41.890625 39.890625 41.890625 
Q 33.15625 41.890625 29.515625 37.5625 
Q 25.875 33.25 25.875 25.203125 
L 25.875 0 
L 8.40625 0 
L 8.40625 54.6875 
L 25.875 54.6875 
L 25.875 45.703125 
Q 29.25 51.078125 33.609375 53.53125 
Q 37.984375 56 44.09375 56 
Q 44.96875 56 45.984375 55.921875 
Q 47.015625 55.859375 48.96875 55.609375 
z
" id="DejaVuSans-Bold-114"/>
     <path d="M 50 -14.3125 
L 50 -23.578125 
L 0 -23.578125 
L 0 -14.3125 
z
" id="DejaVuSans-Bold-95"/>
     <path d="M 7.8125 21.296875 
L 7.8125 54.6875 
L 25.390625 54.6875 
L 25.390625 49.21875 
Q 25.390625 44.78125 25.34375 38.0625 
Q 25.296875 31.34375 25.296875 29.109375 
Q 25.296875 22.515625 25.640625 19.609375 
Q 25.984375 16.703125 26.8125 15.375 
Q 27.875 13.671875 29.609375 12.734375 
Q 31.34375 11.8125 33.59375 11.8125 
Q 39.0625 11.8125 42.1875 16.015625 
Q 45.3125 20.21875 45.3125 27.6875 
L 45.3125 54.6875 
L 62.796875 54.6875 
L 62.796875 0 
L 45.3125 0 
L 45.3125 7.90625 
Q 41.359375 3.125 36.9375 0.84375 
Q 32.515625 -1.421875 27.203125 -1.421875 
Q 17.71875 -1.421875 12.765625 4.390625 
Q 7.8125 10.203125 7.8125 21.296875 
z
" id="DejaVuSans-Bold-117"/>
     <path d="M 63.375 33.296875 
L 63.375 0 
L 45.796875 0 
L 45.796875 5.421875 
L 45.796875 25.390625 
Q 45.796875 32.5625 45.484375 35.25 
Q 45.171875 37.9375 44.390625 39.203125 
Q 43.359375 40.921875 41.59375 41.875 
Q 39.84375 42.828125 37.59375 42.828125 
Q 32.125 42.828125 29 38.59375 
Q 25.875 34.375 25.875 26.90625 
L 25.875 0 
L 8.40625 0 
L 8.40625 75.984375 
L 25.875 75.984375 
L 25.875 46.6875 
Q 29.828125 51.46875 34.265625 53.734375 
Q 38.71875 56 44.09375 56 
Q 53.5625 56 58.46875 50.1875 
Q 63.375 44.390625 63.375 33.296875 
z
" id="DejaVuSans-Bold-104"/>
    </defs>
    <g style="fill:#1f77b4;" transform="translate(303.73 22.32)scale(0.16 -0.16)">
     <use xlink:href="#DejaVuSans-Bold-116"/>
     <use x="47.802734" xlink:href="#DejaVuSans-Bold-97"/>
     <use x="115.283203" xlink:href="#DejaVuSans-Bold-114"/>
     <use x="164.599609" xlink:href="#DejaVuSans-Bold-95"/>
     <use x="214.599609" xlink:href="#DejaVuSans-Bold-116"/>
     <use x="262.402344" xlink:href="#DejaVuSans-Bold-114"/>
     <use x="311.71875" xlink:href="#DejaVuSans-Bold-117"/>
     <use x="382.910156" xlink:href="#DejaVuSans-Bold-116"/>
     <use x="430.712891" xlink:href="#DejaVuSans-Bold-104"/>
    </g>
   </g>
   <g id="legend_1">
    <g id="patch_7">
     <path d="M 597.2375 153.745 
L 635.6 153.745 
Q 637.6 153.745 637.6 151.745 
L 637.6 35.32 
Q 637.6 33.32 635.6 33.32 
L 597.2375 33.32 
Q 595.2375 33.32 595.2375 35.32 
L 595.2375 151.745 
Q 595.2375 153.745 597.2375 153.745 
z
" style="fill:#ffffff;opacity:0.8;stroke:#cccccc;stroke-linejoin:miter;"/>
    </g>
    <g id="PathCollection_9">
     <g>
      <use style="fill:#1f77b4;stroke:#1f77b4;" x="609.2375" xlink:href="#m83bb49da96" y="42.293437"/>
     </g>
    </g>
    <g id="text_12">
     <!-- 0 -->
     <g transform="translate(627.2375 44.918437)scale(0.1 -0.1)">
      <use xlink:href="#DejaVuSans-48"/>
     </g>
    </g>
    <g id="PathCollection_10">
     <g>
      <use style="fill:#ff7f0e;stroke:#ff7f0e;" x="609.2375" xlink:href="#m8833e2f4a1" y="56.971563"/>
     </g>
    </g>
    <g id="text_13">
     <!-- 1 -->
     <g transform="translate(627.2375 59.596563)scale(0.1 -0.1)">
      <use xlink:href="#DejaVuSans-49"/>
     </g>
    </g>
    <g id="PathCollection_11">
     <g>
      <use style="fill:#2ca02c;stroke:#2ca02c;" x="609.2375" xlink:href="#m7c5550feef" y="71.649687"/>
     </g>
    </g>
    <g id="text_14">
     <!-- 2 -->
     <defs>
      <path d="M 19.1875 8.296875 
L 53.609375 8.296875 
L 53.609375 0 
L 7.328125 0 
L 7.328125 8.296875 
Q 12.9375 14.109375 22.625 23.890625 
Q 32.328125 33.6875 34.8125 36.53125 
Q 39.546875 41.84375 41.421875 45.53125 
Q 43.3125 49.21875 43.3125 52.78125 
Q 43.3125 58.59375 39.234375 62.25 
Q 35.15625 65.921875 28.609375 65.921875 
Q 23.96875 65.921875 18.8125 64.3125 
Q 13.671875 62.703125 7.8125 59.421875 
L 7.8125 69.390625 
Q 13.765625 71.78125 18.9375 73 
Q 24.125 74.21875 28.421875 74.21875 
Q 39.75 74.21875 46.484375 68.546875 
Q 53.21875 62.890625 53.21875 53.421875 
Q 53.21875 48.921875 51.53125 44.890625 
Q 49.859375 40.875 45.40625 35.40625 
Q 44.1875 33.984375 37.640625 27.21875 
Q 31.109375 20.453125 19.1875 8.296875 
z
" id="DejaVuSans-50"/>
     </defs>
     <g transform="translate(627.2375 74.274687)scale(0.1 -0.1)">
      <use xlink:href="#DejaVuSans-50"/>
     </g>
    </g>
    <g id="PathCollection_12">
     <g>
      <use style="fill:#d62728;stroke:#d62728;" x="609.2375" xlink:href="#m7602645ec6" y="86.327812"/>
     </g>
    </g>
    <g id="text_15">
     <!-- 3 -->
     <defs>
      <path d="M 40.578125 39.3125 
Q 47.65625 37.796875 51.625 33 
Q 55.609375 28.21875 55.609375 21.1875 
Q 55.609375 10.40625 48.1875 4.484375 
Q 40.765625 -1.421875 27.09375 -1.421875 
Q 22.515625 -1.421875 17.65625 -0.515625 
Q 12.796875 0.390625 7.625 2.203125 
L 7.625 11.71875 
Q 11.71875 9.328125 16.59375 8.109375 
Q 21.484375 6.890625 26.8125 6.890625 
Q 36.078125 6.890625 40.9375 10.546875 
Q 45.796875 14.203125 45.796875 21.1875 
Q 45.796875 27.640625 41.28125 31.265625 
Q 36.765625 34.90625 28.71875 34.90625 
L 20.21875 34.90625 
L 20.21875 43.015625 
L 29.109375 43.015625 
Q 36.375 43.015625 40.234375 45.921875 
Q 44.09375 48.828125 44.09375 54.296875 
Q 44.09375 59.90625 40.109375 62.90625 
Q 36.140625 65.921875 28.71875 65.921875 
Q 24.65625 65.921875 20.015625 65.03125 
Q 15.375 64.15625 9.8125 62.3125 
L 9.8125 71.09375 
Q 15.4375 72.65625 20.34375 73.4375 
Q 25.25 74.21875 29.59375 74.21875 
Q 40.828125 74.21875 47.359375 69.109375 
Q 53.90625 64.015625 53.90625 55.328125 
Q 53.90625 49.265625 50.4375 45.09375 
Q 46.96875 40.921875 40.578125 39.3125 
z
" id="DejaVuSans-51"/>
     </defs>
     <g transform="translate(627.2375 88.952812)scale(0.1 -0.1)">
      <use xlink:href="#DejaVuSans-51"/>
     </g>
    </g>
    <g id="PathCollection_13">
     <g>
      <use style="fill:#e377c2;stroke:#e377c2;" x="609.2375" xlink:href="#m2dae2f25a6" y="101.005937"/>
     </g>
    </g>
    <g id="text_16">
     <!-- 6 -->
     <defs>
      <path d="M 33.015625 40.375 
Q 26.375 40.375 22.484375 35.828125 
Q 18.609375 31.296875 18.609375 23.390625 
Q 18.609375 15.53125 22.484375 10.953125 
Q 26.375 6.390625 33.015625 6.390625 
Q 39.65625 6.390625 43.53125 10.953125 
Q 47.40625 15.53125 47.40625 23.390625 
Q 47.40625 31.296875 43.53125 35.828125 
Q 39.65625 40.375 33.015625 40.375 
z
M 52.59375 71.296875 
L 52.59375 62.3125 
Q 48.875 64.0625 45.09375 64.984375 
Q 41.3125 65.921875 37.59375 65.921875 
Q 27.828125 65.921875 22.671875 59.328125 
Q 17.53125 52.734375 16.796875 39.40625 
Q 19.671875 43.65625 24.015625 45.921875 
Q 28.375 48.1875 33.59375 48.1875 
Q 44.578125 48.1875 50.953125 41.515625 
Q 57.328125 34.859375 57.328125 23.390625 
Q 57.328125 12.15625 50.6875 5.359375 
Q 44.046875 -1.421875 33.015625 -1.421875 
Q 20.359375 -1.421875 13.671875 8.265625 
Q 6.984375 17.96875 6.984375 36.375 
Q 6.984375 53.65625 15.1875 63.9375 
Q 23.390625 74.21875 37.203125 74.21875 
Q 40.921875 74.21875 44.703125 73.484375 
Q 48.484375 72.75 52.59375 71.296875 
z
" id="DejaVuSans-54"/>
     </defs>
     <g transform="translate(627.2375 103.630937)scale(0.1 -0.1)">
      <use xlink:href="#DejaVuSans-54"/>
     </g>
    </g>
    <g id="PathCollection_14">
     <g>
      <use style="fill:#7f7f7f;stroke:#7f7f7f;" x="609.2375" xlink:href="#ma3d2f4f0ae" y="115.684062"/>
     </g>
    </g>
    <g id="text_17">
     <!-- 7 -->
     <defs>
      <path d="M 8.203125 72.90625 
L 55.078125 72.90625 
L 55.078125 68.703125 
L 28.609375 0 
L 18.3125 0 
L 43.21875 64.59375 
L 8.203125 64.59375 
z
" id="DejaVuSans-55"/>
     </defs>
     <g transform="translate(627.2375 118.309062)scale(0.1 -0.1)">
      <use xlink:href="#DejaVuSans-55"/>
     </g>
    </g>
    <g id="PathCollection_15">
     <g>
      <use style="fill:#bcbd22;stroke:#bcbd22;" x="609.2375" xlink:href="#m036d40b8a9" y="130.362188"/>
     </g>
    </g>
    <g id="text_18">
     <!-- 8 -->
     <defs>
      <path d="M 31.78125 34.625 
Q 24.75 34.625 20.71875 30.859375 
Q 16.703125 27.09375 16.703125 20.515625 
Q 16.703125 13.921875 20.71875 10.15625 
Q 24.75 6.390625 31.78125 6.390625 
Q 38.8125 6.390625 42.859375 10.171875 
Q 46.921875 13.96875 46.921875 20.515625 
Q 46.921875 27.09375 42.890625 30.859375 
Q 38.875 34.625 31.78125 34.625 
z
M 21.921875 38.8125 
Q 15.578125 40.375 12.03125 44.71875 
Q 8.5 49.078125 8.5 55.328125 
Q 8.5 64.0625 14.71875 69.140625 
Q 20.953125 74.21875 31.78125 74.21875 
Q 42.671875 74.21875 48.875 69.140625 
Q 55.078125 64.0625 55.078125 55.328125 
Q 55.078125 49.078125 51.53125 44.71875 
Q 48 40.375 41.703125 38.8125 
Q 48.828125 37.15625 52.796875 32.3125 
Q 56.78125 27.484375 56.78125 20.515625 
Q 56.78125 9.90625 50.3125 4.234375 
Q 43.84375 -1.421875 31.78125 -1.421875 
Q 19.734375 -1.421875 13.25 4.234375 
Q 6.78125 9.90625 6.78125 20.515625 
Q 6.78125 27.484375 10.78125 32.3125 
Q 14.796875 37.15625 21.921875 38.8125 
z
M 18.3125 54.390625 
Q 18.3125 48.734375 21.84375 45.5625 
Q 25.390625 42.390625 31.78125 42.390625 
Q 38.140625 42.390625 41.71875 45.5625 
Q 45.3125 48.734375 45.3125 54.390625 
Q 45.3125 60.0625 41.71875 63.234375 
Q 38.140625 66.40625 31.78125 66.40625 
Q 25.390625 66.40625 21.84375 63.234375 
Q 18.3125 60.0625 18.3125 54.390625 
z
" id="DejaVuSans-56"/>
     </defs>
     <g transform="translate(627.2375 132.987188)scale(0.1 -0.1)">
      <use xlink:href="#DejaVuSans-56"/>
     </g>
    </g>
    <g id="PathCollection_16">
     <g>
      <use style="fill:#17becf;stroke:#17becf;" x="609.2375" xlink:href="#m68a9e1b330" y="145.040312"/>
     </g>
    </g>
    <g id="text_19">
     <!-- 9 -->
     <defs>
      <path d="M 10.984375 1.515625 
L 10.984375 10.5 
Q 14.703125 8.734375 18.5 7.8125 
Q 22.3125 6.890625 25.984375 6.890625 
Q 35.75 6.890625 40.890625 13.453125 
Q 46.046875 20.015625 46.78125 33.40625 
Q 43.953125 29.203125 39.59375 26.953125 
Q 35.25 24.703125 29.984375 24.703125 
Q 19.046875 24.703125 12.671875 31.3125 
Q 6.296875 37.9375 6.296875 49.421875 
Q 6.296875 60.640625 12.9375 67.421875 
Q 19.578125 74.21875 30.609375 74.21875 
Q 43.265625 74.21875 49.921875 64.515625 
Q 56.59375 54.828125 56.59375 36.375 
Q 56.59375 19.140625 48.40625 8.859375 
Q 40.234375 -1.421875 26.421875 -1.421875 
Q 22.703125 -1.421875 18.890625 -0.6875 
Q 15.09375 0.046875 10.984375 1.515625 
z
M 30.609375 32.421875 
Q 37.25 32.421875 41.125 36.953125 
Q 45.015625 41.5 45.015625 49.421875 
Q 45.015625 57.28125 41.125 61.84375 
Q 37.25 66.40625 30.609375 66.40625 
Q 23.96875 66.40625 20.09375 61.84375 
Q 16.21875 57.28125 16.21875 49.421875 
Q 16.21875 41.5 20.09375 36.953125 
Q 23.96875 32.421875 30.609375 32.421875 
z
" id="DejaVuSans-57"/>
     </defs>
     <g transform="translate(627.2375 147.665312)scale(0.1 -0.1)">
      <use xlink:href="#DejaVuSans-57"/>
     </g>
    </g>
   </g>
  </g>
  <g id="axes_2">
   <g id="patch_8">
    <path d="M 687.76 404.12 
L 1285.2 404.12 
L 1285.2 28.32 
L 687.76 28.32 
z
" style="fill:#ffffff;"/>
   </g>
   <g id="PathCollection_17">
    <g clip-path="url(#p9e5ad1d885)">
     <use style="fill:#1f77b4;stroke:#1f77b4;" x="1003.934313" xlink:href="#m83bb49da96" y="217.38861"/>
     <use style="fill:#1f77b4;stroke:#1f77b4;" x="1031.186454" xlink:href="#m83bb49da96" y="220.339474"/>
     <use style="fill:#1f77b4;stroke:#1f77b4;" x="897.330146" xlink:href="#m83bb49da96" y="119.196917"/>
     <use style="fill:#1f77b4;stroke:#1f77b4;" x="905.475362" xlink:href="#m83bb49da96" y="99.646517"/>
    </g>
   </g>
   <g id="PathCollection_18">
    <g clip-path="url(#p9e5ad1d885)">
     <use style="fill:#ff7f0e;stroke:#ff7f0e;" x="1063.280164" xlink:href="#m8833e2f4a1" y="329.408263"/>
     <use style="fill:#ff7f0e;stroke:#ff7f0e;" x="1085.605426" xlink:href="#m8833e2f4a1" y="357.199513"/>
     <use style="fill:#ff7f0e;stroke:#ff7f0e;" x="1088.344284" xlink:href="#m8833e2f4a1" y="367.16619"/>
     <use style="fill:#ff7f0e;stroke:#ff7f0e;" x="1123.6352" xlink:href="#m8833e2f4a1" y="332.614536"/>
     <use style="fill:#ff7f0e;stroke:#ff7f0e;" x="1123.692308" xlink:href="#m8833e2f4a1" y="306.019895"/>
     <use style="fill:#ff7f0e;stroke:#ff7f0e;" x="1147.455365" xlink:href="#m8833e2f4a1" y="282.942837"/>
     <use style="fill:#ff7f0e;stroke:#ff7f0e;" x="1082.17259" xlink:href="#m8833e2f4a1" y="255.379214"/>
     <use style="fill:#ff7f0e;stroke:#ff7f0e;" x="1161.636818" xlink:href="#m8833e2f4a1" y="306.704335"/>
     <use style="fill:#ff7f0e;stroke:#ff7f0e;" x="1095.145858" xlink:href="#m8833e2f4a1" y="281.779035"/>
     <use style="fill:#ff7f0e;stroke:#ff7f0e;" x="1137.0366" xlink:href="#m8833e2f4a1" y="242.836657"/>
     <use style="fill:#ff7f0e;stroke:#ff7f0e;" x="1217.970959" xlink:href="#m8833e2f4a1" y="284.086092"/>
     <use style="fill:#ff7f0e;stroke:#ff7f0e;" x="1122.061041" xlink:href="#m8833e2f4a1" y="265.348585"/>
     <use style="fill:#ff7f0e;stroke:#ff7f0e;" x="1240.635005" xlink:href="#m8833e2f4a1" y="380.041278"/>
     <use style="fill:#ff7f0e;stroke:#ff7f0e;" x="1258.043636" xlink:href="#m8833e2f4a1" y="327.720361"/>
     <use style="fill:#ff7f0e;stroke:#ff7f0e;" x="1213.950236" xlink:href="#m8833e2f4a1" y="347.986299"/>
     <use style="fill:#ff7f0e;stroke:#ff7f0e;" x="1184.377808" xlink:href="#m8833e2f4a1" y="336.42095"/>
     <use style="fill:#ff7f0e;stroke:#ff7f0e;" x="1176.211099" xlink:href="#m8833e2f4a1" y="364.445564"/>
     <use style="fill:#ff7f0e;stroke:#ff7f0e;" x="1188.055387" xlink:href="#m8833e2f4a1" y="257.499315"/>
     <use style="fill:#ff7f0e;stroke:#ff7f0e;" x="1196.337207" xlink:href="#m8833e2f4a1" y="230.894248"/>
     <use style="fill:#ff7f0e;stroke:#ff7f0e;" x="1227.05758" xlink:href="#m8833e2f4a1" y="238.363099"/>
     <use style="fill:#ff7f0e;stroke:#ff7f0e;" x="1210.8183" xlink:href="#m8833e2f4a1" y="208.421241"/>
    </g>
   </g>
   <g id="PathCollection_19">
    <g clip-path="url(#p9e5ad1d885)">
     <use style="fill:#2ca02c;stroke:#2ca02c;" x="981.435357" xlink:href="#m7c5550feef" y="288.746655"/>
     <use style="fill:#2ca02c;stroke:#2ca02c;" x="999.084147" xlink:href="#m7c5550feef" y="303.545322"/>
     <use style="fill:#2ca02c;stroke:#2ca02c;" x="1020.973144" xlink:href="#m7c5550feef" y="275.586151"/>
     <use style="fill:#2ca02c;stroke:#2ca02c;" x="939.013124" xlink:href="#m7c5550feef" y="303.450837"/>
     <use style="fill:#2ca02c;stroke:#2ca02c;" x="971.607639" xlink:href="#m7c5550feef" y="330.137128"/>
     <use style="fill:#2ca02c;stroke:#2ca02c;" x="933.024714" xlink:href="#m7c5550feef" y="324.388116"/>
     <use style="fill:#2ca02c;stroke:#2ca02c;" x="793.893783" xlink:href="#m7c5550feef" y="255.666506"/>
     <use style="fill:#2ca02c;stroke:#2ca02c;" x="756.46599" xlink:href="#m7c5550feef" y="264.216519"/>
     <use style="fill:#2ca02c;stroke:#2ca02c;" x="780.626995" xlink:href="#m7c5550feef" y="282.806397"/>
     <use style="fill:#2ca02c;stroke:#2ca02c;" x="733.697242" xlink:href="#m7c5550feef" y="241.509865"/>
     <use style="fill:#2ca02c;stroke:#2ca02c;" x="769.22874" xlink:href="#m7c5550feef" y="232.819661"/>
     <use style="fill:#2ca02c;stroke:#2ca02c;" x="826.239449" xlink:href="#m7c5550feef" y="299.996099"/>
     <use style="fill:#2ca02c;stroke:#2ca02c;" x="846.412497" xlink:href="#m7c5550feef" y="281.742773"/>
     <use style="fill:#2ca02c;stroke:#2ca02c;" x="846.735615" xlink:href="#m7c5550feef" y="242.64382"/>
     <use style="fill:#2ca02c;stroke:#2ca02c;" x="849.76259" xlink:href="#m7c5550feef" y="318.550979"/>
     <use style="fill:#2ca02c;stroke:#2ca02c;" x="843.633217" xlink:href="#m7c5550feef" y="256.397898"/>
     <use style="fill:#2ca02c;stroke:#2ca02c;" x="953.364258" xlink:href="#m7c5550feef" y="238.91196"/>
     <use style="fill:#2ca02c;stroke:#2ca02c;" x="927.901139" xlink:href="#m7c5550feef" y="253.388221"/>
     <use style="fill:#2ca02c;stroke:#2ca02c;" x="913.540605" xlink:href="#m7c5550feef" y="272.62118"/>
     <use style="fill:#2ca02c;stroke:#2ca02c;" x="741.52362" xlink:href="#m7c5550feef" y="319.327271"/>
     <use style="fill:#2ca02c;stroke:#2ca02c;" x="714.916364" xlink:href="#m7c5550feef" y="308.22266"/>
     <use style="fill:#2ca02c;stroke:#2ca02c;" x="799.318897" xlink:href="#m7c5550feef" y="193.303859"/>
     <use style="fill:#2ca02c;stroke:#2ca02c;" x="902.83052" xlink:href="#m7c5550feef" y="233.210091"/>
     <use style="fill:#2ca02c;stroke:#2ca02c;" x="892.5529" xlink:href="#m7c5550feef" y="213.586192"/>
    </g>
   </g>
   <g id="PathCollection_20">
    <g clip-path="url(#p9e5ad1d885)">
     <use style="fill:#d62728;stroke:#d62728;" x="951.172843" xlink:href="#m7602645ec6" y="178.176396"/>
     <use style="fill:#d62728;stroke:#d62728;" x="984.3584" xlink:href="#m7602645ec6" y="187.143892"/>
     <use style="fill:#d62728;stroke:#d62728;" x="1058.931248" xlink:href="#m7602645ec6" y="45.401818"/>
     <use style="fill:#d62728;stroke:#d62728;" x="1049.87176" xlink:href="#m7602645ec6" y="66.311065"/>
     <use style="fill:#d62728;stroke:#d62728;" x="1020.772866" xlink:href="#m7602645ec6" y="50.726151"/>
     <use style="fill:#d62728;stroke:#d62728;" x="1013.648115" xlink:href="#m7602645ec6" y="84.258103"/>
     <use style="fill:#d62728;stroke:#d62728;" x="979.268846" xlink:href="#m7602645ec6" y="76.286829"/>
     <use style="fill:#d62728;stroke:#d62728;" x="1022.769199" xlink:href="#m7602645ec6" y="106.904632"/>
     <use style="fill:#d62728;stroke:#d62728;" x="980.618056" xlink:href="#m7602645ec6" y="104.513546"/>
     <use style="fill:#d62728;stroke:#d62728;" x="1181.899376" xlink:href="#m7602645ec6" y="104.270587"/>
     <use style="fill:#d62728;stroke:#d62728;" x="1152.622617" xlink:href="#m7602645ec6" y="98.761524"/>
     <use style="fill:#d62728;stroke:#d62728;" x="968.919583" xlink:href="#m7602645ec6" y="128.228366"/>
     <use style="fill:#d62728;stroke:#d62728;" x="1095.72923" xlink:href="#m7602645ec6" y="80.513559"/>
     <use style="fill:#d62728;stroke:#d62728;" x="1087.281068" xlink:href="#m7602645ec6" y="101.667895"/>
     <use style="fill:#d62728;stroke:#d62728;" x="1090.710529" xlink:href="#m7602645ec6" y="147.032742"/>
     <use style="fill:#d62728;stroke:#d62728;" x="1125.88112" xlink:href="#m7602645ec6" y="147.215347"/>
     <use style="fill:#d62728;stroke:#d62728;" x="1064.254034" xlink:href="#m7602645ec6" y="133.101177"/>
     <use style="fill:#d62728;stroke:#d62728;" x="1010.451372" xlink:href="#m7602645ec6" y="139.275707"/>
     <use style="fill:#d62728;stroke:#d62728;" x="1036.43056" xlink:href="#m7602645ec6" y="155.754977"/>
     <use style="fill:#d62728;stroke:#d62728;" x="1104.132213" xlink:href="#m7602645ec6" y="189.838572"/>
     <use style="fill:#d62728;stroke:#d62728;" x="1089.326319" xlink:href="#m7602645ec6" y="205.922313"/>
     <use style="fill:#d62728;stroke:#d62728;" x="996.297136" xlink:href="#m7602645ec6" y="372.263325"/>
     <use style="fill:#d62728;stroke:#d62728;" x="977.652096" xlink:href="#m7602645ec6" y="387.038182"/>
    </g>
   </g>
   <g id="matplotlib.axis_3">
    <g id="xtick_6">
     <g id="line2d_11">
      <g>
       <use style="stroke:#000000;stroke-width:0.8;" x="778.656831" xlink:href="#md2fb93a85a" y="404.12"/>
      </g>
     </g>
     <g id="text_20">
      <!-- −100 -->
      <g transform="translate(764.923237 418.718437)scale(0.1 -0.1)">
       <use xlink:href="#DejaVuSans-8722"/>
       <use x="83.789062" xlink:href="#DejaVuSans-49"/>
       <use x="147.412109" xlink:href="#DejaVuSans-48"/>
       <use x="211.035156" xlink:href="#DejaVuSans-48"/>
      </g>
     </g>
    </g>
    <g id="xtick_7">
     <g id="line2d_12">
      <g>
       <use style="stroke:#000000;stroke-width:0.8;" x="891.793985" xlink:href="#md2fb93a85a" y="404.12"/>
      </g>
     </g>
     <g id="text_21">
      <!-- −50 -->
      <g transform="translate(881.241641 418.718437)scale(0.1 -0.1)">
       <use xlink:href="#DejaVuSans-8722"/>
       <use x="83.789062" xlink:href="#DejaVuSans-53"/>
       <use x="147.412109" xlink:href="#DejaVuSans-48"/>
      </g>
     </g>
    </g>
    <g id="xtick_8">
     <g id="line2d_13">
      <g>
       <use style="stroke:#000000;stroke-width:0.8;" x="1004.931139" xlink:href="#md2fb93a85a" y="404.12"/>
      </g>
     </g>
     <g id="text_22">
      <!-- 0 -->
      <g transform="translate(1001.749889 418.718437)scale(0.1 -0.1)">
       <use xlink:href="#DejaVuSans-48"/>
      </g>
     </g>
    </g>
    <g id="xtick_9">
     <g id="line2d_14">
      <g>
       <use style="stroke:#000000;stroke-width:0.8;" x="1118.068293" xlink:href="#md2fb93a85a" y="404.12"/>
      </g>
     </g>
     <g id="text_23">
      <!-- 50 -->
      <g transform="translate(1111.705793 418.718437)scale(0.1 -0.1)">
       <use xlink:href="#DejaVuSans-53"/>
       <use x="63.623047" xlink:href="#DejaVuSans-48"/>
      </g>
     </g>
    </g>
    <g id="xtick_10">
     <g id="line2d_15">
      <g>
       <use style="stroke:#000000;stroke-width:0.8;" x="1231.205448" xlink:href="#md2fb93a85a" y="404.12"/>
      </g>
     </g>
     <g id="text_24">
      <!-- 100 -->
      <g transform="translate(1221.661698 418.718437)scale(0.1 -0.1)">
       <use xlink:href="#DejaVuSans-49"/>
       <use x="63.623047" xlink:href="#DejaVuSans-48"/>
       <use x="127.246094" xlink:href="#DejaVuSans-48"/>
      </g>
     </g>
    </g>
   </g>
   <g id="matplotlib.axis_4">
    <g id="ytick_6">
     <g id="line2d_16">
      <g>
       <use style="stroke:#000000;stroke-width:0.8;" x="687.76" xlink:href="#mda42368870" y="370.981984"/>
      </g>
     </g>
     <g id="text_25">
      <!-- −100 -->
      <g transform="translate(653.292812 374.781203)scale(0.1 -0.1)">
       <use xlink:href="#DejaVuSans-8722"/>
       <use x="83.789062" xlink:href="#DejaVuSans-49"/>
       <use x="147.412109" xlink:href="#DejaVuSans-48"/>
       <use x="211.035156" xlink:href="#DejaVuSans-48"/>
      </g>
     </g>
    </g>
    <g id="ytick_7">
     <g id="line2d_17">
      <g>
       <use style="stroke:#000000;stroke-width:0.8;" x="687.76" xlink:href="#mda42368870" y="297.098962"/>
      </g>
     </g>
     <g id="text_26">
      <!-- −50 -->
      <g transform="translate(659.655313 300.89818)scale(0.1 -0.1)">
       <use xlink:href="#DejaVuSans-8722"/>
       <use x="83.789062" xlink:href="#DejaVuSans-53"/>
       <use x="147.412109" xlink:href="#DejaVuSans-48"/>
      </g>
     </g>
    </g>
    <g id="ytick_8">
     <g id="line2d_18">
      <g>
       <use style="stroke:#000000;stroke-width:0.8;" x="687.76" xlink:href="#mda42368870" y="223.21594"/>
      </g>
     </g>
     <g id="text_27">
      <!-- 0 -->
      <g transform="translate(674.3975 227.015158)scale(0.1 -0.1)">
       <use xlink:href="#DejaVuSans-48"/>
      </g>
     </g>
    </g>
    <g id="ytick_9">
     <g id="line2d_19">
      <g>
       <use style="stroke:#000000;stroke-width:0.8;" x="687.76" xlink:href="#mda42368870" y="149.332917"/>
      </g>
     </g>
     <g id="text_28">
      <!-- 50 -->
      <g transform="translate(668.035 153.132136)scale(0.1 -0.1)">
       <use xlink:href="#DejaVuSans-53"/>
       <use x="63.623047" xlink:href="#DejaVuSans-48"/>
      </g>
     </g>
    </g>
    <g id="ytick_10">
     <g id="line2d_20">
      <g>
       <use style="stroke:#000000;stroke-width:0.8;" x="687.76" xlink:href="#mda42368870" y="75.449895"/>
      </g>
     </g>
     <g id="text_29">
      <!-- 100 -->
      <g transform="translate(661.6725 79.249114)scale(0.1 -0.1)">
       <use xlink:href="#DejaVuSans-49"/>
       <use x="63.623047" xlink:href="#DejaVuSans-48"/>
       <use x="127.246094" xlink:href="#DejaVuSans-48"/>
      </g>
     </g>
    </g>
   </g>
   <g id="patch_9">
    <path d="M 687.76 404.12 
L 687.76 28.32 
" style="fill:none;stroke:#000000;stroke-linecap:square;stroke-linejoin:miter;stroke-width:0.8;"/>
   </g>
   <g id="patch_10">
    <path d="M 1285.2 404.12 
L 1285.2 28.32 
" style="fill:none;stroke:#000000;stroke-linecap:square;stroke-linejoin:miter;stroke-width:0.8;"/>
   </g>
   <g id="patch_11">
    <path d="M 687.76 404.12 
L 1285.2 404.12 
" style="fill:none;stroke:#000000;stroke-linecap:square;stroke-linejoin:miter;stroke-width:0.8;"/>
   </g>
   <g id="patch_12">
    <path d="M 687.76 28.32 
L 1285.2 28.32 
" style="fill:none;stroke:#000000;stroke-linecap:square;stroke-linejoin:miter;stroke-width:0.8;"/>
   </g>
   <g id="text_30">
    <!-- tar_cos -->
    <defs>
     <path d="M 52.59375 52.984375 
L 52.59375 38.71875 
Q 49.03125 41.15625 45.4375 42.328125 
Q 41.84375 43.5 37.984375 43.5 
Q 30.671875 43.5 26.59375 39.234375 
Q 22.515625 34.96875 22.515625 27.296875 
Q 22.515625 19.625 26.59375 15.34375 
Q 30.671875 11.078125 37.984375 11.078125 
Q 42.09375 11.078125 45.78125 12.296875 
Q 49.46875 13.53125 52.59375 15.921875 
L 52.59375 1.609375 
Q 48.484375 0.09375 44.265625 -0.65625 
Q 40.046875 -1.421875 35.796875 -1.421875 
Q 21 -1.421875 12.640625 6.171875 
Q 4.296875 13.765625 4.296875 27.296875 
Q 4.296875 40.828125 12.640625 48.40625 
Q 21 56 35.796875 56 
Q 40.09375 56 44.265625 55.25 
Q 48.4375 54.5 52.59375 52.984375 
z
" id="DejaVuSans-Bold-99"/>
     <path d="M 34.421875 43.5 
Q 28.609375 43.5 25.5625 39.328125 
Q 22.515625 35.15625 22.515625 27.296875 
Q 22.515625 19.4375 25.5625 15.25 
Q 28.609375 11.078125 34.421875 11.078125 
Q 40.140625 11.078125 43.15625 15.25 
Q 46.1875 19.4375 46.1875 27.296875 
Q 46.1875 35.15625 43.15625 39.328125 
Q 40.140625 43.5 34.421875 43.5 
z
M 34.421875 56 
Q 48.53125 56 56.46875 48.375 
Q 64.40625 40.765625 64.40625 27.296875 
Q 64.40625 13.8125 56.46875 6.1875 
Q 48.53125 -1.421875 34.421875 -1.421875 
Q 20.265625 -1.421875 12.28125 6.1875 
Q 4.296875 13.8125 4.296875 27.296875 
Q 4.296875 40.765625 12.28125 48.375 
Q 20.265625 56 34.421875 56 
z
" id="DejaVuSans-Bold-111"/>
     <path d="M 51.125 52.984375 
L 51.125 39.703125 
Q 45.515625 42.046875 40.28125 43.21875 
Q 35.0625 44.390625 30.421875 44.390625 
Q 25.4375 44.390625 23.015625 43.140625 
Q 20.609375 41.890625 20.609375 39.3125 
Q 20.609375 37.203125 22.4375 36.078125 
Q 24.265625 34.96875 29 34.421875 
L 32.078125 33.984375 
Q 45.515625 32.28125 50.140625 28.375 
Q 54.78125 24.46875 54.78125 16.109375 
Q 54.78125 7.375 48.328125 2.96875 
Q 41.890625 -1.421875 29.109375 -1.421875 
Q 23.6875 -1.421875 17.890625 -0.5625 
Q 12.109375 0.296875 6 2 
L 6 15.28125 
Q 11.234375 12.75 16.71875 11.46875 
Q 22.21875 10.203125 27.875 10.203125 
Q 33.015625 10.203125 35.59375 11.609375 
Q 38.1875 13.03125 38.1875 15.828125 
Q 38.1875 18.171875 36.40625 19.3125 
Q 34.625 20.453125 29.296875 21.09375 
L 26.21875 21.484375 
Q 14.546875 22.953125 9.859375 26.90625 
Q 5.171875 30.859375 5.171875 38.921875 
Q 5.171875 47.609375 11.125 51.796875 
Q 17.09375 56 29.390625 56 
Q 34.234375 56 39.546875 55.265625 
Q 44.875 54.546875 51.125 52.984375 
z
" id="DejaVuSans-Bold-115"/>
    </defs>
    <g style="fill:#1f77b4;" transform="translate(954.3125 22.32)scale(0.16 -0.16)">
     <use xlink:href="#DejaVuSans-Bold-116"/>
     <use x="47.802734" xlink:href="#DejaVuSans-Bold-97"/>
     <use x="115.283203" xlink:href="#DejaVuSans-Bold-114"/>
     <use x="164.599609" xlink:href="#DejaVuSans-Bold-95"/>
     <use x="214.599609" xlink:href="#DejaVuSans-Bold-99"/>
     <use x="273.876953" xlink:href="#DejaVuSans-Bold-111"/>
     <use x="342.578125" xlink:href="#DejaVuSans-Bold-115"/>
    </g>
   </g>
   <g id="legend_2">
    <g id="patch_13">
     <path d="M 1239.8375 95.0325 
L 1278.2 95.0325 
Q 1280.2 95.0325 1280.2 93.0325 
L 1280.2 35.32 
Q 1280.2 33.32 1278.2 33.32 
L 1239.8375 33.32 
Q 1237.8375 33.32 1237.8375 35.32 
L 1237.8375 93.0325 
Q 1237.8375 95.0325 1239.8375 95.0325 
z
" style="fill:#ffffff;opacity:0.8;stroke:#cccccc;stroke-linejoin:miter;"/>
    </g>
    <g id="PathCollection_21">
     <g>
      <use style="fill:#1f77b4;stroke:#1f77b4;" x="1251.8375" xlink:href="#m83bb49da96" y="42.293438"/>
     </g>
    </g>
    <g id="text_31">
     <!-- 0 -->
     <g transform="translate(1269.8375 44.918438)scale(0.1 -0.1)">
      <use xlink:href="#DejaVuSans-48"/>
     </g>
    </g>
    <g id="PathCollection_22">
     <g>
      <use style="fill:#ff7f0e;stroke:#ff7f0e;" x="1251.8375" xlink:href="#m8833e2f4a1" y="56.971563"/>
     </g>
    </g>
    <g id="text_32">
     <!-- 1 -->
     <g transform="translate(1269.8375 59.596563)scale(0.1 -0.1)">
      <use xlink:href="#DejaVuSans-49"/>
     </g>
    </g>
    <g id="PathCollection_23">
     <g>
      <use style="fill:#2ca02c;stroke:#2ca02c;" x="1251.8375" xlink:href="#m7c5550feef" y="71.649688"/>
     </g>
    </g>
    <g id="text_33">
     <!-- 2 -->
     <g transform="translate(1269.8375 74.274688)scale(0.1 -0.1)">
      <use xlink:href="#DejaVuSans-50"/>
     </g>
    </g>
    <g id="PathCollection_24">
     <g>
      <use style="fill:#d62728;stroke:#d62728;" x="1251.8375" xlink:href="#m7602645ec6" y="86.327813"/>
     </g>
    </g>
    <g id="text_34">
     <!-- 3 -->
     <g transform="translate(1269.8375 88.952813)scale(0.1 -0.1)">
      <use xlink:href="#DejaVuSans-51"/>
     </g>
    </g>
   </g>
  </g>
 </g>
 <defs>
  <clipPath id="pd082d6ee5c">
   <rect height="375.8" width="597.44" x="45.16" y="28.32"/>
  </clipPath>
  <clipPath id="p9e5ad1d885">
   <rect height="375.8" width="597.44" x="687.76" y="28.32"/>
  </clipPath>
 </defs>
</svg>
