<?xml version="1.0" encoding="utf-8" standalone="no"?>
<!DOCTYPE svg PUBLIC "-//W3C//DTD SVG 1.1//EN"
  "http://www.w3.org/Graphics/SVG/1.1/DTD/svg11.dtd">
<!-- Created with matplotlib (https://matplotlib.org/) -->
<svg height="432pt" version="1.1" viewBox="0 0 1296 432" width="1296pt" xmlns="http://www.w3.org/2000/svg" xmlns:xlink="http://www.w3.org/1999/xlink">
 <defs>
  <style type="text/css">
*{stroke-linecap:butt;stroke-linejoin:round;}
  </style>
 </defs>
 <g id="figure_1">
  <g id="patch_1">
   <path d="M 0 432 
L 1296 432 
L 1296 0 
L 0 0 
z
" style="fill:#ffffff;"/>
  </g>
  <g id="axes_1">
   <g id="patch_2">
    <path d="M 51.46 404.12 
L 642.6 404.12 
L 642.6 28.32 
L 51.46 28.32 
z
" style="fill:#ffffff;"/>
   </g>
   <g id="PathCollection_1">
    <defs>
     <path d="M 0 3 
C 0.795609 3 1.55874 2.683901 2.12132 2.12132 
C 2.683901 1.55874 3 0.795609 3 0 
C 3 -0.795609 2.683901 -1.55874 2.12132 -2.12132 
C 1.55874 -2.683901 0.795609 -3 0 -3 
C -0.795609 -3 -1.55874 -2.683901 -2.12132 -2.12132 
C -2.683901 -1.55874 -3 -0.795609 -3 0 
C -3 0.795609 -2.683901 1.55874 -2.12132 2.12132 
C -1.55874 2.683901 -0.795609 3 0 3 
z
" id="m749d840bf1" style="stroke:#1f77b4;"/>
    </defs>
    <g clip-path="url(#p671f69384d)">
     <use style="fill:#1f77b4;stroke:#1f77b4;" x="282.089352" xlink:href="#m749d840bf1" y="161.898827"/>
     <use style="fill:#1f77b4;stroke:#1f77b4;" x="317.687667" xlink:href="#m749d840bf1" y="167.618583"/>
     <use style="fill:#1f77b4;stroke:#1f77b4;" x="275.820297" xlink:href="#m749d840bf1" y="170.890943"/>
     <use style="fill:#1f77b4;stroke:#1f77b4;" x="303.304041" xlink:href="#m749d840bf1" y="175.76695"/>
     <use style="fill:#1f77b4;stroke:#1f77b4;" x="244.285788" xlink:href="#m749d840bf1" y="174.438485"/>
     <use style="fill:#1f77b4;stroke:#1f77b4;" x="272.752149" xlink:href="#m749d840bf1" y="178.528457"/>
     <use style="fill:#1f77b4;stroke:#1f77b4;" x="381.456197" xlink:href="#m749d840bf1" y="189.293023"/>
     <use style="fill:#1f77b4;stroke:#1f77b4;" x="364.652778" xlink:href="#m749d840bf1" y="184.601347"/>
     <use style="fill:#1f77b4;stroke:#1f77b4;" x="347.072939" xlink:href="#m749d840bf1" y="177.476421"/>
    </g>
   </g>
   <g id="PathCollection_2">
    <defs>
     <path d="M 0 3 
C 0.795609 3 1.55874 2.683901 2.12132 2.12132 
C 2.683901 1.55874 3 0.795609 3 0 
C 3 -0.795609 2.683901 -1.55874 2.12132 -2.12132 
C 1.55874 -2.683901 0.795609 -3 0 -3 
C -0.795609 -3 -1.55874 -2.683901 -2.12132 -2.12132 
C -2.683901 -1.55874 -3 -0.795609 -3 0 
C -3 0.795609 -2.683901 1.55874 -2.12132 2.12132 
C -1.55874 2.683901 -0.795609 3 0 3 
z
" id="m1030e56f25" style="stroke:#ff7f0e;"/>
    </defs>
    <g clip-path="url(#p671f69384d)">
     <use style="fill:#ff7f0e;stroke:#ff7f0e;" x="389.174862" xlink:href="#m1030e56f25" y="173.036212"/>
     <use style="fill:#ff7f0e;stroke:#ff7f0e;" x="348.467969" xlink:href="#m1030e56f25" y="155.055926"/>
     <use style="fill:#ff7f0e;stroke:#ff7f0e;" x="615.73" xlink:href="#m1030e56f25" y="45.401818"/>
     <use style="fill:#ff7f0e;stroke:#ff7f0e;" x="78.33" xlink:href="#m1030e56f25" y="387.038182"/>
    </g>
   </g>
   <g id="PathCollection_3">
    <defs>
     <path d="M 0 3 
C 0.795609 3 1.55874 2.683901 2.12132 2.12132 
C 2.683901 1.55874 3 0.795609 3 0 
C 3 -0.795609 2.683901 -1.55874 2.12132 -2.12132 
C 1.55874 -2.683901 0.795609 -3 0 -3 
C -0.795609 -3 -1.55874 -2.683901 -2.12132 -2.12132 
C -2.683901 -1.55874 -3 -0.795609 -3 0 
C -3 0.795609 -2.683901 1.55874 -2.12132 2.12132 
C -1.55874 2.683901 -0.795609 3 0 3 
z
" id="m1a8f010047" style="stroke:#2ca02c;"/>
    </defs>
    <g clip-path="url(#p671f69384d)">
     <use style="fill:#2ca02c;stroke:#2ca02c;" x="253.834239" xlink:href="#m1a8f010047" y="206.639058"/>
     <use style="fill:#2ca02c;stroke:#2ca02c;" x="296.935688" xlink:href="#m1a8f010047" y="211.849123"/>
     <use style="fill:#2ca02c;stroke:#2ca02c;" x="297.090266" xlink:href="#m1a8f010047" y="205.306333"/>
     <use style="fill:#2ca02c;stroke:#2ca02c;" x="234.510839" xlink:href="#m1a8f010047" y="216.414792"/>
     <use style="fill:#2ca02c;stroke:#2ca02c;" x="262.678218" xlink:href="#m1a8f010047" y="217.581679"/>
     <use style="fill:#2ca02c;stroke:#2ca02c;" x="309.480924" xlink:href="#m1a8f010047" y="225.420434"/>
     <use style="fill:#2ca02c;stroke:#2ca02c;" x="220.980081" xlink:href="#m1a8f010047" y="191.495605"/>
     <use style="fill:#2ca02c;stroke:#2ca02c;" x="277.373616" xlink:href="#m1a8f010047" y="190.015929"/>
     <use style="fill:#2ca02c;stroke:#2ca02c;" x="239.587462" xlink:href="#m1a8f010047" y="190.710729"/>
     <use style="fill:#2ca02c;stroke:#2ca02c;" x="362.937391" xlink:href="#m1a8f010047" y="166.181151"/>
    </g>
   </g>
   <g id="PathCollection_4">
    <defs>
     <path d="M 0 3 
C 0.795609 3 1.55874 2.683901 2.12132 2.12132 
C 2.683901 1.55874 3 0.795609 3 0 
C 3 -0.795609 2.683901 -1.55874 2.12132 -2.12132 
C 1.55874 -2.683901 0.795609 -3 0 -3 
C -0.795609 -3 -1.55874 -2.683901 -2.12132 -2.12132 
C -2.683901 -1.55874 -3 -0.795609 -3 0 
C -3 0.795609 -2.683901 1.55874 -2.12132 2.12132 
C -1.55874 2.683901 -0.795609 3 0 3 
z
" id="m4a5ba3714b" style="stroke:#d62728;"/>
    </defs>
    <g clip-path="url(#p671f69384d)">
     <use style="fill:#d62728;stroke:#d62728;" x="443.342587" xlink:href="#m4a5ba3714b" y="194.225287"/>
     <use style="fill:#d62728;stroke:#d62728;" x="471.814063" xlink:href="#m4a5ba3714b" y="195.852572"/>
     <use style="fill:#d62728;stroke:#d62728;" x="477.667632" xlink:href="#m4a5ba3714b" y="179.56023"/>
     <use style="fill:#d62728;stroke:#d62728;" x="512.985106" xlink:href="#m4a5ba3714b" y="196.94049"/>
     <use style="fill:#d62728;stroke:#d62728;" x="462.725663" xlink:href="#m4a5ba3714b" y="186.36753"/>
     <use style="fill:#d62728;stroke:#d62728;" x="523.512212" xlink:href="#m4a5ba3714b" y="178.534338"/>
     <use style="fill:#d62728;stroke:#d62728;" x="508.222366" xlink:href="#m4a5ba3714b" y="187.005625"/>
     <use style="fill:#d62728;stroke:#d62728;" x="539.47802" xlink:href="#m4a5ba3714b" y="185.50114"/>
     <use style="fill:#d62728;stroke:#d62728;" x="334.878137" xlink:href="#m4a5ba3714b" y="194.720705"/>
     <use style="fill:#d62728;stroke:#d62728;" x="328.097194" xlink:href="#m4a5ba3714b" y="192.017384"/>
     <use style="fill:#d62728;stroke:#d62728;" x="442.684058" xlink:href="#m4a5ba3714b" y="171.151439"/>
     <use style="fill:#d62728;stroke:#d62728;" x="427.82015" xlink:href="#m4a5ba3714b" y="178.819322"/>
    </g>
   </g>
   <g id="PathCollection_5">
    <defs>
     <path d="M 0 3 
C 0.795609 3 1.55874 2.683901 2.12132 2.12132 
C 2.683901 1.55874 3 0.795609 3 0 
C 3 -0.795609 2.683901 -1.55874 2.12132 -2.12132 
C 1.55874 -2.683901 0.795609 -3 0 -3 
C -0.795609 -3 -1.55874 -2.683901 -2.12132 -2.12132 
C -2.683901 -1.55874 -3 -0.795609 -3 0 
C -3 0.795609 -2.683901 1.55874 -2.12132 2.12132 
C -1.55874 2.683901 -0.795609 3 0 3 
z
" id="m83fec047ed" style="stroke:#9467bd;"/>
    </defs>
    <g clip-path="url(#p671f69384d)">
     <use style="fill:#9467bd;stroke:#9467bd;" x="350.248377" xlink:href="#m83fec047ed" y="219.402483"/>
     <use style="fill:#9467bd;stroke:#9467bd;" x="425.324486" xlink:href="#m83fec047ed" y="222.343048"/>
     <use style="fill:#9467bd;stroke:#9467bd;" x="442.493596" xlink:href="#m83fec047ed" y="232.273258"/>
     <use style="fill:#9467bd;stroke:#9467bd;" x="388.044075" xlink:href="#m83fec047ed" y="222.256275"/>
     <use style="fill:#9467bd;stroke:#9467bd;" x="403.625868" xlink:href="#m83fec047ed" y="229.650849"/>
     <use style="fill:#9467bd;stroke:#9467bd;" x="445.075963" xlink:href="#m83fec047ed" y="206.220113"/>
     <use style="fill:#9467bd;stroke:#9467bd;" x="374.310012" xlink:href="#m83fec047ed" y="204.408696"/>
     <use style="fill:#9467bd;stroke:#9467bd;" x="366.13967" xlink:href="#m83fec047ed" y="211.964834"/>
     <use style="fill:#9467bd;stroke:#9467bd;" x="362.280635" xlink:href="#m83fec047ed" y="229.046711"/>
     <use style="fill:#9467bd;stroke:#9467bd;" x="407.518878" xlink:href="#m83fec047ed" y="206.657953"/>
     <use style="fill:#9467bd;stroke:#9467bd;" x="428.755122" xlink:href="#m83fec047ed" y="213.281856"/>
     <use style="fill:#9467bd;stroke:#9467bd;" x="397.91793" xlink:href="#m83fec047ed" y="214.751812"/>
     <use style="fill:#9467bd;stroke:#9467bd;" x="464.40679" xlink:href="#m83fec047ed" y="225.202616"/>
     <use style="fill:#9467bd;stroke:#9467bd;" x="459.097227" xlink:href="#m83fec047ed" y="217.701171"/>
     <use style="fill:#9467bd;stroke:#9467bd;" x="498.844954" xlink:href="#m83fec047ed" y="219.853125"/>
     <use style="fill:#9467bd;stroke:#9467bd;" x="483.052372" xlink:href="#m83fec047ed" y="211.550987"/>
    </g>
   </g>
   <g id="matplotlib.axis_1">
    <g id="xtick_1">
     <g id="line2d_1">
      <defs>
       <path d="M 0 0 
L 0 3.5 
" id="mc094d40fac" style="stroke:#000000;stroke-width:0.8;"/>
      </defs>
      <g>
       <use style="stroke:#000000;stroke-width:0.8;" x="150.00533" xlink:href="#mc094d40fac" y="404.12"/>
      </g>
     </g>
     <g id="text_1">
      <!-- −400 -->
      <defs>
       <path d="M 10.59375 35.5 
L 73.1875 35.5 
L 73.1875 27.203125 
L 10.59375 27.203125 
z
" id="DejaVuSans-8722"/>
       <path d="M 37.796875 64.3125 
L 12.890625 25.390625 
L 37.796875 25.390625 
z
M 35.203125 72.90625 
L 47.609375 72.90625 
L 47.609375 25.390625 
L 58.015625 25.390625 
L 58.015625 17.1875 
L 47.609375 17.1875 
L 47.609375 0 
L 37.796875 0 
L 37.796875 17.1875 
L 4.890625 17.1875 
L 4.890625 26.703125 
z
" id="DejaVuSans-52"/>
       <path d="M 31.78125 66.40625 
Q 24.171875 66.40625 20.328125 58.90625 
Q 16.5 51.421875 16.5 36.375 
Q 16.5 21.390625 20.328125 13.890625 
Q 24.171875 6.390625 31.78125 6.390625 
Q 39.453125 6.390625 43.28125 13.890625 
Q 47.125 21.390625 47.125 36.375 
Q 47.125 51.421875 43.28125 58.90625 
Q 39.453125 66.40625 31.78125 66.40625 
z
M 31.78125 74.21875 
Q 44.046875 74.21875 50.515625 64.515625 
Q 56.984375 54.828125 56.984375 36.375 
Q 56.984375 17.96875 50.515625 8.265625 
Q 44.046875 -1.421875 31.78125 -1.421875 
Q 19.53125 -1.421875 13.0625 8.265625 
Q 6.59375 17.96875 6.59375 36.375 
Q 6.59375 54.828125 13.0625 64.515625 
Q 19.53125 74.21875 31.78125 74.21875 
z
" id="DejaVuSans-48"/>
      </defs>
      <g transform="translate(136.271737 418.718437)scale(0.1 -0.1)">
       <use xlink:href="#DejaVuSans-8722"/>
       <use x="83.789062" xlink:href="#DejaVuSans-52"/>
       <use x="147.412109" xlink:href="#DejaVuSans-48"/>
       <use x="211.035156" xlink:href="#DejaVuSans-48"/>
      </g>
     </g>
    </g>
    <g id="xtick_2">
     <g id="line2d_2">
      <g>
       <use style="stroke:#000000;stroke-width:0.8;" x="267.514573" xlink:href="#mc094d40fac" y="404.12"/>
      </g>
     </g>
     <g id="text_2">
      <!-- −200 -->
      <defs>
       <path d="M 19.1875 8.296875 
L 53.609375 8.296875 
L 53.609375 0 
L 7.328125 0 
L 7.328125 8.296875 
Q 12.9375 14.109375 22.625 23.890625 
Q 32.328125 33.6875 34.8125 36.53125 
Q 39.546875 41.84375 41.421875 45.53125 
Q 43.3125 49.21875 43.3125 52.78125 
Q 43.3125 58.59375 39.234375 62.25 
Q 35.15625 65.921875 28.609375 65.921875 
Q 23.96875 65.921875 18.8125 64.3125 
Q 13.671875 62.703125 7.8125 59.421875 
L 7.8125 69.390625 
Q 13.765625 71.78125 18.9375 73 
Q 24.125 74.21875 28.421875 74.21875 
Q 39.75 74.21875 46.484375 68.546875 
Q 53.21875 62.890625 53.21875 53.421875 
Q 53.21875 48.921875 51.53125 44.890625 
Q 49.859375 40.875 45.40625 35.40625 
Q 44.1875 33.984375 37.640625 27.21875 
Q 31.109375 20.453125 19.1875 8.296875 
z
" id="DejaVuSans-50"/>
      </defs>
      <g transform="translate(253.780979 418.718437)scale(0.1 -0.1)">
       <use xlink:href="#DejaVuSans-8722"/>
       <use x="83.789062" xlink:href="#DejaVuSans-50"/>
       <use x="147.412109" xlink:href="#DejaVuSans-48"/>
       <use x="211.035156" xlink:href="#DejaVuSans-48"/>
      </g>
     </g>
    </g>
    <g id="xtick_3">
     <g id="line2d_3">
      <g>
       <use style="stroke:#000000;stroke-width:0.8;" x="385.023815" xlink:href="#mc094d40fac" y="404.12"/>
      </g>
     </g>
     <g id="text_3">
      <!-- 0 -->
      <g transform="translate(381.842565 418.718437)scale(0.1 -0.1)">
       <use xlink:href="#DejaVuSans-48"/>
      </g>
     </g>
    </g>
    <g id="xtick_4">
     <g id="line2d_4">
      <g>
       <use style="stroke:#000000;stroke-width:0.8;" x="502.533058" xlink:href="#mc094d40fac" y="404.12"/>
      </g>
     </g>
     <g id="text_4">
      <!-- 200 -->
      <g transform="translate(492.989308 418.718437)scale(0.1 -0.1)">
       <use xlink:href="#DejaVuSans-50"/>
       <use x="63.623047" xlink:href="#DejaVuSans-48"/>
       <use x="127.246094" xlink:href="#DejaVuSans-48"/>
      </g>
     </g>
    </g>
    <g id="xtick_5">
     <g id="line2d_5">
      <g>
       <use style="stroke:#000000;stroke-width:0.8;" x="620.0423" xlink:href="#mc094d40fac" y="404.12"/>
      </g>
     </g>
     <g id="text_5">
      <!-- 400 -->
      <g transform="translate(610.49855 418.718437)scale(0.1 -0.1)">
       <use xlink:href="#DejaVuSans-52"/>
       <use x="63.623047" xlink:href="#DejaVuSans-48"/>
       <use x="127.246094" xlink:href="#DejaVuSans-48"/>
      </g>
     </g>
    </g>
   </g>
   <g id="matplotlib.axis_2">
    <g id="ytick_1">
     <g id="line2d_6">
      <defs>
       <path d="M 0 0 
L -3.5 0 
" id="mdf91bb4bfe" style="stroke:#000000;stroke-width:0.8;"/>
      </defs>
      <g>
       <use style="stroke:#000000;stroke-width:0.8;" x="51.46" xlink:href="#mdf91bb4bfe" y="388.166276"/>
      </g>
     </g>
     <g id="text_6">
      <!-- −1500 -->
      <defs>
       <path d="M 12.40625 8.296875 
L 28.515625 8.296875 
L 28.515625 63.921875 
L 10.984375 60.40625 
L 10.984375 69.390625 
L 28.421875 72.90625 
L 38.28125 72.90625 
L 38.28125 8.296875 
L 54.390625 8.296875 
L 54.390625 0 
L 12.40625 0 
z
" id="DejaVuSans-49"/>
       <path d="M 10.796875 72.90625 
L 49.515625 72.90625 
L 49.515625 64.59375 
L 19.828125 64.59375 
L 19.828125 46.734375 
Q 21.96875 47.46875 24.109375 47.828125 
Q 26.265625 48.1875 28.421875 48.1875 
Q 40.625 48.1875 47.75 41.5 
Q 54.890625 34.8125 54.890625 23.390625 
Q 54.890625 11.625 47.5625 5.09375 
Q 40.234375 -1.421875 26.90625 -1.421875 
Q 22.3125 -1.421875 17.546875 -0.640625 
Q 12.796875 0.140625 7.71875 1.703125 
L 7.71875 11.625 
Q 12.109375 9.234375 16.796875 8.0625 
Q 21.484375 6.890625 26.703125 6.890625 
Q 35.15625 6.890625 40.078125 11.328125 
Q 45.015625 15.765625 45.015625 23.390625 
Q 45.015625 31 40.078125 35.4375 
Q 35.15625 39.890625 26.703125 39.890625 
Q 22.75 39.890625 18.8125 39.015625 
Q 14.890625 38.140625 10.796875 36.28125 
z
" id="DejaVuSans-53"/>
      </defs>
      <g transform="translate(10.630313 391.965494)scale(0.1 -0.1)">
       <use xlink:href="#DejaVuSans-8722"/>
       <use x="83.789062" xlink:href="#DejaVuSans-49"/>
       <use x="147.412109" xlink:href="#DejaVuSans-53"/>
       <use x="211.035156" xlink:href="#DejaVuSans-48"/>
       <use x="274.658203" xlink:href="#DejaVuSans-48"/>
      </g>
     </g>
    </g>
    <g id="ytick_2">
     <g id="line2d_7">
      <g>
       <use style="stroke:#000000;stroke-width:0.8;" x="51.46" xlink:href="#mdf91bb4bfe" y="323.407442"/>
      </g>
     </g>
     <g id="text_7">
      <!-- −1000 -->
      <g transform="translate(10.630313 327.206661)scale(0.1 -0.1)">
       <use xlink:href="#DejaVuSans-8722"/>
       <use x="83.789062" xlink:href="#DejaVuSans-49"/>
       <use x="147.412109" xlink:href="#DejaVuSans-48"/>
       <use x="211.035156" xlink:href="#DejaVuSans-48"/>
       <use x="274.658203" xlink:href="#DejaVuSans-48"/>
      </g>
     </g>
    </g>
    <g id="ytick_3">
     <g id="line2d_8">
      <g>
       <use style="stroke:#000000;stroke-width:0.8;" x="51.46" xlink:href="#mdf91bb4bfe" y="258.648609"/>
      </g>
     </g>
     <g id="text_8">
      <!-- −500 -->
      <g transform="translate(16.992812 262.447828)scale(0.1 -0.1)">
       <use xlink:href="#DejaVuSans-8722"/>
       <use x="83.789062" xlink:href="#DejaVuSans-53"/>
       <use x="147.412109" xlink:href="#DejaVuSans-48"/>
       <use x="211.035156" xlink:href="#DejaVuSans-48"/>
      </g>
     </g>
    </g>
    <g id="ytick_4">
     <g id="line2d_9">
      <g>
       <use style="stroke:#000000;stroke-width:0.8;" x="51.46" xlink:href="#mdf91bb4bfe" y="193.889776"/>
      </g>
     </g>
     <g id="text_9">
      <!-- 0 -->
      <g transform="translate(38.0975 197.688994)scale(0.1 -0.1)">
       <use xlink:href="#DejaVuSans-48"/>
      </g>
     </g>
    </g>
    <g id="ytick_5">
     <g id="line2d_10">
      <g>
       <use style="stroke:#000000;stroke-width:0.8;" x="51.46" xlink:href="#mdf91bb4bfe" y="129.130942"/>
      </g>
     </g>
     <g id="text_10">
      <!-- 500 -->
      <g transform="translate(25.3725 132.930161)scale(0.1 -0.1)">
       <use xlink:href="#DejaVuSans-53"/>
       <use x="63.623047" xlink:href="#DejaVuSans-48"/>
       <use x="127.246094" xlink:href="#DejaVuSans-48"/>
      </g>
     </g>
    </g>
    <g id="ytick_6">
     <g id="line2d_11">
      <g>
       <use style="stroke:#000000;stroke-width:0.8;" x="51.46" xlink:href="#mdf91bb4bfe" y="64.372109"/>
      </g>
     </g>
     <g id="text_11">
      <!-- 1000 -->
      <g transform="translate(19.01 68.171328)scale(0.1 -0.1)">
       <use xlink:href="#DejaVuSans-49"/>
       <use x="63.623047" xlink:href="#DejaVuSans-48"/>
       <use x="127.246094" xlink:href="#DejaVuSans-48"/>
       <use x="190.869141" xlink:href="#DejaVuSans-48"/>
      </g>
     </g>
    </g>
   </g>
   <g id="patch_3">
    <path d="M 51.46 404.12 
L 51.46 28.32 
" style="fill:none;stroke:#000000;stroke-linecap:square;stroke-linejoin:miter;stroke-width:0.8;"/>
   </g>
   <g id="patch_4">
    <path d="M 642.6 404.12 
L 642.6 28.32 
" style="fill:none;stroke:#000000;stroke-linecap:square;stroke-linejoin:miter;stroke-width:0.8;"/>
   </g>
   <g id="patch_5">
    <path d="M 51.46 404.12 
L 642.6 404.12 
" style="fill:none;stroke:#000000;stroke-linecap:square;stroke-linejoin:miter;stroke-width:0.8;"/>
   </g>
   <g id="patch_6">
    <path d="M 51.46 28.32 
L 642.6 28.32 
" style="fill:none;stroke:#000000;stroke-linecap:square;stroke-linejoin:miter;stroke-width:0.8;"/>
   </g>
   <g id="text_12">
    <!-- tar_truth -->
    <defs>
     <path d="M 27.484375 70.21875 
L 27.484375 54.6875 
L 45.515625 54.6875 
L 45.515625 42.1875 
L 27.484375 42.1875 
L 27.484375 19 
Q 27.484375 15.1875 29 13.84375 
Q 30.515625 12.5 35.015625 12.5 
L 44 12.5 
L 44 0 
L 29 0 
Q 18.65625 0 14.328125 4.3125 
Q 10.015625 8.640625 10.015625 19 
L 10.015625 42.1875 
L 1.3125 42.1875 
L 1.3125 54.6875 
L 10.015625 54.6875 
L 10.015625 70.21875 
z
" id="DejaVuSans-Bold-116"/>
     <path d="M 32.90625 24.609375 
Q 27.4375 24.609375 24.671875 22.75 
Q 21.921875 20.90625 21.921875 17.28125 
Q 21.921875 13.96875 24.140625 12.078125 
Q 26.375 10.203125 30.328125 10.203125 
Q 35.25 10.203125 38.625 13.734375 
Q 42 17.28125 42 22.609375 
L 42 24.609375 
z
M 59.625 31.203125 
L 59.625 0 
L 42 0 
L 42 8.109375 
Q 38.484375 3.125 34.078125 0.84375 
Q 29.6875 -1.421875 23.390625 -1.421875 
Q 14.890625 -1.421875 9.59375 3.53125 
Q 4.296875 8.5 4.296875 16.40625 
Q 4.296875 26.03125 10.90625 30.515625 
Q 17.53125 35.015625 31.6875 35.015625 
L 42 35.015625 
L 42 36.375 
Q 42 40.53125 38.71875 42.453125 
Q 35.453125 44.390625 28.515625 44.390625 
Q 22.90625 44.390625 18.0625 43.265625 
Q 13.234375 42.140625 9.078125 39.890625 
L 9.078125 53.21875 
Q 14.703125 54.59375 20.359375 55.296875 
Q 26.03125 56 31.6875 56 
Q 46.484375 56 53.046875 50.171875 
Q 59.625 44.34375 59.625 31.203125 
z
" id="DejaVuSans-Bold-97"/>
     <path d="M 49.03125 39.796875 
Q 46.734375 40.875 44.453125 41.375 
Q 42.1875 41.890625 39.890625 41.890625 
Q 33.15625 41.890625 29.515625 37.5625 
Q 25.875 33.25 25.875 25.203125 
L 25.875 0 
L 8.40625 0 
L 8.40625 54.6875 
L 25.875 54.6875 
L 25.875 45.703125 
Q 29.25 51.078125 33.609375 53.53125 
Q 37.984375 56 44.09375 56 
Q 44.96875 56 45.984375 55.921875 
Q 47.015625 55.859375 48.96875 55.609375 
z
" id="DejaVuSans-Bold-114"/>
     <path d="M 50 -14.3125 
L 50 -23.578125 
L 0 -23.578125 
L 0 -14.3125 
z
" id="DejaVuSans-Bold-95"/>
     <path d="M 7.8125 21.296875 
L 7.8125 54.6875 
L 25.390625 54.6875 
L 25.390625 49.21875 
Q 25.390625 44.78125 25.34375 38.0625 
Q 25.296875 31.34375 25.296875 29.109375 
Q 25.296875 22.515625 25.640625 19.609375 
Q 25.984375 16.703125 26.8125 15.375 
Q 27.875 13.671875 29.609375 12.734375 
Q 31.34375 11.8125 33.59375 11.8125 
Q 39.0625 11.8125 42.1875 16.015625 
Q 45.3125 20.21875 45.3125 27.6875 
L 45.3125 54.6875 
L 62.796875 54.6875 
L 62.796875 0 
L 45.3125 0 
L 45.3125 7.90625 
Q 41.359375 3.125 36.9375 0.84375 
Q 32.515625 -1.421875 27.203125 -1.421875 
Q 17.71875 -1.421875 12.765625 4.390625 
Q 7.8125 10.203125 7.8125 21.296875 
z
" id="DejaVuSans-Bold-117"/>
     <path d="M 63.375 33.296875 
L 63.375 0 
L 45.796875 0 
L 45.796875 5.421875 
L 45.796875 25.390625 
Q 45.796875 32.5625 45.484375 35.25 
Q 45.171875 37.9375 44.390625 39.203125 
Q 43.359375 40.921875 41.59375 41.875 
Q 39.84375 42.828125 37.59375 42.828125 
Q 32.125 42.828125 29 38.59375 
Q 25.875 34.375 25.875 26.90625 
L 25.875 0 
L 8.40625 0 
L 8.40625 75.984375 
L 25.875 75.984375 
L 25.875 46.6875 
Q 29.828125 51.46875 34.265625 53.734375 
Q 38.71875 56 44.09375 56 
Q 53.5625 56 58.46875 50.1875 
Q 63.375 44.390625 63.375 33.296875 
z
" id="DejaVuSans-Bold-104"/>
    </defs>
    <g style="fill:#1f77b4;" transform="translate(306.88 22.32)scale(0.16 -0.16)">
     <use xlink:href="#DejaVuSans-Bold-116"/>
     <use x="47.802734" xlink:href="#DejaVuSans-Bold-97"/>
     <use x="115.283203" xlink:href="#DejaVuSans-Bold-114"/>
     <use x="164.599609" xlink:href="#DejaVuSans-Bold-95"/>
     <use x="214.599609" xlink:href="#DejaVuSans-Bold-116"/>
     <use x="262.402344" xlink:href="#DejaVuSans-Bold-114"/>
     <use x="311.71875" xlink:href="#DejaVuSans-Bold-117"/>
     <use x="382.910156" xlink:href="#DejaVuSans-Bold-116"/>
     <use x="430.712891" xlink:href="#DejaVuSans-Bold-104"/>
    </g>
   </g>
   <g id="legend_1">
    <g id="patch_7">
     <path d="M 58.46 109.710625 
L 96.8225 109.710625 
Q 98.8225 109.710625 98.8225 107.710625 
L 98.8225 35.32 
Q 98.8225 33.32 96.8225 33.32 
L 58.46 33.32 
Q 56.46 33.32 56.46 35.32 
L 56.46 107.710625 
Q 56.46 109.710625 58.46 109.710625 
z
" style="fill:#ffffff;opacity:0.8;stroke:#cccccc;stroke-linejoin:miter;"/>
    </g>
    <g id="PathCollection_6">
     <g>
      <use style="fill:#1f77b4;stroke:#1f77b4;" x="70.46" xlink:href="#m749d840bf1" y="42.293437"/>
     </g>
    </g>
    <g id="text_13">
     <!-- 0 -->
     <g transform="translate(88.46 44.918437)scale(0.1 -0.1)">
      <use xlink:href="#DejaVuSans-48"/>
     </g>
    </g>
    <g id="PathCollection_7">
     <g>
      <use style="fill:#ff7f0e;stroke:#ff7f0e;" x="70.46" xlink:href="#m1030e56f25" y="56.971563"/>
     </g>
    </g>
    <g id="text_14">
     <!-- 1 -->
     <g transform="translate(88.46 59.596563)scale(0.1 -0.1)">
      <use xlink:href="#DejaVuSans-49"/>
     </g>
    </g>
    <g id="PathCollection_8">
     <g>
      <use style="fill:#2ca02c;stroke:#2ca02c;" x="70.46" xlink:href="#m1a8f010047" y="71.649687"/>
     </g>
    </g>
    <g id="text_15">
     <!-- 2 -->
     <g transform="translate(88.46 74.274687)scale(0.1 -0.1)">
      <use xlink:href="#DejaVuSans-50"/>
     </g>
    </g>
    <g id="PathCollection_9">
     <g>
      <use style="fill:#d62728;stroke:#d62728;" x="70.46" xlink:href="#m4a5ba3714b" y="86.327812"/>
     </g>
    </g>
    <g id="text_16">
     <!-- 3 -->
     <defs>
      <path d="M 40.578125 39.3125 
Q 47.65625 37.796875 51.625 33 
Q 55.609375 28.21875 55.609375 21.1875 
Q 55.609375 10.40625 48.1875 4.484375 
Q 40.765625 -1.421875 27.09375 -1.421875 
Q 22.515625 -1.421875 17.65625 -0.515625 
Q 12.796875 0.390625 7.625 2.203125 
L 7.625 11.71875 
Q 11.71875 9.328125 16.59375 8.109375 
Q 21.484375 6.890625 26.8125 6.890625 
Q 36.078125 6.890625 40.9375 10.546875 
Q 45.796875 14.203125 45.796875 21.1875 
Q 45.796875 27.640625 41.28125 31.265625 
Q 36.765625 34.90625 28.71875 34.90625 
L 20.21875 34.90625 
L 20.21875 43.015625 
L 29.109375 43.015625 
Q 36.375 43.015625 40.234375 45.921875 
Q 44.09375 48.828125 44.09375 54.296875 
Q 44.09375 59.90625 40.109375 62.90625 
Q 36.140625 65.921875 28.71875 65.921875 
Q 24.65625 65.921875 20.015625 65.03125 
Q 15.375 64.15625 9.8125 62.3125 
L 9.8125 71.09375 
Q 15.4375 72.65625 20.34375 73.4375 
Q 25.25 74.21875 29.59375 74.21875 
Q 40.828125 74.21875 47.359375 69.109375 
Q 53.90625 64.015625 53.90625 55.328125 
Q 53.90625 49.265625 50.4375 45.09375 
Q 46.96875 40.921875 40.578125 39.3125 
z
" id="DejaVuSans-51"/>
     </defs>
     <g transform="translate(88.46 88.952812)scale(0.1 -0.1)">
      <use xlink:href="#DejaVuSans-51"/>
     </g>
    </g>
    <g id="PathCollection_10">
     <g>
      <use style="fill:#9467bd;stroke:#9467bd;" x="70.46" xlink:href="#m83fec047ed" y="101.005937"/>
     </g>
    </g>
    <g id="text_17">
     <!-- 4 -->
     <g transform="translate(88.46 103.630937)scale(0.1 -0.1)">
      <use xlink:href="#DejaVuSans-52"/>
     </g>
    </g>
   </g>
  </g>
  <g id="axes_2">
   <g id="patch_8">
    <path d="M 694.06 404.12 
L 1285.2 404.12 
L 1285.2 28.32 
L 694.06 28.32 
z
" style="fill:#ffffff;"/>
   </g>
   <g id="PathCollection_11">
    <g clip-path="url(#p0ade78981e)">
     <use style="fill:#1f77b4;stroke:#1f77b4;" x="1085.942587" xlink:href="#m749d840bf1" y="194.225287"/>
     <use style="fill:#1f77b4;stroke:#1f77b4;" x="1114.414063" xlink:href="#m749d840bf1" y="195.852572"/>
     <use style="fill:#1f77b4;stroke:#1f77b4;" x="1120.267632" xlink:href="#m749d840bf1" y="179.56023"/>
     <use style="fill:#1f77b4;stroke:#1f77b4;" x="1155.585106" xlink:href="#m749d840bf1" y="196.94049"/>
     <use style="fill:#1f77b4;stroke:#1f77b4;" x="1105.325663" xlink:href="#m749d840bf1" y="186.36753"/>
     <use style="fill:#1f77b4;stroke:#1f77b4;" x="1166.112212" xlink:href="#m749d840bf1" y="178.534338"/>
     <use style="fill:#1f77b4;stroke:#1f77b4;" x="1150.822366" xlink:href="#m749d840bf1" y="187.005625"/>
     <use style="fill:#1f77b4;stroke:#1f77b4;" x="1182.07802" xlink:href="#m749d840bf1" y="185.50114"/>
     <use style="fill:#1f77b4;stroke:#1f77b4;" x="977.478137" xlink:href="#m749d840bf1" y="194.720705"/>
     <use style="fill:#1f77b4;stroke:#1f77b4;" x="970.697194" xlink:href="#m749d840bf1" y="192.017384"/>
     <use style="fill:#1f77b4;stroke:#1f77b4;" x="1085.284058" xlink:href="#m749d840bf1" y="171.151439"/>
     <use style="fill:#1f77b4;stroke:#1f77b4;" x="1070.42015" xlink:href="#m749d840bf1" y="178.819322"/>
    </g>
   </g>
   <g id="PathCollection_12">
    <g clip-path="url(#p0ade78981e)">
     <use style="fill:#ff7f0e;stroke:#ff7f0e;" x="924.689352" xlink:href="#m1030e56f25" y="161.898827"/>
     <use style="fill:#ff7f0e;stroke:#ff7f0e;" x="960.287667" xlink:href="#m1030e56f25" y="167.618583"/>
     <use style="fill:#ff7f0e;stroke:#ff7f0e;" x="918.420297" xlink:href="#m1030e56f25" y="170.890943"/>
     <use style="fill:#ff7f0e;stroke:#ff7f0e;" x="945.904041" xlink:href="#m1030e56f25" y="175.76695"/>
     <use style="fill:#ff7f0e;stroke:#ff7f0e;" x="886.885788" xlink:href="#m1030e56f25" y="174.438485"/>
     <use style="fill:#ff7f0e;stroke:#ff7f0e;" x="915.352149" xlink:href="#m1030e56f25" y="178.528457"/>
     <use style="fill:#ff7f0e;stroke:#ff7f0e;" x="1024.056197" xlink:href="#m1030e56f25" y="189.293023"/>
     <use style="fill:#ff7f0e;stroke:#ff7f0e;" x="1007.252778" xlink:href="#m1030e56f25" y="184.601347"/>
     <use style="fill:#ff7f0e;stroke:#ff7f0e;" x="989.672939" xlink:href="#m1030e56f25" y="177.476421"/>
     <use style="fill:#ff7f0e;stroke:#ff7f0e;" x="1031.774862" xlink:href="#m1030e56f25" y="173.036212"/>
     <use style="fill:#ff7f0e;stroke:#ff7f0e;" x="991.067969" xlink:href="#m1030e56f25" y="155.055926"/>
     <use style="fill:#ff7f0e;stroke:#ff7f0e;" x="1258.33" xlink:href="#m1030e56f25" y="45.401818"/>
     <use style="fill:#ff7f0e;stroke:#ff7f0e;" x="720.93" xlink:href="#m1030e56f25" y="387.038182"/>
     <use style="fill:#ff7f0e;stroke:#ff7f0e;" x="896.434239" xlink:href="#m1030e56f25" y="206.639058"/>
     <use style="fill:#ff7f0e;stroke:#ff7f0e;" x="939.535688" xlink:href="#m1030e56f25" y="211.849123"/>
     <use style="fill:#ff7f0e;stroke:#ff7f0e;" x="939.690266" xlink:href="#m1030e56f25" y="205.306333"/>
     <use style="fill:#ff7f0e;stroke:#ff7f0e;" x="877.110839" xlink:href="#m1030e56f25" y="216.414792"/>
     <use style="fill:#ff7f0e;stroke:#ff7f0e;" x="905.278218" xlink:href="#m1030e56f25" y="217.581679"/>
     <use style="fill:#ff7f0e;stroke:#ff7f0e;" x="952.080924" xlink:href="#m1030e56f25" y="225.420434"/>
     <use style="fill:#ff7f0e;stroke:#ff7f0e;" x="863.580081" xlink:href="#m1030e56f25" y="191.495605"/>
     <use style="fill:#ff7f0e;stroke:#ff7f0e;" x="919.973616" xlink:href="#m1030e56f25" y="190.015929"/>
     <use style="fill:#ff7f0e;stroke:#ff7f0e;" x="882.187462" xlink:href="#m1030e56f25" y="190.710729"/>
     <use style="fill:#ff7f0e;stroke:#ff7f0e;" x="1005.537391" xlink:href="#m1030e56f25" y="166.181151"/>
    </g>
   </g>
   <g id="PathCollection_13">
    <g clip-path="url(#p0ade78981e)">
     <use style="fill:#2ca02c;stroke:#2ca02c;" x="1030.644075" xlink:href="#m1a8f010047" y="222.256275"/>
     <use style="fill:#2ca02c;stroke:#2ca02c;" x="1046.225868" xlink:href="#m1a8f010047" y="229.650849"/>
     <use style="fill:#2ca02c;stroke:#2ca02c;" x="1087.675963" xlink:href="#m1a8f010047" y="206.220113"/>
     <use style="fill:#2ca02c;stroke:#2ca02c;" x="1016.910012" xlink:href="#m1a8f010047" y="204.408696"/>
     <use style="fill:#2ca02c;stroke:#2ca02c;" x="1008.73967" xlink:href="#m1a8f010047" y="211.964834"/>
     <use style="fill:#2ca02c;stroke:#2ca02c;" x="1004.880635" xlink:href="#m1a8f010047" y="229.046711"/>
     <use style="fill:#2ca02c;stroke:#2ca02c;" x="1050.118878" xlink:href="#m1a8f010047" y="206.657953"/>
     <use style="fill:#2ca02c;stroke:#2ca02c;" x="1071.355122" xlink:href="#m1a8f010047" y="213.281856"/>
     <use style="fill:#2ca02c;stroke:#2ca02c;" x="1040.51793" xlink:href="#m1a8f010047" y="214.751812"/>
     <use style="fill:#2ca02c;stroke:#2ca02c;" x="1107.00679" xlink:href="#m1a8f010047" y="225.202616"/>
     <use style="fill:#2ca02c;stroke:#2ca02c;" x="1101.697227" xlink:href="#m1a8f010047" y="217.701171"/>
     <use style="fill:#2ca02c;stroke:#2ca02c;" x="1141.444954" xlink:href="#m1a8f010047" y="219.853125"/>
     <use style="fill:#2ca02c;stroke:#2ca02c;" x="1125.652372" xlink:href="#m1a8f010047" y="211.550987"/>
    </g>
   </g>
   <g id="PathCollection_14">
    <g clip-path="url(#p0ade78981e)">
     <use style="fill:#d62728;stroke:#d62728;" x="992.848377" xlink:href="#m4a5ba3714b" y="219.402483"/>
     <use style="fill:#d62728;stroke:#d62728;" x="1067.924486" xlink:href="#m4a5ba3714b" y="222.343048"/>
     <use style="fill:#d62728;stroke:#d62728;" x="1085.093596" xlink:href="#m4a5ba3714b" y="232.273258"/>
    </g>
   </g>
   <g id="matplotlib.axis_3">
    <g id="xtick_6">
     <g id="line2d_12">
      <g>
       <use style="stroke:#000000;stroke-width:0.8;" x="792.60533" xlink:href="#mc094d40fac" y="404.12"/>
      </g>
     </g>
     <g id="text_18">
      <!-- −400 -->
      <g transform="translate(778.871737 418.718437)scale(0.1 -0.1)">
       <use xlink:href="#DejaVuSans-8722"/>
       <use x="83.789062" xlink:href="#DejaVuSans-52"/>
       <use x="147.412109" xlink:href="#DejaVuSans-48"/>
       <use x="211.035156" xlink:href="#DejaVuSans-48"/>
      </g>
     </g>
    </g>
    <g id="xtick_7">
     <g id="line2d_13">
      <g>
       <use style="stroke:#000000;stroke-width:0.8;" x="910.114573" xlink:href="#mc094d40fac" y="404.12"/>
      </g>
     </g>
     <g id="text_19">
      <!-- −200 -->
      <g transform="translate(896.380979 418.718437)scale(0.1 -0.1)">
       <use xlink:href="#DejaVuSans-8722"/>
       <use x="83.789062" xlink:href="#DejaVuSans-50"/>
       <use x="147.412109" xlink:href="#DejaVuSans-48"/>
       <use x="211.035156" xlink:href="#DejaVuSans-48"/>
      </g>
     </g>
    </g>
    <g id="xtick_8">
     <g id="line2d_14">
      <g>
       <use style="stroke:#000000;stroke-width:0.8;" x="1027.623815" xlink:href="#mc094d40fac" y="404.12"/>
      </g>
     </g>
     <g id="text_20">
      <!-- 0 -->
      <g transform="translate(1024.442565 418.718437)scale(0.1 -0.1)">
       <use xlink:href="#DejaVuSans-48"/>
      </g>
     </g>
    </g>
    <g id="xtick_9">
     <g id="line2d_15">
      <g>
       <use style="stroke:#000000;stroke-width:0.8;" x="1145.133058" xlink:href="#mc094d40fac" y="404.12"/>
      </g>
     </g>
     <g id="text_21">
      <!-- 200 -->
      <g transform="translate(1135.589308 418.718437)scale(0.1 -0.1)">
       <use xlink:href="#DejaVuSans-50"/>
       <use x="63.623047" xlink:href="#DejaVuSans-48"/>
       <use x="127.246094" xlink:href="#DejaVuSans-48"/>
      </g>
     </g>
    </g>
    <g id="xtick_10">
     <g id="line2d_16">
      <g>
       <use style="stroke:#000000;stroke-width:0.8;" x="1262.6423" xlink:href="#mc094d40fac" y="404.12"/>
      </g>
     </g>
     <g id="text_22">
      <!-- 400 -->
      <g transform="translate(1253.09855 418.718437)scale(0.1 -0.1)">
       <use xlink:href="#DejaVuSans-52"/>
       <use x="63.623047" xlink:href="#DejaVuSans-48"/>
       <use x="127.246094" xlink:href="#DejaVuSans-48"/>
      </g>
     </g>
    </g>
   </g>
   <g id="matplotlib.axis_4">
    <g id="ytick_7">
     <g id="line2d_17">
      <g>
       <use style="stroke:#000000;stroke-width:0.8;" x="694.06" xlink:href="#mdf91bb4bfe" y="388.166276"/>
      </g>
     </g>
     <g id="text_23">
      <!-- −1500 -->
      <g transform="translate(653.230313 391.965494)scale(0.1 -0.1)">
       <use xlink:href="#DejaVuSans-8722"/>
       <use x="83.789062" xlink:href="#DejaVuSans-49"/>
       <use x="147.412109" xlink:href="#DejaVuSans-53"/>
       <use x="211.035156" xlink:href="#DejaVuSans-48"/>
       <use x="274.658203" xlink:href="#DejaVuSans-48"/>
      </g>
     </g>
    </g>
    <g id="ytick_8">
     <g id="line2d_18">
      <g>
       <use style="stroke:#000000;stroke-width:0.8;" x="694.06" xlink:href="#mdf91bb4bfe" y="323.407442"/>
      </g>
     </g>
     <g id="text_24">
      <!-- −1000 -->
      <g transform="translate(653.230313 327.206661)scale(0.1 -0.1)">
       <use xlink:href="#DejaVuSans-8722"/>
       <use x="83.789062" xlink:href="#DejaVuSans-49"/>
       <use x="147.412109" xlink:href="#DejaVuSans-48"/>
       <use x="211.035156" xlink:href="#DejaVuSans-48"/>
       <use x="274.658203" xlink:href="#DejaVuSans-48"/>
      </g>
     </g>
    </g>
    <g id="ytick_9">
     <g id="line2d_19">
      <g>
       <use style="stroke:#000000;stroke-width:0.8;" x="694.06" xlink:href="#mdf91bb4bfe" y="258.648609"/>
      </g>
     </g>
     <g id="text_25">
      <!-- −500 -->
      <g transform="translate(659.592813 262.447828)scale(0.1 -0.1)">
       <use xlink:href="#DejaVuSans-8722"/>
       <use x="83.789062" xlink:href="#DejaVuSans-53"/>
       <use x="147.412109" xlink:href="#DejaVuSans-48"/>
       <use x="211.035156" xlink:href="#DejaVuSans-48"/>
      </g>
     </g>
    </g>
    <g id="ytick_10">
     <g id="line2d_20">
      <g>
       <use style="stroke:#000000;stroke-width:0.8;" x="694.06" xlink:href="#mdf91bb4bfe" y="193.889776"/>
      </g>
     </g>
     <g id="text_26">
      <!-- 0 -->
      <g transform="translate(680.6975 197.688994)scale(0.1 -0.1)">
       <use xlink:href="#DejaVuSans-48"/>
      </g>
     </g>
    </g>
    <g id="ytick_11">
     <g id="line2d_21">
      <g>
       <use style="stroke:#000000;stroke-width:0.8;" x="694.06" xlink:href="#mdf91bb4bfe" y="129.130942"/>
      </g>
     </g>
     <g id="text_27">
      <!-- 500 -->
      <g transform="translate(667.9725 132.930161)scale(0.1 -0.1)">
       <use xlink:href="#DejaVuSans-53"/>
       <use x="63.623047" xlink:href="#DejaVuSans-48"/>
       <use x="127.246094" xlink:href="#DejaVuSans-48"/>
      </g>
     </g>
    </g>
    <g id="ytick_12">
     <g id="line2d_22">
      <g>
       <use style="stroke:#000000;stroke-width:0.8;" x="694.06" xlink:href="#mdf91bb4bfe" y="64.372109"/>
      </g>
     </g>
     <g id="text_28">
      <!-- 1000 -->
      <g transform="translate(661.61 68.171328)scale(0.1 -0.1)">
       <use xlink:href="#DejaVuSans-49"/>
       <use x="63.623047" xlink:href="#DejaVuSans-48"/>
       <use x="127.246094" xlink:href="#DejaVuSans-48"/>
       <use x="190.869141" xlink:href="#DejaVuSans-48"/>
      </g>
     </g>
    </g>
   </g>
   <g id="patch_9">
    <path d="M 694.06 404.12 
L 694.06 28.32 
" style="fill:none;stroke:#000000;stroke-linecap:square;stroke-linejoin:miter;stroke-width:0.8;"/>
   </g>
   <g id="patch_10">
    <path d="M 1285.2 404.12 
L 1285.2 28.32 
" style="fill:none;stroke:#000000;stroke-linecap:square;stroke-linejoin:miter;stroke-width:0.8;"/>
   </g>
   <g id="patch_11">
    <path d="M 694.06 404.12 
L 1285.2 404.12 
" style="fill:none;stroke:#000000;stroke-linecap:square;stroke-linejoin:miter;stroke-width:0.8;"/>
   </g>
   <g id="patch_12">
    <path d="M 694.06 28.32 
L 1285.2 28.32 
" style="fill:none;stroke:#000000;stroke-linecap:square;stroke-linejoin:miter;stroke-width:0.8;"/>
   </g>
   <g id="text_29">
    <!-- tar_cos -->
    <defs>
     <path d="M 52.59375 52.984375 
L 52.59375 38.71875 
Q 49.03125 41.15625 45.4375 42.328125 
Q 41.84375 43.5 37.984375 43.5 
Q 30.671875 43.5 26.59375 39.234375 
Q 22.515625 34.96875 22.515625 27.296875 
Q 22.515625 19.625 26.59375 15.34375 
Q 30.671875 11.078125 37.984375 11.078125 
Q 42.09375 11.078125 45.78125 12.296875 
Q 49.46875 13.53125 52.59375 15.921875 
L 52.59375 1.609375 
Q 48.484375 0.09375 44.265625 -0.65625 
Q 40.046875 -1.421875 35.796875 -1.421875 
Q 21 -1.421875 12.640625 6.171875 
Q 4.296875 13.765625 4.296875 27.296875 
Q 4.296875 40.828125 12.640625 48.40625 
Q 21 56 35.796875 56 
Q 40.09375 56 44.265625 55.25 
Q 48.4375 54.5 52.59375 52.984375 
z
" id="DejaVuSans-Bold-99"/>
     <path d="M 34.421875 43.5 
Q 28.609375 43.5 25.5625 39.328125 
Q 22.515625 35.15625 22.515625 27.296875 
Q 22.515625 19.4375 25.5625 15.25 
Q 28.609375 11.078125 34.421875 11.078125 
Q 40.140625 11.078125 43.15625 15.25 
Q 46.1875 19.4375 46.1875 27.296875 
Q 46.1875 35.15625 43.15625 39.328125 
Q 40.140625 43.5 34.421875 43.5 
z
M 34.421875 56 
Q 48.53125 56 56.46875 48.375 
Q 64.40625 40.765625 64.40625 27.296875 
Q 64.40625 13.8125 56.46875 6.1875 
Q 48.53125 -1.421875 34.421875 -1.421875 
Q 20.265625 -1.421875 12.28125 6.1875 
Q 4.296875 13.8125 4.296875 27.296875 
Q 4.296875 40.765625 12.28125 48.375 
Q 20.265625 56 34.421875 56 
z
" id="DejaVuSans-Bold-111"/>
     <path d="M 51.125 52.984375 
L 51.125 39.703125 
Q 45.515625 42.046875 40.28125 43.21875 
Q 35.0625 44.390625 30.421875 44.390625 
Q 25.4375 44.390625 23.015625 43.140625 
Q 20.609375 41.890625 20.609375 39.3125 
Q 20.609375 37.203125 22.4375 36.078125 
Q 24.265625 34.96875 29 34.421875 
L 32.078125 33.984375 
Q 45.515625 32.28125 50.140625 28.375 
Q 54.78125 24.46875 54.78125 16.109375 
Q 54.78125 7.375 48.328125 2.96875 
Q 41.890625 -1.421875 29.109375 -1.421875 
Q 23.6875 -1.421875 17.890625 -0.5625 
Q 12.109375 0.296875 6 2 
L 6 15.28125 
Q 11.234375 12.75 16.71875 11.46875 
Q 22.21875 10.203125 27.875 10.203125 
Q 33.015625 10.203125 35.59375 11.609375 
Q 38.1875 13.03125 38.1875 15.828125 
Q 38.1875 18.171875 36.40625 19.3125 
Q 34.625 20.453125 29.296875 21.09375 
L 26.21875 21.484375 
Q 14.546875 22.953125 9.859375 26.90625 
Q 5.171875 30.859375 5.171875 38.921875 
Q 5.171875 47.609375 11.125 51.796875 
Q 17.09375 56 29.390625 56 
Q 34.234375 56 39.546875 55.265625 
Q 44.875 54.546875 51.125 52.984375 
z
" id="DejaVuSans-Bold-115"/>
    </defs>
    <g style="fill:#1f77b4;" transform="translate(957.4625 22.32)scale(0.16 -0.16)">
     <use xlink:href="#DejaVuSans-Bold-116"/>
     <use x="47.802734" xlink:href="#DejaVuSans-Bold-97"/>
     <use x="115.283203" xlink:href="#DejaVuSans-Bold-114"/>
     <use x="164.599609" xlink:href="#DejaVuSans-Bold-95"/>
     <use x="214.599609" xlink:href="#DejaVuSans-Bold-99"/>
     <use x="273.876953" xlink:href="#DejaVuSans-Bold-111"/>
     <use x="342.578125" xlink:href="#DejaVuSans-Bold-115"/>
    </g>
   </g>
   <g id="legend_2">
    <g id="patch_13">
     <path d="M 701.06 95.0325 
L 739.4225 95.0325 
Q 741.4225 95.0325 741.4225 93.0325 
L 741.4225 35.32 
Q 741.4225 33.32 739.4225 33.32 
L 701.06 33.32 
Q 699.06 33.32 699.06 35.32 
L 699.06 93.0325 
Q 699.06 95.0325 701.06 95.0325 
z
" style="fill:#ffffff;opacity:0.8;stroke:#cccccc;stroke-linejoin:miter;"/>
    </g>
    <g id="PathCollection_15">
     <g>
      <use style="fill:#1f77b4;stroke:#1f77b4;" x="713.06" xlink:href="#m749d840bf1" y="42.293438"/>
     </g>
    </g>
    <g id="text_30">
     <!-- 0 -->
     <g transform="translate(731.06 44.918438)scale(0.1 -0.1)">
      <use xlink:href="#DejaVuSans-48"/>
     </g>
    </g>
    <g id="PathCollection_16">
     <g>
      <use style="fill:#ff7f0e;stroke:#ff7f0e;" x="713.06" xlink:href="#m1030e56f25" y="56.971563"/>
     </g>
    </g>
    <g id="text_31">
     <!-- 1 -->
     <g transform="translate(731.06 59.596563)scale(0.1 -0.1)">
      <use xlink:href="#DejaVuSans-49"/>
     </g>
    </g>
    <g id="PathCollection_17">
     <g>
      <use style="fill:#2ca02c;stroke:#2ca02c;" x="713.06" xlink:href="#m1a8f010047" y="71.649688"/>
     </g>
    </g>
    <g id="text_32">
     <!-- 2 -->
     <g transform="translate(731.06 74.274688)scale(0.1 -0.1)">
      <use xlink:href="#DejaVuSans-50"/>
     </g>
    </g>
    <g id="PathCollection_18">
     <g>
      <use style="fill:#d62728;stroke:#d62728;" x="713.06" xlink:href="#m4a5ba3714b" y="86.327813"/>
     </g>
    </g>
    <g id="text_33">
     <!-- 3 -->
     <g transform="translate(731.06 88.952813)scale(0.1 -0.1)">
      <use xlink:href="#DejaVuSans-51"/>
     </g>
    </g>
   </g>
  </g>
 </g>
 <defs>
  <clipPath id="p671f69384d">
   <rect height="375.8" width="591.14" x="51.46" y="28.32"/>
  </clipPath>
  <clipPath id="p0ade78981e">
   <rect height="375.8" width="591.14" x="694.06" y="28.32"/>
  </clipPath>
 </defs>
</svg>
